<svg width="613" height="364" viewBox="0 0 613 364" fill="none" xmlns="http://www.w3.org/2000/svg">
<g clip-path="url(#clip0)">
<path d="M595.07 126.082C578.059 94.1403 548.482 64.7262 507.641 43.1252C464.731 20.3752 411.86 6.81709 356.843 2.06793C300.983 -2.83442 243.361 0.918943 189.724 12.0258C135.473 23.2093 80.9163 41.823 43.0636 69.6285C22.9878 84.3356 8.65895 101.8 3.21858 121.103C-2.68155 142.092 0.460078 163.463 6.43683 184.374C18.0072 223.9 41.2246 262.659 78.0812 295.52C87.123 303.563 96.8543 311.223 107.275 318.423C108.884 319.572 110.8 319.879 112.562 319.572C113.175 319.649 113.788 319.879 114.401 319.879C187.195 324.857 260.066 330.909 333.166 333.743C400.902 336.347 473.007 335.275 536.529 318.117C564.727 310.533 577.83 295.52 588.787 278.055C599.131 261.74 606.027 244.735 609.782 227.27C616.985 193.49 612.311 158.407 595.07 126.082Z" fill="#141E28"/>
<path d="M564.037 294.524C559.133 284.796 545.876 278.515 533.923 274.532C495.994 261.893 453.007 255.689 411.783 253.544C368.873 251.322 325.809 254.386 284.049 262.276C282.823 262.506 281.903 262.965 281.444 263.578C257.92 265.034 234.472 267.408 211.255 270.855C191.716 273.766 172.176 277.673 153.173 282.115C135.703 286.252 117.389 290.465 101.145 296.899C89.5746 301.572 79.1536 309.078 79.1536 319.649C79.1536 329.683 88.6551 337.573 99.1527 342.859C113.022 350.059 130.262 353.276 146.507 356.034C165.28 359.174 184.36 361.013 203.516 362.085C285.351 366.758 369.792 362.621 450.095 350.289C484.5 345.003 523.042 337.343 551.087 320.645C561.968 314.593 569.324 304.865 564.037 294.524Z" fill="#B4C7E7"/>
<path d="M174.935 159.633C172.789 159.71 171.257 160.322 170.031 161.471C169.954 161.395 169.724 161.242 169.648 161.165C168.498 160.169 168.498 158.331 168.652 156.875C168.881 154.271 166.123 153.352 164.207 154.348C162.445 154.577 160.836 155.956 161.296 158.101C161.832 160.935 160.683 163.463 158.537 165.301C156.008 168.212 159.84 172.195 162.828 169.591C164.82 167.293 166.813 170.893 167.196 172.655C168.115 175.795 173.556 175.412 173.172 171.812C173.096 170.893 172.789 168.748 173.096 167.37C174.858 166.833 176.467 165.761 177.463 164.152C178.843 162.314 177.157 159.556 174.935 159.633Z" fill="#F7D06F"/>
<path d="M477.297 213.406C474.462 213.406 474.232 209.882 474.232 207.814C474.232 206.359 473.389 205.516 472.393 205.21C470.937 203.295 467.489 202.988 467.029 205.899C466.723 208.044 465.497 209.959 463.658 210.955C462.355 210.955 461.053 211.338 459.827 212.104C457.375 213.559 458.217 218.078 461.359 217.772C462.508 217.695 463.505 217.465 464.501 217.082C465.957 217.695 466.416 220.529 466.493 221.832C466.57 225.279 471.397 225.891 472.47 222.674C473.159 220.529 475.075 219.534 477.22 219.61C481.282 219.457 481.282 213.482 477.297 213.406Z" fill="#F7D06F"/>
<path d="M444.118 79.7399C441.973 80.1229 440.594 78.8973 440.364 77.2121C440.67 75.9099 440.747 74.6077 440.67 73.1524C440.44 69.3224 434.387 69.1692 434.617 73.1524C434.617 73.4588 434.617 73.6886 434.617 73.8418C434.387 74.6843 434.31 75.4503 434.31 76.2929C433.621 79.1271 431.705 81.5017 428.717 82.4975C428.487 82.5741 428.18 82.7273 428.027 82.8039C424.886 84.2593 427.108 89.6212 430.326 88.3956C430.632 88.319 430.862 88.1658 431.169 88.0892C433.161 87.17 434.694 88.4722 435.843 90.3106C436.073 92.532 436.992 94.7534 438.678 96.6683C440.67 98.8897 444.655 96.5917 443.735 93.7576C443.199 92.149 442.586 90.5404 441.82 89.0084C442.126 87.2466 443.735 85.8678 445.881 85.4848C449.635 84.9487 448.026 79.1271 444.118 79.7399Z" fill="#F7D06F"/>
<path d="M347.878 26.4268C344.2 27.6524 344.046 23.0564 344.429 20.9882C344.813 18.7668 342.897 17.2349 341.211 17.1583C339.219 15.6263 335.464 17.2349 336.46 20.2988C337.916 24.5884 336.231 28.7248 332.629 31.0227C332.323 31.2525 331.939 31.4057 331.633 31.6355C328.261 33.7803 331.25 38.6061 334.698 36.9209C337.227 35.3123 339.296 36.8443 340.751 39.0657C341.135 40.9041 342.207 42.5892 343.586 44.2744C346.115 47.032 349.64 43.585 348.337 40.5977C347.801 39.4487 347.188 38.2997 346.422 37.1507C346.115 35.1591 347.265 33.1675 349.563 32.4015C353.165 31.0227 351.632 25.1246 347.878 26.4268Z" fill="#F7D06F"/>
<path d="M280.831 74.0715C279.988 74.0715 279.221 74.1481 278.532 74.3779C275.314 74.3779 273.245 71.6204 273.628 68.0968C273.858 66.335 272.632 65.3392 271.329 65.2626C269.413 62.8114 264.816 64.42 265.965 67.7904C267.421 71.6204 266.578 75.5269 264.05 78.3611C263.513 78.7441 263.13 79.2037 262.747 79.6633C260.218 82.7273 264.05 86.4806 267.038 83.9529C267.268 83.7231 267.421 83.5699 267.651 83.3401C269.797 81.8847 271.789 85.3316 272.708 87.3232C272.785 87.553 272.785 87.6296 272.938 87.8594C274.854 91.383 279.758 88.2424 278.225 84.7954C278.149 84.7188 278.149 84.489 277.995 84.4125C277.306 82.5741 278.072 80.9655 279.834 80.4293C280.524 80.4293 281.137 80.3527 281.827 80.1229C284.968 79.2803 284.279 73.9949 280.831 74.0715Z" fill="#F7D06F"/>
<path d="M219.148 215.704C215.47 216.623 212.328 215.091 210.949 212.027C210.872 210.725 210.642 209.423 210.106 208.044C210.029 207.661 209.876 207.201 209.723 206.895C209.493 206.359 209.186 205.899 208.88 205.363C206.964 201.992 201.677 205.056 203.593 208.427C203.823 208.733 203.899 209.04 204.129 209.346C204.206 210.648 204.436 211.95 204.819 213.176C204.742 215.014 204.129 216.699 202.98 218.231C201.447 219.074 200.068 220.223 198.919 221.908C197.08 224.513 200.528 227.347 203.056 226.045C204.589 225.202 205.815 224.206 206.888 222.981C209.11 222.598 211.332 224.436 211.792 227.04C212.405 230.87 218.305 229.262 217.692 225.432C217.385 223.44 218.841 221.755 220.603 221.295C224.665 220.529 223.055 214.708 219.148 215.704Z" fill="#F7D06F"/>
<path d="M182.368 107.928C178.383 107.928 178.383 113.98 182.368 113.98C186.199 114.056 186.199 107.928 182.368 107.928Z" fill="white"/>
<path d="M207.424 144.313C203.439 144.313 203.439 150.364 207.424 150.364C211.255 150.441 211.255 144.313 207.424 144.313Z" fill="white"/>
<path d="M182.368 222.521C178.383 222.521 178.383 228.572 182.368 228.572C186.199 228.572 186.199 222.521 182.368 222.521Z" fill="white"/>
<path d="M225.967 188.281C221.983 188.281 221.983 194.332 225.967 194.332C229.798 194.332 229.798 188.281 225.967 188.281Z" fill="white"/>
<path d="M354.084 230.641C350.1 230.641 350.1 236.692 354.084 236.692C358.069 236.692 358.069 230.641 354.084 230.641Z" fill="white"/>
<path d="M466.34 164.535C464.731 164.612 463.275 165.838 463.275 167.599V168.519C463.275 170.127 464.731 171.659 466.34 171.582C467.949 171.506 469.405 170.28 469.405 168.519V167.599C469.405 165.914 467.949 164.459 466.34 164.535Z" fill="white"/>
<path d="M430.939 166.144C426.955 166.144 426.955 172.195 430.939 172.195C434.847 172.195 434.847 166.144 430.939 166.144Z" fill="white"/>
<path d="M409.944 129.07C405.959 129.07 405.959 135.121 409.944 135.121C413.852 135.121 413.852 129.07 409.944 129.07Z" fill="white"/>
<path d="M385.194 65.0328C381.209 65.0328 381.209 71.0842 385.194 71.0842C389.178 71.0842 389.178 65.0328 385.194 65.0328Z" fill="white"/>
<path d="M316.461 58.9815C312.477 58.9815 312.477 65.0328 316.461 65.0328C320.293 65.0328 320.369 58.9815 316.461 58.9815Z" fill="white"/>
<path d="M286.961 27.346C285.352 27.4226 283.896 28.6482 283.896 30.4099V31.3291C283.896 32.9377 285.352 34.4697 286.961 34.3931C288.57 34.3165 290.026 33.0909 290.026 31.3291V30.4099C289.949 28.7248 288.57 27.2694 286.961 27.346Z" fill="white"/>
<path d="M240.756 62.0455C236.771 62.0455 236.771 68.0968 240.756 68.0968C244.74 68.0968 244.74 62.0455 240.756 62.0455Z" fill="white"/>
<path d="M304.814 233.705C300.83 233.705 300.83 239.756 304.814 239.756C308.722 239.756 308.722 233.705 304.814 233.705Z" fill="white"/>
<path d="M458.831 277.366C457.988 276.524 456.992 276.447 456.225 276.677H456.149C450.555 276.064 442.893 277.29 438.985 281.886C435.46 285.945 438.372 291.231 442.816 292.916C448.026 294.831 455.153 292.992 459.673 290.158C465.037 286.711 462.509 280.813 458.831 277.366ZM455.842 285.179C455.229 285.792 453.314 286.175 452.624 286.405C450.478 287.094 446.724 288.32 444.732 286.941C443.276 285.945 443.735 285.639 445.115 284.72C446.111 284.03 447.26 283.571 448.333 283.264C450.785 282.575 453.237 282.345 455.612 282.652C456.302 283.341 456.685 284.183 455.842 285.179Z" fill="#57455D"/>
<path d="M417.3 273.23C416.763 271.468 415.154 270.932 413.545 271.085C410.633 271.468 407.645 271.928 404.733 272.311C403.124 272.54 402.205 274.609 402.588 276.064C403.124 277.826 404.733 278.362 406.342 278.209C409.254 277.826 412.243 277.366 415.154 276.983C416.763 276.753 417.683 274.762 417.3 273.23Z" fill="#57455D"/>
<path d="M342.82 340.714L332.859 343.012C329.028 343.931 330.637 349.829 334.468 348.91C337.84 348.067 341.134 347.378 344.429 346.612C348.184 345.693 346.575 339.871 342.82 340.714Z" fill="#57455D"/>
<path d="M249.185 322.636C248.648 320.875 247.039 320.185 245.43 320.492C243.514 320.798 241.599 321.104 239.683 321.411C238.074 321.717 237.154 323.709 237.537 325.164C238.074 326.926 239.683 327.615 241.292 327.309C243.208 327.003 245.123 326.696 247.039 326.39C248.725 326.083 249.644 324.015 249.185 322.636Z" fill="#57455D"/>
<path d="M222.213 289.162C219.148 285.945 214.32 285.409 209.876 286.098C209.34 286.022 208.727 286.022 208.114 286.175C207.424 286.481 206.581 286.788 205.815 287.094C205.278 287.324 204.819 287.477 204.359 287.707C204.282 287.784 204.052 287.784 203.976 287.937C199.915 289.852 195.547 292.839 197.693 297.282C200.451 303.027 210.336 301.572 215.163 300.04C219.454 298.661 227.193 294.524 222.213 289.162ZM216.006 293.222C214.703 293.912 212.941 294.448 211.408 294.754C210.106 295.061 208.803 295.137 207.347 295.137C206.428 295.137 205.355 294.831 204.436 294.831C204.742 294.601 205.049 294.448 205.355 294.218C206.581 293.529 207.807 292.916 209.11 292.38C211.332 291.69 213.554 291.69 215.929 292.38C217.155 292.763 217.538 292.303 216.006 293.222Z" fill="#57455D"/>
<path d="M255.621 278.898H250.947C249.338 278.898 247.805 280.354 247.882 281.962C247.959 283.571 249.185 285.026 250.947 285.026H255.621C257.23 285.026 258.763 283.571 258.686 281.962C258.533 280.354 257.307 278.898 255.621 278.898Z" fill="#57455D"/>
<path d="M415.001 317.198C410.633 317.581 406.266 318.04 401.898 318.423C398.067 318.806 398.067 324.934 401.898 324.475C406.266 324.092 410.633 323.632 415.001 323.249C418.909 322.866 418.909 316.815 415.001 317.198Z" fill="#57455D"/>
<path d="M302.056 336.194C298.914 335.888 296.002 336.118 292.861 336.731C291.252 337.037 290.332 338.952 290.715 340.484C291.252 342.246 292.861 342.935 294.47 342.629C296.998 342.246 299.527 342.093 302.056 342.399C303.665 342.476 305.121 340.867 305.121 339.335C305.121 337.497 303.665 336.424 302.056 336.194Z" fill="#57455D"/>
<path d="M199.685 313.291C197.539 313.521 195.547 313.674 193.401 313.827C191.792 313.904 190.336 315.13 190.336 316.891C190.336 318.423 191.792 320.032 193.401 319.955C195.547 319.726 197.539 319.572 199.685 319.419C201.294 319.343 202.75 318.117 202.75 316.355C202.75 314.823 201.294 313.138 199.685 313.291Z" fill="#57455D"/>
<path d="M124.439 176.178C123.29 162.008 112.179 150.824 98.693 149.445C86.8927 143.854 71.7976 146.841 62.9857 156.569C52.718 167.906 51.9517 185.677 59.461 198.622C77.3146 229.032 126.968 209.882 124.439 176.178Z" fill="#74A2D6"/>
<path d="M84.3641 188.051C76.9315 192.035 68.8092 193.26 60.7636 191.498C56.9324 190.656 55.3232 196.554 59.1545 197.396C68.9625 199.388 78.6172 198.086 87.5824 193.337C90.8772 191.422 87.8122 186.213 84.3641 188.051Z" fill="#57455D"/>
<path d="M112.179 162.697C102.984 166.45 93.4824 168.902 83.5978 169.897C79.7666 170.28 79.7666 176.408 83.5978 175.949C94.0188 174.8 104.057 172.425 113.788 168.519C117.313 167.14 115.704 161.318 112.179 162.697Z" fill="#57455D"/>
<path d="M103.52 195.864H99.9956C98.3865 195.864 96.854 197.32 96.9306 198.928C97.0072 200.537 98.2332 201.992 99.9956 201.992H103.52C105.129 201.992 106.662 200.537 106.585 198.928C106.585 197.167 105.283 195.864 103.52 195.864Z" fill="#57455D"/>
<path d="M573.691 170.434C574.534 166.067 574.075 161.625 571.929 157.488C569.171 152.126 564.037 148.373 558.366 147.224C558.29 147.147 558.06 147.147 557.983 146.994C547.409 143.317 535.149 146.611 528.483 155.726C521.97 164.612 522.276 177.864 529.172 186.443C536.068 195.022 548.942 198.316 558.979 193.72C568.021 189.89 574.075 180.162 573.691 170.434Z" fill="#EF86B0"/>
<path d="M577.216 178.323C574.074 176.025 570.703 181.081 573.768 183.379C574.917 184.528 574.764 185.37 573.538 185.983C572.695 187.209 571.699 187.285 570.396 186.29C568.557 185.753 566.718 185.064 564.956 184.451C561.891 183.455 558.903 182.306 555.914 181.081C549.018 178.476 542.198 175.489 535.532 172.272C528.866 169.055 522.123 165.684 515.839 161.854C514.843 161.242 513.617 160.629 512.774 159.71C511.242 158.178 510.552 157.718 512.545 156.492C515.456 154.731 521.05 156.416 523.885 157.488C527.563 158.944 529.479 153.122 525.801 151.743C520.054 149.522 502.277 147.99 505.189 159.02C506.415 163.616 510.936 166.144 514.843 168.365C520.59 171.736 526.644 174.723 532.697 177.71C539.057 180.774 545.57 183.609 552.083 186.213C558.06 188.511 564.343 191.498 570.626 192.724C579.362 194.333 584.342 183.685 577.216 178.323Z" fill="#F7D06F"/>
<path d="M563.04 159.173L558.137 155.803C554.918 153.582 551.47 158.637 554.688 160.859L559.592 164.229C562.811 166.374 566.259 161.395 563.04 159.173Z" fill="#57455D"/>
<path d="M548.942 165.225C546.03 163.386 542.735 162.391 539.21 162.161C535.226 161.931 534.843 168.059 538.827 168.212C541.279 168.289 543.501 168.902 545.493 170.204C548.942 172.348 552.236 167.293 548.942 165.225Z" fill="#57455D"/>
<path d="M548.405 190.273C548.788 188.817 548.175 186.826 546.49 186.443C545.264 186.136 543.961 185.83 542.735 185.6C541.202 185.294 539.363 185.83 538.904 187.515C538.52 188.971 539.133 190.962 540.819 191.345C542.045 191.652 543.348 191.958 544.574 192.188C546.183 192.494 548.022 191.881 548.405 190.273Z" fill="#57455D"/>
<path d="M579.438 236.386C577.446 236.692 575.454 236.998 573.462 237.381C573.155 235.849 572.925 234.471 572.619 232.939C571.929 229.109 566.105 230.717 566.718 234.547C566.948 235.849 567.102 237.075 567.408 238.377C565.952 238.607 564.65 238.76 563.27 239.066C559.439 239.679 561.048 245.577 564.879 244.965C566.105 244.735 567.178 244.582 568.404 244.352L569.324 249.714C570.013 253.544 575.837 251.935 575.224 248.105C574.917 246.497 574.687 244.965 574.381 243.356C576.603 243.05 578.749 242.667 580.971 242.36C584.955 241.594 583.27 235.773 579.438 236.386Z" fill="#F7D06F"/>
<path d="M107.582 93.3746H101.222C100.379 90.5404 99.6892 87.7062 98.9229 84.9487C97.9268 81.1953 92.0267 82.8039 93.0228 86.5572C93.6358 88.7786 94.2488 91.1532 94.9384 93.3746H92.4864C88.5019 93.3746 88.5019 99.4259 92.4864 99.4259H96.6242C97.0073 100.728 97.3138 102.03 97.7736 103.409C98.7697 107.162 104.67 105.554 103.674 101.801C103.444 100.958 103.291 100.269 103.061 99.5025H107.811C111.489 99.4259 111.489 93.3746 107.582 93.3746Z" fill="#F7D06F"/>
<path d="M117.466 228.189C115.857 228.802 114.095 229.338 112.486 229.951C112.102 228.955 111.566 227.96 111.183 226.887C110.493 225.355 108.348 225.049 107.045 225.738C105.513 226.657 105.283 228.343 105.896 229.875C106.202 230.487 106.509 231.177 106.815 231.79C106.202 232.019 105.589 232.173 104.976 232.402C101.298 233.628 102.831 239.526 106.585 238.3C107.505 237.994 108.348 237.688 109.191 237.381C109.574 238.377 110.11 239.373 110.493 240.445C111.183 241.977 113.328 242.284 114.631 241.594C116.164 240.675 116.393 238.99 115.78 237.458C115.474 236.845 115.167 236.156 114.861 235.543C116.317 235.007 117.619 234.624 118.999 234.088C122.83 232.785 121.221 226.887 117.466 228.189Z" fill="#F7D06F"/>
<path d="M504.576 292.456C501.051 293.375 497.373 293.758 493.695 293.988C489.71 294.065 489.71 300.193 493.695 300.04C497.833 299.963 502.047 299.35 506.185 298.278C509.939 297.435 508.33 291.537 504.576 292.456Z" fill="#57455D"/>
<path d="M469.788 323.785C464.731 325.011 459.673 325.7 454.463 325.93C450.478 326.007 450.478 332.135 454.463 331.981C460.133 331.752 465.803 330.986 471.397 329.683C475.305 328.764 473.696 322.866 469.788 323.785Z" fill="#57455D"/>
<path d="M227.27 345.233C224.664 346.459 221.906 346.842 219.071 346.689C215.086 346.382 215.24 352.433 219.071 352.74C223.055 353.046 226.81 352.204 230.411 350.519C234.013 348.757 230.871 343.625 227.27 345.233Z" fill="#57455D"/>
<path d="M151.334 329.684H141.526C137.542 329.684 137.542 335.735 141.526 335.735H151.334C155.166 335.811 155.166 329.684 151.334 329.684Z" fill="#57455D"/>
<path d="M150.415 302.108C146.89 303.027 143.289 303.257 139.687 302.95C135.856 302.644 135.856 308.695 139.687 309.002C143.825 309.308 148.04 309.002 152.024 308.006C155.855 307.01 154.246 301.112 150.415 302.108Z" fill="#57455D"/>
<path d="M528.559 96.9747H524.575C524.268 95.3662 523.885 93.7576 523.425 92.0724C522.276 88.319 516.452 89.9276 517.525 93.681C517.832 94.83 518.138 95.9023 518.368 96.8981H516.069C512.085 96.8981 512.085 102.949 516.069 102.949H519.211C519.288 104.558 519.288 106.32 519.211 107.928C518.981 111.912 525.111 111.758 525.264 107.928C525.341 106.32 525.341 104.558 525.264 102.949H528.483C532.467 103.103 532.467 96.9747 528.559 96.9747Z" fill="#F7D06F"/>
<path d="M183.364 51.4747H176.467C176.161 49.2534 175.854 47.032 175.548 44.8106C175.012 40.9806 169.188 42.5892 169.648 46.4192C169.878 48.181 170.184 49.7895 170.337 51.4747H167.272C163.288 51.4747 163.288 57.5261 167.272 57.5261H171.104C171.334 58.8283 171.487 60.1305 171.717 61.5093C172.253 65.3392 178.077 63.7306 177.617 59.9007C177.54 59.0581 177.387 58.3687 177.31 57.6027H183.364C187.348 57.5261 187.348 51.4747 183.364 51.4747Z" fill="#F7D06F"/>
<path d="M143.212 83.6465C139.228 83.6465 139.228 89.6978 143.212 89.6978C147.197 89.6978 147.197 83.6465 143.212 83.6465Z" fill="white"/>
<path d="M65.591 128.151C61.6065 128.151 61.6065 134.202 65.591 134.202C69.5755 134.202 69.5755 128.151 65.591 128.151Z" fill="white"/>
<path d="M154.859 244.045C150.875 244.045 150.875 250.097 154.859 250.097C158.69 250.097 158.69 244.045 154.859 244.045Z" fill="white"/>
<path d="M98.693 274.302C94.7085 274.302 94.7085 280.354 98.693 280.354C102.524 280.43 102.524 274.302 98.693 274.302Z" fill="white"/>
<path d="M72.7938 239.526C68.8093 239.526 68.8093 245.577 72.7938 245.577C76.7017 245.654 76.7017 239.526 72.7938 239.526Z" fill="white"/>
<path d="M231.561 23.899C229.952 23.9756 228.496 25.2012 228.496 26.963V27.8821C228.496 29.4907 229.952 31.0227 231.561 30.9461C233.17 30.8695 234.626 29.6439 234.626 27.8821V26.963C234.626 25.2778 233.17 23.8224 231.561 23.899Z" fill="white"/>
<path d="M407.645 24.665C406.419 23.516 404.503 23.4394 403.354 24.665C403.048 24.9714 402.741 25.2778 402.435 25.5842C401.285 26.7332 401.209 28.7248 402.435 29.8737C403.661 31.0227 405.576 31.0993 406.726 29.8737L407.645 28.9545C408.718 27.9588 408.871 25.814 407.645 24.665Z" fill="white"/>
<path d="M474.998 98.7365H474.079C472.47 98.7365 470.937 100.192 471.014 101.8C471.09 103.409 472.316 104.864 474.079 104.864H474.998C476.607 104.864 478.14 103.409 478.063 101.8C477.987 100.115 476.684 98.7365 474.998 98.7365Z" fill="white"/>
<path d="M573.998 129.07H573.078C571.469 129.07 569.937 130.525 570.013 132.134C570.09 133.742 571.316 135.198 573.078 135.198H573.998C575.607 135.198 577.139 133.742 577.063 132.134C576.986 130.449 575.684 129.07 573.998 129.07Z" fill="white"/>
<path d="M524.038 250.327C520.054 250.327 520.054 256.378 524.038 256.378C528.023 256.378 528.023 250.327 524.038 250.327Z" fill="white"/>
<path d="M374.236 103.715C368.03 101.494 360.444 101.877 354.084 101.954C350.329 101.571 346.575 101.341 343.05 101.264C318.683 100.575 289.796 97.7407 267.268 108.388C258.226 112.678 251.713 121.563 247.729 130.985C244.51 138.492 246.732 146.535 254.625 149.752C259.912 151.896 265.889 152.356 271.482 153.122C277.459 153.965 283.589 154.577 289.566 155.037C302.822 155.956 316.231 155.88 329.564 154.731C343.893 153.505 358.069 151.284 371.938 147.607C382.818 144.773 388.182 137.649 387.952 126.312C387.646 117.197 383.508 106.933 374.236 103.715Z" fill="#57455D"/>
<path d="M466.34 45.1936C462.355 45.1936 462.355 51.2449 466.34 51.2449C470.248 51.2449 470.248 45.1936 466.34 45.1936Z" fill="white"/>
<path d="M434.617 213.712H433.927C432.318 213.712 430.786 215.167 430.862 216.776C430.939 218.385 432.165 219.84 433.927 219.84H434.617C436.226 219.84 437.759 218.385 437.682 216.776C437.605 215.167 436.303 213.712 434.617 213.712Z" fill="white"/>
<path d="M405.499 230.87C399.906 223.364 394.772 215.474 390.174 207.278C381.133 191.039 374.39 173.651 369.792 155.65C364.582 135.198 362.589 131.215 363.739 110.15C365.041 108.924 365.041 106.32 362.743 105.707C338.223 99.3493 312.86 104.098 287.88 102.03C286.348 101.494 284.355 102.26 284.202 104.328C283.053 134.508 281.673 147.76 274.547 177.251C271.176 190.809 266.732 204.214 260.525 216.776C254.855 228.343 244.74 239.296 243.591 252.471C243.514 253.774 244.893 255.076 246.119 254.999C257.613 254.463 265.276 245.194 271.789 236.769C279.605 226.734 286.501 216.01 292.171 204.75C297.841 193.49 301.673 181.847 305.964 170.051C306.883 167.446 308.109 164.689 310.101 162.774C313.166 160.016 318.147 159.863 321.978 159.633C328.874 159.25 335.771 159.863 342.59 161.242C342.514 161.778 342.514 162.391 342.82 162.85C351.172 180.008 359.524 197.09 370.329 212.946C375.386 220.376 380.903 227.423 387.033 233.934C391.094 238.224 399.523 247.339 406.419 245.194C413.852 242.896 408.028 234.164 405.499 230.87Z" fill="white"/>
<path d="M336.92 151.054C327.112 149.139 314.929 150.747 306.27 156.492C305.351 156.263 304.355 156.569 303.665 157.641C303.129 158.331 302.745 159.097 302.209 159.863C299.144 162.927 296.922 166.68 295.926 171.199C295.849 171.582 295.849 171.889 295.926 172.348C292.171 182.077 291.252 192.647 297.535 201.763C305.274 213.023 320.829 215.321 333.242 212.104C347.035 208.427 358.299 198.086 359.141 183.302C359.831 168.442 352.169 153.965 336.92 151.054Z" fill="#B4C7E7"/>
<path d="M341.824 102.873C337.227 100.115 330.943 100.728 325.886 100.881C318.07 100.881 310.178 101.418 302.362 102.184C301.749 102.26 301.213 102.49 300.83 102.796C299.527 102.796 298.301 103.639 298.071 105.247C297.535 112.448 297.995 119.648 299.297 126.772C300.217 131.444 301.213 134.662 306.5 134.968C313.703 135.274 320.982 134.968 328.338 134.968C332.169 134.968 336.23 135.198 340.138 134.968C341.977 134.891 343.586 134.662 344.889 133.206C346.498 131.444 346.345 129.07 346.422 126.848C346.498 122.865 346.651 118.806 346.651 114.899C346.651 110.38 346.038 105.477 341.824 102.873Z" fill="#F7D06F"/>
<path d="M355.31 123.631C354.927 123.325 354.391 123.248 353.854 123.095C353.854 123.019 353.778 123.019 353.778 122.865C352.781 121.946 351.172 121.87 350.1 122.865C348.337 124.704 348.184 127.538 349.793 129.453C351.326 131.291 354.391 131.291 356 129.683C357.839 127.921 357.532 125.01 355.31 123.631Z" fill="#EF86B0"/>
<path d="M354.314 106.243C352.092 105.86 350.023 106.856 349.257 109.001C349.18 109.307 349.18 109.69 349.18 110.15C349.104 110.533 349.104 110.839 349.18 111.299C350.406 115.665 357.609 114.822 357.609 110.303C357.609 108.158 356.076 106.626 354.314 106.243Z" fill="#EF86B0"/>
<path d="M285.122 210.342C280.064 207.125 274.854 203.754 269.797 200.537H269.72C269.72 197.933 265.429 196.86 264.663 199.848C261.291 212.333 251.866 221.525 246.12 232.939C243.821 237.688 236.312 255.765 246.426 256.684C250.87 257.067 255.314 253.237 258.609 250.71C262.67 247.646 266.502 244.199 269.95 240.445C277.153 232.556 282.593 223.287 286.348 213.253C286.654 212.18 285.888 210.878 285.122 210.342Z" fill="#74A2D6"/>
<path d="M405.499 226.964C400.519 218.461 395.691 210.035 390.711 201.533C389.561 196.937 387.952 191.498 383.278 191.805C380.443 192.034 377.301 194.103 374.849 195.481C371.171 197.473 367.647 199.771 364.275 202.299C363.739 202.682 363.432 203.218 363.279 203.831C362.896 204.52 362.743 205.439 363.202 206.359C367.034 214.248 372.704 220.759 379.83 225.891C379.83 225.891 379.907 225.891 379.907 225.968C381.209 227.5 382.512 229.032 383.968 230.411C387.722 234.471 391.554 238.224 395.615 241.977C398.45 244.505 401.821 247.952 405.959 247.339C409.331 246.803 411.4 243.816 411.553 240.675C411.706 235.696 407.798 230.947 405.499 226.964Z" fill="#74A2D6"/>
<path d="M337.303 170.28C334.085 161.625 324.124 154.884 315.388 160.782C314.469 161.395 314.162 162.314 314.239 163.08C309.258 169.285 309.335 181.311 311.327 187.592C313.626 195.328 323.817 206.129 332.552 200.154C341.058 194.332 340.521 178.859 337.303 170.28Z" fill="#F7D3BC"/>
<path d="M341.977 182.383C341.364 181.387 340.522 180.468 339.372 179.855C338.836 179.013 337.84 178.4 336.614 178.63C335.924 178.706 335.311 178.859 334.621 178.936C331.786 179.013 328.875 179.932 326.423 180.391C326.039 180.468 325.733 180.621 325.426 180.774C325.35 180.774 325.35 180.698 325.197 180.698C321.825 179.472 313.09 175.412 309.872 178.4C306.5 181.311 309.182 188.664 310.714 191.805C313.013 196.707 317.534 200.92 322.821 202.375C327.725 203.601 331.48 201.456 334.698 198.392C339.449 201.533 346.345 199.541 348.184 193.643C349.333 189.354 346.039 182.46 341.977 182.383Z" fill="#57455D"/>
<path d="M348.72 150.135C341.518 149.139 333.779 149.752 326.499 149.598C319.22 149.369 311.787 148.909 304.508 149.062C300.37 149.139 295.389 150.671 294.547 155.573C294.24 157.412 294.853 159.02 296.002 160.246C296.232 161.395 296.999 162.237 298.454 162.161C313.779 161.242 328.568 162.237 343.816 163.463C348.107 163.769 352.858 162.927 354.544 158.484C356.306 153.888 353.088 150.747 348.72 150.135Z" fill="#EF86B0"/>
<path d="M388.872 198.775C381.976 201.686 375.003 204.52 368.107 207.508C364.582 209.04 366.114 214.938 369.716 213.406C376.612 210.495 383.585 207.661 390.481 204.673C394.006 203.141 392.55 197.243 388.872 198.775Z" fill="#57455D"/>
<path d="M282.133 217.082C275.543 213.865 269.797 209.652 264.663 204.52C261.904 201.686 257.69 206.052 260.372 208.81C265.812 214.401 272.019 218.921 279.145 222.368C282.593 223.976 285.581 218.691 282.133 217.082Z" fill="#57455D"/>
<path d="M313.09 171.123C309.105 171.123 309.105 177.174 313.09 177.174C317.074 177.174 317.074 171.123 313.09 171.123Z" fill="#57455D"/>
<path d="M326.959 170.127H326.652C325.043 170.127 323.511 171.582 323.587 173.191C323.664 174.8 324.89 176.255 326.652 176.255H326.959C328.568 176.255 330.101 174.8 330.024 173.191C329.947 171.506 328.645 170.127 326.959 170.127Z" fill="#57455D"/>
<path d="M324.277 163.003C321.365 162.927 318.377 162.927 315.465 163.08C311.634 163.386 311.481 169.438 315.465 169.131C318.377 168.902 321.365 168.902 324.277 169.055C328.185 169.285 328.185 163.233 324.277 163.003Z" fill="#57455D"/>
<path d="M330.637 124.704C329.181 124.627 327.495 124.014 326.346 123.861C324.507 123.631 322.591 123.478 320.752 123.248C316.385 122.865 312.017 122.712 307.649 122.865C303.665 122.865 303.665 128.917 307.649 128.917C312.324 128.84 316.998 128.993 321.672 129.453C325.35 129.759 329.794 131.444 333.319 130.602C334.238 130.372 335.234 129.453 335.464 128.457L335.541 128.074C336.154 124.857 332.476 123.248 330.637 124.704Z" fill="#57455D"/>
<path d="M332.859 109.077C329.334 108.158 326.193 108.541 322.591 109.077C317.917 109.767 313.396 109.92 308.722 109.614C304.738 109.307 304.891 115.359 308.722 115.665C312.477 115.971 316.231 115.971 320.063 115.588C323.817 115.205 327.572 114.056 331.326 115.052C335.081 115.971 336.767 110.15 332.859 109.077Z" fill="#57455D"/>
<path d="M330.943 268.251C324.43 268.481 314.929 270.396 312.783 276.677C309.718 285.409 321.902 286.941 327.495 286.328C333.549 285.715 344.353 282.881 345.349 275.375C346.498 267.025 336.92 267.025 330.943 268.251ZM336.843 277.136C333.625 279.128 329.411 280.2 325.809 280.354C323.894 280.43 322.131 280.66 320.522 279.205C318.377 278.515 318.3 277.902 320.216 277.213L321.748 276.37C324.2 275.221 326.729 274.609 329.258 274.379C329.794 274.609 330.407 274.609 331.02 274.379C331.25 274.379 331.403 274.302 331.633 274.149C332.169 274.149 332.629 274.149 333.165 274.149C334.162 274.149 334.928 273.843 335.388 273.23C335.924 273.153 336.384 273.23 336.843 273.306C339.295 274.532 338.529 276.064 336.843 277.136Z" fill="#57455D"/>
<path d="M365.348 298.661C362.589 298.891 359.908 299.197 357.149 299.35C355.54 299.427 354.084 300.652 354.084 302.414C354.084 303.946 355.54 305.555 357.149 305.478C359.908 305.248 362.589 304.942 365.348 304.789C366.957 304.712 368.413 303.487 368.413 301.725C368.413 300.193 367.034 298.431 365.348 298.661Z" fill="#57455D"/>
<path d="M292.631 300.499H283.819C279.834 300.499 279.834 306.551 283.819 306.551H292.631C296.462 306.551 296.462 300.499 292.631 300.499Z" fill="#57455D"/>
</g>
<defs>
<clipPath id="clip0">
<rect width="613" height="364" fill="white"/>
</clipPath>
</defs>
</svg>
