<svg width="400" height="292" viewBox="0 0 400 292" fill="none" xmlns="http://www.w3.org/2000/svg">
<g clip-path="url(#clip0)">
<path d="M364.45 69.0787C344.2 44.8536 315.8 21.9771 278.8 9.38999C260.45 3.09645 240.25 -0.30006 219.75 -0.000368113C196.75 0.399221 174.35 5.24425 153.95 12.287C114.75 25.7232 80.1497 46.8016 53.5497 70.4273C27.4497 93.5535 8.29975 120.826 2.04975 149.846C-9.15025 201.393 25.9497 259.133 96.6997 282.759C98.9997 283.508 101.25 284.208 103.65 284.957C118.45 291.001 136.15 292.399 153.45 291.9C176.6 291.25 200.05 288.204 222.45 284.158C266.75 276.166 309.4 261.781 342.15 239.653C372.4 219.174 394.15 192.402 398.95 163.182C404.35 130.316 388.15 97.2997 364.45 69.0787Z" fill="#141E28"/>
<path d="M251.55 173.672C240.7 151.045 214.5 141.305 190.65 144.601C184.55 144.751 178.55 146.45 173.1 149.446C162.35 155.34 155.2 165.979 150.8 177.118C143.1 196.448 139.25 226.318 160.35 238.805C171.85 245.598 187.15 246.996 200.15 245.847C213.1 244.699 226.3 240.653 237 233.061C246.3 226.417 253.3 217.027 255.7 205.689C257.95 194.95 256.3 183.561 251.55 173.672Z" fill="#B4C7E7"/>
<path d="M193.9 99.1981C193.75 98.6986 193.4 98.299 192.75 98.0992C188.35 97.0004 182.05 95.6518 177.8 97.7996C174 99.6477 172.5 104.443 171.25 108.189C167.85 118.328 167.2 129.267 166.85 139.856C166.7 144.002 166.9 148.448 169.85 151.694C172.4 154.491 176.35 155.39 180 155.59C183.55 155.79 188.35 156.19 190.7 153.043C193.15 149.796 192 144.851 191.8 141.105C191.15 127.769 192.45 114.383 195.4 101.396C195.65 100.147 194.8 99.298 193.9 99.1981Z" fill="#EF86B0"/>
<path d="M230.35 64.7835C223 57.9904 211.3 54.544 201.5 56.5919C192.85 58.44 185.1 65.6326 184 74.5734C182.7 85.2125 191.7 97.3999 202.4 98.7985C202.7 98.8485 203.05 98.7985 203.25 98.6487C212.75 99.6976 222.85 99.5977 229.2 91.3562C235.15 83.764 238.4 72.2258 230.35 64.7835Z" fill="#B4C7E7"/>
<path d="M218.25 73.4745C214.2 69.8283 207.6 71.7263 204.2 75.2227C200.2 79.3185 198.8 86.3113 200.55 91.7058C202.2 96.9504 207.65 99.4478 212.8 97.4499C218.3 95.2521 220.7 89.1084 220.7 83.6141C220.7 83.3144 220.7 82.9148 220.7 82.5152C221.05 79.1187 220.6 75.6223 218.25 73.4745Z" fill="#F7D3BC"/>
<path d="M274.4 191.054C271.9 190.554 269.8 191.054 267.35 191.553C263.45 192.402 260.85 190.854 258 188.307C253.4 184.161 249.3 179.466 245.75 174.321C254.15 161.534 247.55 144.102 233.25 139.657C235.7 136.56 236.45 131.865 236.9 128.168C237.85 120.626 237.05 112.884 234.65 105.641C232.8 100.047 229.95 91.7557 223.15 90.9565C219.05 90.4571 214.7 91.0065 210.6 91.3561C206.1 91.7557 201.7 92.2552 197.25 93.0044C196.75 93.0544 196.4 93.3041 196.2 93.6538C196.2 93.6538 196.2 93.6538 196.15 93.6538C187.15 102.794 180.05 113.783 175.75 125.821C173.95 130.866 172.6 137.359 176.25 141.954C178.5 144.751 182.2 146.45 185.7 145.6C186.2 154.491 188.25 165.08 197.95 168.027C202.7 169.426 208 168.427 212.7 167.178C214.6 169.226 216.5 171.274 218.2 173.472C214.8 179.965 211.6 186.458 208.5 193.052C207.15 195.949 205.85 198.796 204.6 201.743C203.75 203.641 202.3 206.038 203.4 208.136C204.35 210.134 207.25 210.783 209.1 211.483L218.65 215.129C220 215.628 221.35 213.83 220.55 212.682C217.15 207.886 220.6 202.092 224.15 198.546C227.35 195.299 231 192.452 233.45 188.506C237.25 192.053 241.1 195.449 245.05 198.746C246.9 200.294 248.75 201.843 250.7 203.291C252.55 204.74 254.5 206.688 256.6 207.687C259.7 209.235 263.7 205.489 265.95 203.691C269.65 200.744 272.8 197.197 275.45 193.251C276 192.652 275.4 191.204 274.4 191.054Z" fill="white"/>
<path d="M223.35 73.8242C219.2 66.7315 208.85 66.1321 203.9 72.7253C202.75 74.2737 202.45 75.6723 200.55 76.7212C199.85 77.1208 198.95 77.1707 198.25 77.5703C196.4 78.5193 195.05 80.0678 194.2 81.9658C192.85 85.2125 193.6 88.9087 195.95 91.5559C198.15 94.0534 202.5 96.401 205.7 94.3031C208.7 92.2552 208.45 87.2604 208.45 83.5642C208.6 83.5642 208.7 83.5142 208.85 83.5142C208.55 84.6131 209.1 86.0116 210.65 86.0116C212.65 86.0116 213 83.6641 211.85 82.6151C212.45 82.3654 213.05 81.9658 213.6 81.6661C214.35 82.3654 215.35 83.0147 216.3 83.4643C215.8 83.764 215.4 84.4133 215.45 85.0626C215.5 86.1115 216.3 86.9607 217.35 86.9607H217.5C218.55 86.9607 219.5 86.0616 219.4 85.0626C219.4 84.8129 219.35 84.5631 219.2 84.3633C220.5 84.5132 221.7 84.1635 222.8 83.3144C225.75 80.9668 225 76.5713 223.35 73.8242Z" fill="#57455D"/>
<path d="M228.85 93.1043C229.3 92.0055 228.35 91.0065 227.25 90.8567C221.35 90.2073 215.3 90.4071 209.4 90.3572C206.5 90.3072 203.7 90.3072 200.8 90.2073C198.35 90.1574 195.8 89.7578 193.7 91.1064C193.05 91.506 192.65 92.2552 192.95 93.0045C193.2 93.8536 193.6 94.403 194.15 94.8526C194.4 95.3021 194.8 95.5518 195.45 95.6018C196.1 95.8515 196.85 96.0513 197.7 96.2012C201.15 96.7007 204.7 97.0503 208.2 97.2501C211.9 97.4499 215.65 97.4998 219.35 97.3C221.8 97.2501 226.1 97.7496 228.05 96.0014C228.85 95.2022 229.15 94.0534 228.85 93.1043Z" fill="#EF86B0"/>
<path d="M215.65 87.2104C214.35 87.0606 213.15 86.9107 211.85 86.7609C210.8 86.611 209.95 87.7099 209.95 88.6589C209.95 89.8077 210.85 90.4571 211.85 90.557C213.15 90.7068 214.35 90.8567 215.65 91.0065C216.7 91.1564 217.55 90.0575 217.55 89.1085C217.55 87.9596 216.65 87.3103 215.65 87.2104Z" fill="#57455D"/>
<path d="M229 190.155C224.6 187.407 219.9 184.96 215.4 182.413C214.25 181.763 213.2 182.413 212.75 183.312C212.5 183.462 212.3 183.711 212.1 183.961C209.65 188.057 207.4 192.302 205.5 196.648C204.3 199.395 201.15 204.19 202.55 207.287C202.75 207.687 202.95 207.986 203.2 208.236C204.5 211.383 209.1 212.831 213.05 213.381C215.5 214.679 219.45 217.077 221.5 214.979C224.2 212.282 219.85 208.885 220.55 206.188C221.05 204.19 223.65 202.192 224.95 200.744C226.55 198.996 228.2 197.347 229.75 195.549C231.6 193.401 231.4 191.653 229 190.155Z" fill="#74A2D6"/>
<path d="M220.15 123.623C220.15 121.725 220.15 119.827 220.1 117.929C220.05 116.281 220.15 114.283 219.6 112.734C218.45 109.787 214.6 110.287 212.05 110.187C209.55 110.137 205.25 109.138 203.8 111.935C202.95 113.533 202.85 115.931 202.6 117.679C202.3 119.727 201.95 121.825 201.7 123.873C201.55 124.572 201.9 125.072 202.35 125.421C202.4 125.921 202.65 126.37 203.3 126.72C207.9 128.968 214.2 127.469 219.15 127.169C221.05 127.119 221.4 124.522 220.15 123.623Z" fill="#F7D06F"/>
<path d="M218.55 131.315C216.05 130.116 212 130.266 209.3 130.366C207 130.416 203.7 130.366 202.7 132.913C202.25 134.062 202.3 135.011 202.7 135.711C202.9 137.609 203 139.557 205.25 139.956C208.7 140.606 212.8 140.256 216.35 140.356C218.85 140.406 220.2 139.856 220.35 137.159C220.45 135.111 220.65 132.364 218.55 131.315ZM210.9 134.362C209 134.312 207.2 134.212 207.2 134.162C207.2 134.112 208.95 134.212 210.9 134.362Z" fill="#F7D06F"/>
<path d="M268.6 218.326C265.8 212.731 260 209.435 253.85 209.784C252 209.934 251.3 212.282 252.9 213.381C253.95 214.08 255 214.729 256.05 215.429C233.95 218.326 211.4 217.776 189.5 213.98C178 211.932 166.65 209.035 155.65 205.189C149.95 203.191 144.3 201.043 138.7 198.546C137.75 198.146 135.05 197.647 135.9 195.999C136.35 195.15 139.3 194.85 140 194.65C143.15 193.801 146.3 193.002 149.45 192.153C150.4 191.903 150.8 191.204 150.8 190.404C151.85 189.306 151.45 187.008 149.6 187.158C148 187.208 145.7 187.457 143.1 188.007C140.2 188.057 137.45 188.706 135.15 190.454C130.45 192.502 126.95 195.699 128.1 200.594C129.15 204.69 133.55 206.438 137.1 207.787C142.4 212.132 149.5 213.631 156.35 214.38C179.25 221.173 203.15 224.619 227 224.619C240.6 224.619 254.1 223.47 267.5 221.223C268.8 220.923 269.1 219.325 268.6 218.326Z" fill="#EF86B0"/>
<path d="M179.3 166.129C178.35 163.782 175.5 164.081 173.9 165.48C172.3 166.879 171.1 168.926 170.35 170.924C170.05 171.873 169.9 172.922 170.55 173.722C171.3 174.82 172.75 175.02 173.9 174.421C175.3 174.121 176.6 172.872 177.45 171.923C178.65 170.475 180.1 168.077 179.3 166.129Z" fill="#F7D06F"/>
<path d="M190.25 69.5785C190.1 69.1789 189.95 68.9292 189.65 68.6794C189 67.4807 186.95 67.4807 186.3 68.6794C185.25 70.6774 182.65 77.0209 185.1 79.1187C185.6 79.768 186.45 80.0178 187.15 79.7681C188.8 79.5683 189.7 77.5703 190.15 76.1218C190.9 74.0239 190.85 71.6764 190.25 69.5785Z" fill="#F7D06F"/>
<path d="M324.6 183.262C324.1 183.462 323.5 183.661 323 183.861C322.85 183.112 322.75 182.313 322.7 181.564C322.55 180.515 321.25 179.965 320.35 180.215C319.25 180.515 318.9 181.564 319 182.562C319.05 183.212 319.2 183.761 319.25 184.411C318.8 184.411 318.3 184.411 317.8 184.361C315.3 184.161 315.35 188.007 317.8 188.207C318.5 188.257 319.15 188.257 319.85 188.257V188.406C320 189.455 321.3 190.005 322.2 189.755C323.15 189.505 323.6 188.656 323.55 187.757C324.25 187.557 324.95 187.358 325.65 187.058C327.9 186.109 326.9 182.313 324.6 183.262Z" fill="#F7D06F"/>
<path d="M281.6 152.493C281.15 152.543 280.65 152.693 280.2 152.743C279.9 151.794 279.5 150.895 279.1 149.996C278.05 147.748 274.75 149.696 275.75 151.894C276 152.393 276.2 152.993 276.4 153.492C275.2 153.792 273.9 154.142 272.7 154.441C270.35 155.141 271.35 158.837 273.75 158.138C274.95 157.838 276.2 157.488 277.4 157.189C277.45 157.788 277.55 158.387 277.6 158.987C277.75 161.434 281.6 161.484 281.45 158.987C281.4 158.088 281.3 157.238 281.15 156.339C281.65 156.289 282.2 156.14 282.7 156.09C285.1 155.74 284.05 152.044 281.6 152.493Z" fill="#F7D06F"/>
<path d="M161.2 72.7253H158.75C158.55 71.1269 158.3 69.5286 158.1 67.9302C157.8 65.4827 154.05 66.5317 154.4 68.9791C154.6 70.2778 154.7 71.4766 154.9 72.7752H153.45C150.95 72.7752 150.95 76.6213 153.45 76.6213H155.45L155.65 77.92C155.95 80.3674 159.7 79.3185 159.35 76.871C159.35 76.8211 159.35 76.6712 159.3 76.6213H161.2C163.65 76.5713 163.65 72.7253 161.2 72.7253Z" fill="#F7D06F"/>
<path d="M121 159.336C122.75 158.187 121.7 155.041 119.55 155.79C119.1 155.99 118.25 156.289 117.75 156.04L117.7 155.99C117.7 155.74 117.75 155.39 117.75 155.141C118.4 154.042 117.7 152.843 116.7 152.393C115.4 151.644 113.35 152.643 113.8 154.441C113.6 155.091 113.55 155.79 113.65 156.489C113.4 157.089 112.9 157.588 112.25 157.938C110 159.137 112 162.233 114.15 161.284C115.1 160.835 116.35 161.284 116.95 162.034C117.1 162.433 117.25 162.733 117.45 163.082C118.6 164.731 121.75 163.782 121 161.634C120.95 161.484 120.85 161.334 120.8 161.184C120.75 160.985 120.65 160.885 120.55 160.735C120.35 160.135 120.4 159.636 121 159.336Z" fill="#F7D06F"/>
<path d="M145.3 244.349C144.25 244.399 143.3 244.549 142.3 244.599C142 243.5 141.6 242.401 141.1 241.402C140.05 239.154 136.75 241.152 137.75 243.3C138 243.8 138.2 244.349 138.4 244.898C138.2 244.898 138.1 244.898 137.9 244.948C135.45 245.148 135.4 248.994 137.9 248.794C138.3 248.744 138.75 248.744 139.1 248.645C139.1 248.844 139.1 249.044 139.1 249.244C139.15 251.741 143 251.741 142.95 249.244C142.95 248.944 142.95 248.595 142.9 248.345C143.65 248.295 144.45 248.195 145.25 248.145C147.75 247.995 147.75 244.149 145.3 244.349Z" fill="#F7D06F"/>
<path d="M245.7 239.704C245.4 239.704 245 239.654 244.65 239.654L244.45 236.557C244.3 234.109 240.45 234.06 240.6 236.557L240.8 239.354C240.1 239.304 239.4 239.304 238.75 239.204C236.25 239.004 236.3 242.851 238.75 243.05C239.5 243.1 240.3 243.2 241.05 243.2L241.1 244.599C241.25 247.046 245.1 247.096 244.95 244.599L244.9 243.45C245.15 243.45 245.4 243.5 245.65 243.5C248.2 243.7 248.15 239.854 245.7 239.704Z" fill="#F7D06F"/>
<path d="M127.1 96.1013C125.9 96.2511 124.6 96.351 123.4 96.351L122.65 93.1044C122.05 90.6569 118.35 91.7058 118.95 94.1533L119.45 96.351H119.4C116.9 96.1512 116.95 99.9973 119.4 100.197C119.7 100.197 120.05 100.197 120.45 100.247L121.1 103.044C121.7 105.492 125.4 104.443 124.8 101.995C124.65 101.396 124.5 100.796 124.35 100.197C125.3 100.147 126.2 100.047 127.15 99.9473C129.55 99.6476 129.55 95.8016 127.1 96.1013Z" fill="#F7D06F"/>
<path d="M74.9496 216.378H73.3496C73.1996 215.079 73.0996 213.83 72.9496 212.482C72.6996 210.034 68.8496 210.034 69.0996 212.482C69.2496 213.78 69.3496 215.029 69.4996 216.378H68.3496C65.8496 216.378 65.8496 220.224 68.3496 220.224H69.9496C70.0996 221.123 70.1496 222.022 70.2496 222.971C70.4996 225.418 74.3496 225.418 74.0996 222.971C73.9496 222.072 73.8996 221.173 73.7996 220.224H74.9496C77.3996 220.224 77.3996 216.378 74.9496 216.378Z" fill="#F7D06F"/>
<path d="M246.1 38.2108H244.25C244.2 37.7113 244.1 37.1618 244.1 36.6623C243.95 34.2149 240.1 34.1649 240.25 36.6623C240.3 37.1618 240.3 37.7113 240.4 38.2108H239.1C236.6 38.2108 236.6 42.0568 239.1 42.0568H240.95C241.15 43.0058 241.35 43.9049 241.6 44.8539C242.25 47.2015 245.95 46.2025 245.3 43.805C245.1 43.2056 245 42.6062 244.85 42.0069H246.05C248.6 42.0568 248.6 38.2108 246.1 38.2108Z" fill="#F7D06F"/>
<path d="M191.65 33.2159C191.25 33.2658 190.9 33.3657 190.5 33.4157C190.3 32.2669 190.05 31.118 189.75 29.9692C189.1 27.6216 185.4 28.6206 186.05 31.0181C186.25 31.7174 186.45 32.4667 186.55 33.2159C184.2 32.6165 183.15 36.3627 185.5 36.9121C186 37.0619 186.6 37.1618 187.1 37.2118C187.15 38.4105 187.25 39.7092 187.15 41.0079C187.1 43.5053 190.95 43.5053 191 41.0079C191.05 39.8091 191 38.5104 190.95 37.3117C191.55 37.2617 192.1 37.1119 192.7 37.012C195.1 36.3627 194.1 32.6165 191.65 33.2159Z" fill="#F7D06F"/>
<path d="M119.6 217.527C118.55 217.576 117.7 218.376 117.7 219.425V220.074C117.7 221.123 118.6 222.072 119.6 221.972C120.65 221.922 121.5 221.123 121.5 220.074V219.425C121.5 218.526 120.6 217.527 119.6 217.527Z" fill="white"/>
<path d="M97.7998 186.808C95.2998 186.808 95.2998 190.654 97.7998 190.654C100.3 190.654 100.3 186.808 97.7998 186.808Z" fill="white"/>
<path d="M139.45 158.637C138.4 158.687 137.55 159.486 137.55 160.535V161.184C137.55 162.233 138.45 163.182 139.45 163.082C140.5 163.033 141.35 162.233 141.35 161.184V160.535C141.4 159.586 140.5 158.637 139.45 158.637Z" fill="white"/>
<path d="M108.75 127.169C108 126.47 106.75 126.42 106.05 127.169C105.85 127.369 105.6 127.619 105.4 127.819C104.7 128.518 104.65 129.817 105.4 130.516C106.15 131.215 107.4 131.265 108.1 130.516L108.75 129.867C109.45 129.167 109.5 127.869 108.75 127.169Z" fill="white"/>
<path d="M144.6 91.3561H143.95C142.9 91.3561 141.95 92.2552 142.05 93.2542C142.1 94.3031 142.9 95.1523 143.95 95.1523H144.6C145.65 95.1523 146.6 94.2532 146.5 93.2542C146.45 92.2552 145.7 91.3561 144.6 91.3561Z" fill="white"/>
<path d="M139.45 123.373C138.4 123.423 137.55 124.222 137.55 125.271V126.57C137.55 127.619 138.45 128.568 139.45 128.468C140.5 128.418 141.35 127.619 141.35 126.57V125.271C141.4 124.372 140.5 123.373 139.45 123.373Z" fill="white"/>
<path d="M140.75 63.1851H140.1C139.05 63.1851 138.1 64.0842 138.2 65.0831C138.25 66.1321 139.05 66.9812 140.1 66.9812H140.75C141.8 66.9812 142.75 66.0821 142.65 65.0831C142.6 64.0842 141.85 63.1851 140.75 63.1851Z" fill="white"/>
<path d="M174.75 43.3055C172.25 43.3055 172.25 47.1516 174.75 47.1516C177.25 47.1516 177.25 43.3055 174.75 43.3055Z" fill="white"/>
<path d="M215.15 39.4595C212.65 39.4595 212.65 43.3055 215.15 43.3055C217.65 43.3055 217.65 39.4595 215.15 39.4595Z" fill="white"/>
<path d="M264.5 47.8009C262 47.8009 262 51.647 264.5 51.647C267 51.647 267 47.8009 264.5 47.8009Z" fill="white"/>
<path d="M251.7 73.4246C250.65 73.4745 249.8 74.2737 249.8 75.3226V75.9719C249.8 77.0209 250.7 77.9699 251.7 77.87C252.7 77.7701 253.6 77.0209 253.6 75.9719V75.3226C253.6 74.3736 252.7 73.4246 251.7 73.4246Z" fill="white"/>
<path d="M312.15 138.308C311.95 138.108 311.7 137.858 311.5 137.659C310.8 136.959 309.5 136.909 308.8 137.659C308.1 138.408 308.05 139.657 308.8 140.356L309.45 141.005C310.15 141.704 311.45 141.754 312.15 141.005C312.85 140.256 312.9 139.107 312.15 138.308Z" fill="white"/>
<path d="M255.55 119.527H254.25C253.2 119.527 252.25 120.426 252.35 121.425C252.4 122.474 253.2 123.323 254.25 123.323H255.55C256.6 123.323 257.55 122.424 257.45 121.425C257.4 120.426 256.6 119.527 255.55 119.527Z" fill="white"/>
<path d="M304.95 115.681C302.45 115.681 302.45 119.527 304.95 119.527C307.45 119.527 307.45 115.681 304.95 115.681Z" fill="white"/>
<path d="M344.8 113.783C342.3 113.783 342.3 117.629 344.8 117.629C347.3 117.629 347.3 113.783 344.8 113.783Z" fill="white"/>
<path d="M254.25 143.902C253.2 143.952 252.35 144.751 252.35 145.8V146.45C252.35 147.498 253.25 148.448 254.25 148.348C255.3 148.298 256.15 147.498 256.15 146.45V145.8C256.15 144.851 255.25 143.902 254.25 143.902Z" fill="white"/>
<path d="M289.5 184.86C287 184.86 287 188.706 289.5 188.706C292 188.706 292 184.86 289.5 184.86Z" fill="white"/>
<path d="M269 229.065C266.5 229.065 266.5 232.911 269 232.911C271.5 232.911 271.5 229.065 269 229.065Z" fill="white"/>
<path d="M217.7 250.842C215.2 250.842 215.2 254.688 217.7 254.688C220.2 254.688 220.2 250.842 217.7 250.842Z" fill="white"/>
<path d="M173.45 258.534C170.95 258.534 170.95 262.38 173.45 262.38C175.95 262.38 175.95 258.534 173.45 258.534Z" fill="white"/>
<path d="M152.55 183.362C152.1 181.813 149.55 181.563 148.85 183.412C148.6 184.111 148.35 184.81 148.15 185.509C147.9 185.709 147.7 186.009 147.55 186.359C146.65 188.606 146.15 190.904 145.8 193.301C145.8 193.301 145.8 193.301 145.8 193.351C145.8 193.551 145.75 193.651 145.75 193.851C145.6 195.05 146.6 195.699 147.6 195.699C148.35 195.899 149.25 195.699 149.85 195.05C150.5 195 151.05 194.55 151.2 193.701C151.7 190.904 152.5 188.107 153.45 185.459C153.85 184.411 153.3 183.661 152.55 183.362Z" fill="#B4C7E7"/>
<path d="M253.3 207.886C252.2 207.637 251.3 208.186 250.95 209.235C250.95 209.235 250.8 209.485 250.8 209.535C250.75 209.735 250.6 209.834 250.55 210.034C250.35 210.334 250.15 210.734 249.95 211.083C249.8 211.333 249.75 211.583 249.7 211.832C249.5 212.582 249.85 213.481 250.6 213.93C251.5 214.38 252.7 214.18 253.25 213.231C253.45 212.781 253.7 212.382 253.9 211.932C253.9 211.932 253.9 211.882 253.95 211.882C254.2 211.283 254.45 210.783 254.7 210.134C254.95 209.335 254.25 208.136 253.3 207.886Z" fill="#B4C7E7"/>
<path d="M276 189.855C272.1 186.209 265.75 192.352 261.85 189.855C259.1 188.107 256.7 185.709 254.4 183.511C253.25 182.413 252.05 181.064 250.25 181.414C250.1 181.414 249.95 181.464 249.8 181.563C249.2 181.563 248.65 181.713 248 182.063C246.45 182.962 245.05 184.61 244 186.209C243.95 186.259 243.85 186.259 243.8 186.359C241.05 188.806 235.55 192.902 238.2 197.048C240.7 200.894 245.25 204.14 249.05 206.638C252.3 208.835 256.7 211.932 260.8 210.234C265.35 208.336 269.45 203.141 272.45 199.395C274.05 197.447 278.95 192.652 276 189.855Z" fill="#74A2D6"/>
<path d="M230.05 131.065C229.9 129.867 229.8 128.718 228.75 127.869C228.1 127.369 227.4 127.419 226.7 127.419C226.65 125.171 225.05 123.124 222.2 122.424C218.85 121.675 215.2 123.373 212 123.973C211.05 124.172 210.15 124.272 209.2 124.372C209.05 124.222 208.95 124.073 208.75 123.923C206.3 122.075 203.45 120.226 200.3 121.225C198.55 121.825 197.35 122.974 196.75 124.422C196.35 124.672 196 125.072 195.7 125.521C195.05 126.67 195.2 128.018 195.5 129.217C195.55 129.417 195.65 129.617 195.75 129.817C196.25 132.564 196.65 136.01 198.25 138.158C199.9 140.356 202.75 139.706 205.05 139.257C206.65 138.957 208.25 138.608 209.9 138.208C213.25 139.956 216.7 141.455 220.3 142.703C223.2 143.652 226.7 144.951 228.4 141.555C229.8 138.757 230.35 134.162 230.05 131.065Z" fill="#74A2D6"/>
<path d="M198.4 113.334C197.5 113.334 196.55 113.833 196.1 114.682C195.85 115.132 195.8 115.581 195.7 116.081C195.7 116.231 195.7 116.38 195.7 116.53C195.7 116.68 195.65 117.13 195.75 116.68C195.7 117.18 195.75 117.729 195.95 118.129C196.15 118.828 196.45 119.427 197.15 119.877C198.1 120.476 199.45 120.177 200.25 119.377C200.85 118.728 201.15 117.929 201.3 117.08C201.55 115.182 200.3 113.284 198.4 113.334Z" fill="#74A2D6"/>
<path d="M196.65 125.821C196.4 124.922 195.25 124.073 194.3 124.472C193.45 124.772 192.7 125.121 191.85 125.421C193.2 120.127 194.75 114.832 196.4 109.687C197.15 107.34 193.45 106.291 192.7 108.638C190.7 114.782 188.9 121.026 187.4 127.269C187.35 127.569 187.35 127.919 187.4 128.218C187.35 128.468 187.4 128.718 187.45 128.968C187.7 129.867 188.85 130.716 189.8 130.316C191.6 129.567 193.45 128.868 195.25 128.068C196.3 127.819 196.9 126.92 196.65 125.821Z" fill="#57455D"/>
<path d="M200.15 139.557C195.85 141.555 191.45 143.153 186.8 144.352C184.45 145.001 185.45 148.697 187.85 148.048C192.8 146.749 197.45 145.051 202.1 142.853C204.3 141.854 202.35 138.508 200.15 139.557Z" fill="#57455D"/>
<path d="M208.25 135.111C206.8 132.364 205.55 129.517 204.55 126.52C203.8 124.172 200.05 125.171 200.85 127.569C201.95 130.816 203.3 134.062 204.95 137.059C206.15 139.207 209.4 137.309 208.25 135.111Z" fill="#57455D"/>
<path d="M224.5 127.869C224.25 127.869 224 127.919 223.75 128.068C219.05 130.166 214.4 132.214 209.7 134.362C207.45 135.411 209.4 138.658 211.6 137.709C215.45 136.06 219.25 134.312 223.1 132.564C222.6 134.762 222.05 136.959 221.45 139.157C220.75 141.505 224.45 142.554 225.15 140.206C226.1 136.859 226.95 133.463 227.6 130.016C227.95 128.018 225.65 126.97 224.5 127.869Z" fill="#57455D"/>
<path d="M227.85 107.889C227.65 105.442 223.8 105.392 224 107.889C224.4 113.084 224.5 118.278 224.3 123.473C224.25 125.971 228.1 125.971 228.15 123.473C228.35 118.328 228.2 113.134 227.85 107.889Z" fill="#57455D"/>
<path d="M222.4 160.885C219 161.634 215.75 162.933 212.65 164.581C210.45 165.73 212.4 169.076 214.55 167.927C216.2 167.028 217.95 166.279 219.75 165.68C218.65 168.477 217.4 171.274 215.95 173.921C214.8 176.119 218.15 178.017 219.3 175.819C221.4 171.774 223.2 167.578 224.7 163.282C225.25 161.784 223.7 160.535 222.4 160.885Z" fill="#57455D"/>
<path d="M242.2 173.472L232.5 186.558C231.05 188.556 234.35 190.454 235.85 188.456L245.55 175.37C247 173.472 243.65 171.574 242.2 173.472Z" fill="#57455D"/>
<path d="M226.2 191.653C221.85 189.106 217.55 186.508 213.2 184.011C211.1 182.712 209.1 186.059 211.3 187.358C215.65 189.905 219.95 192.502 224.3 195C226.4 196.298 228.4 192.952 226.2 191.653Z" fill="#57455D"/>
<path d="M251.95 183.412C247.9 187.308 243.8 191.204 239.75 195.15C237.95 196.898 240.7 199.545 242.45 197.847L254.65 186.109C256.4 184.361 253.65 181.663 251.95 183.412Z" fill="#57455D"/>
<path d="M188.65 73.4246C188.7 72.7752 188.5 72.1259 187.7 71.7763C181.15 68.7793 173.45 72.3757 172 79.5183C171.05 84.2634 172.4 89.3582 168.8 93.3042C166.1 96.2012 162.3 97.8994 159.3 100.497C152.7 106.091 150.9 115.082 150.75 123.323C150.7 127.419 150.9 131.715 153.3 135.161C154.5 136.909 156.2 138.258 157.2 140.006C158.75 142.653 157.85 145.501 157.25 148.248C155.05 159.786 164.1 166.329 173.2 171.124C174.05 171.574 174.85 171.324 175.4 170.874C177.05 170.725 177.6 167.778 175.6 167.028C171.1 165.23 167.45 161.784 165.3 157.488C163 152.943 163.45 148.797 163.5 143.852C163.55 138.658 160.55 135.261 158.7 130.666C156.8 125.871 155.95 120.526 157.1 115.481C158.25 110.437 161 106.241 165.25 103.244C168.45 100.996 172.1 99.1482 174.4 95.9015C176.7 92.7547 176.95 89.0585 177.3 85.3124C177.75 80.4673 179.95 74.8731 185.95 77.1208C187.35 77.6203 188.25 76.4714 188.25 75.3226C188.4 75.0729 188.45 74.8231 188.45 74.4735V73.8242C188.65 73.6743 188.65 73.5744 188.65 73.4246Z" fill="#57455D"/>
<path d="M169.2 197.098C162.65 195.199 156 193.202 150.55 188.906C148.65 187.358 145.85 190.055 147.85 191.603C153.9 196.348 160.95 198.646 168.2 200.844C170.55 201.543 171.6 197.847 169.2 197.098Z" fill="#57455D"/>
<path d="M192.05 184.361C189.4 184.061 186.9 183.162 184.7 181.813C182.6 180.515 180.6 183.861 182.8 185.16C185.7 186.908 188.85 187.857 192.15 188.307C194.5 188.456 194.5 184.61 192.05 184.361Z" fill="#57455D"/>
<path d="M218.1 230.813C211.1 232.211 204.1 231.063 197.2 229.864C194.75 229.414 193.75 233.111 196.15 233.56C203.8 234.909 211.4 236.058 219.1 234.509C221.55 234.01 220.5 230.313 218.1 230.813Z" fill="#57455D"/>
<path d="M174.95 227.017C165.35 226.567 156.25 223.47 148.35 218.026C146.3 216.627 144.35 219.924 146.45 221.373C155 227.217 164.8 230.413 175.05 230.863C177.45 230.963 177.45 227.117 174.95 227.017Z" fill="#57455D"/>
<path d="M237.75 205.239H235.5C234.45 205.239 233.5 206.138 233.6 207.137C233.65 208.186 234.45 209.035 235.5 209.035H237.75C238.8 209.035 239.75 208.136 239.65 207.137C239.6 206.138 238.85 205.239 237.75 205.239Z" fill="#57455D"/>
<path d="M77.3497 154.192C73.9497 147.698 66.9497 144.252 60.0497 144.452C48.8997 143.353 37.9497 149.496 33.3997 159.886C28.8997 170.175 31.1497 183.412 41.5997 189.006C51.5497 194.3 64.9497 193.701 73.5497 186.059C82.4497 178.217 82.6497 164.331 77.3497 154.192Z" fill="#74A2D6"/>
<path d="M366 133.013C365.85 132.514 365.4 131.964 364.65 131.865C355.4 130.066 345.2 132.364 339.15 139.956C333.5 146.949 332.15 156.989 337.3 164.631C342.45 172.373 352.1 175.819 360.95 173.072C369.75 170.375 375.85 162.633 376.8 153.542C377.6 145.55 373.85 135.611 366 133.013Z" fill="#F7D06F"/>
<path d="M215.3 115.381C212.4 115.232 209.6 115.182 206.7 115.082C204.2 115.032 204.2 118.878 206.7 118.928C209.6 119.078 212.4 119.128 215.3 119.228C217.75 119.277 217.75 115.431 215.3 115.381Z" fill="#57455D"/>
<path d="M318.55 71.4266C316.5 65.3329 310.85 59.8885 304.5 59.2392C296.7 57.8406 288.35 65.1331 285 71.7263C281.2 79.1687 284.85 87.66 291.55 92.0554C305.35 101.046 323.9 87.2604 318.55 71.4266Z" fill="#EF86B0"/>
<path d="M348.7 162.133C345.05 161.884 341.45 161.634 337.8 161.284C335.3 161.085 335.35 164.931 337.8 165.13C341.45 165.38 345.05 165.63 348.7 165.98C351.15 166.179 351.15 162.333 348.7 162.133Z" fill="#57455D"/>
<path d="M374.6 148.448C370.7 149.496 366.7 149.746 362.65 149.097C360.2 148.697 359.2 152.443 361.6 152.793C366.3 153.542 370.9 153.392 375.5 152.144C378 151.494 376.95 147.798 374.6 148.448Z" fill="#57455D"/>
<path d="M347.4 142.154C344.9 142.354 342.55 142.004 340.15 141.055C337.85 140.106 336.9 143.802 339.1 144.751C341.75 145.85 344.55 146.2 347.35 145.95C349.85 145.8 349.9 141.954 347.4 142.154Z" fill="#57455D"/>
<path d="M300.6 83.1646C296 83.1646 291.45 82.5652 287 81.4164C284.65 80.817 283.6 84.5631 285.95 85.1126C290.75 86.3113 295.65 86.9107 300.55 86.9607C303.1 87.0606 303.1 83.2145 300.6 83.1646Z" fill="#57455D"/>
<path d="M317.25 73.1748C312.55 72.9251 307.8 72.6753 303.15 72.4256C300.65 72.2757 300.7 76.1218 303.15 76.2716C307.85 76.5214 312.6 76.7711 317.25 77.0209C319.7 77.1208 319.7 73.2747 317.25 73.1748Z" fill="#57455D"/>
<path d="M60.1498 163.932C51.6998 164.531 43.2998 163.033 35.5498 159.536C33.2998 158.487 31.3998 161.834 33.6498 162.883C42.0498 166.729 50.9498 168.377 60.1998 167.828C62.5998 167.628 62.6498 163.832 60.1498 163.932Z" fill="#57455D"/>
<path d="M76.9499 176.169C68.2499 177.767 59.3999 178.167 50.5499 177.368C48.0999 177.168 48.0999 181.014 50.5499 181.214C59.6999 182.063 68.8999 181.514 77.9999 179.865C80.3999 179.416 79.3999 175.719 76.9499 176.169Z" fill="#57455D"/>
<path d="M69.2499 154.991C64.0999 155.89 59.1999 155.39 54.2999 153.642C51.9999 152.793 50.9499 156.539 53.2499 157.338C58.7499 159.336 64.4499 159.686 70.2499 158.687C72.6999 158.237 71.6999 154.541 69.2499 154.991Z" fill="#57455D"/>
<path d="M282.2 101.396C281.05 101.596 279.9 101.646 278.65 101.596C278.45 99.9973 278.2 98.3989 278 96.8006C277.7 94.3531 273.95 95.402 274.3 97.8495C274.45 98.9983 274.6 100.147 274.75 101.296C274.35 101.246 274 101.146 273.6 101.046C271.15 100.547 270.15 104.193 272.55 104.742C273.45 104.942 274.4 105.142 275.3 105.192C275.45 106.141 275.55 107.09 275.7 107.989C276 110.437 279.75 109.388 279.4 106.94C279.35 106.441 279.25 105.841 279.2 105.342C280.55 105.342 281.85 105.192 283.2 105.042C285.65 104.742 284.55 101.096 282.2 101.396Z" fill="#F7D06F"/>
<path d="M316 225.418C314.4 225.568 312.75 225.618 311.15 225.718C310.85 224.569 310.55 223.42 310.25 222.322C309.6 219.974 305.9 220.973 306.55 223.371C306.8 224.27 307 225.169 307.25 226.068L304.5 226.268C302.05 226.467 302 230.313 304.5 230.114C305.7 230.064 307 229.914 308.2 229.864C308.5 231.163 308.85 232.361 309.15 233.66C309.8 236.008 313.5 235.009 312.85 232.611L312.1 229.614C313.4 229.564 314.65 229.414 316 229.364C318.45 229.065 318.5 225.219 316 225.418Z" fill="#F7D06F"/>
<path d="M65.8998 96.6008C64.2998 96.8006 62.6498 97.0004 61.0498 97.2501C60.7998 96.6008 60.4498 96.0513 60.0998 95.4519C58.6998 93.4041 55.3498 95.3021 56.7498 97.35C56.7998 97.4998 56.8998 97.5997 56.9998 97.7496C56.5498 97.7995 56.0998 97.8994 55.6998 97.9494C53.2498 98.2491 53.2498 102.095 55.6998 101.795C56.4498 101.646 57.2498 101.596 57.9998 101.496C57.9998 102.145 57.8498 102.794 57.5998 103.494C56.7498 105.841 60.4998 106.84 61.2998 104.543C61.6998 103.394 61.8998 102.245 61.7998 100.996C63.1498 100.796 64.4998 100.697 65.8498 100.497C68.3498 100.147 68.3498 96.3011 65.8998 96.6008Z" fill="#F7D06F"/>
<path d="M117.85 51.8967C115.75 51.6969 113.6 51.6969 111.5 51.7468L111.3 49.8987C111.1 47.4512 107.25 47.4013 107.45 49.8987C107.5 50.598 107.6 51.2973 107.65 51.9966C106.8 52.0465 105.9 52.1964 105.1 52.2963C102.65 52.6959 103.7 56.3421 106.15 55.9925C106.8 55.9425 107.35 55.7927 108 55.7427C108.05 56.7917 108.2 57.7407 108.25 58.7397C108.45 61.1871 112.3 61.2371 112.1 58.7397C112.05 57.6408 111.9 56.5419 111.85 55.493C113.85 55.443 115.85 55.493 117.9 55.6428C120.3 55.9425 120.3 52.0965 117.85 51.8967Z" fill="#F7D06F"/>
<path d="M341 60.1882H339.25L338.85 57.7407C338.45 55.2932 334.75 56.3421 335.15 58.7896L335.35 60.1882H332.65C330.15 60.1882 330.15 64.0342 332.65 64.0342H335.9C336.05 65.0831 336.2 66.0821 336.35 67.131C336.75 69.5785 340.45 68.5296 340.05 66.0821C339.9 65.3828 339.85 64.6835 339.75 64.0342H340.9C343.5 64.0342 343.5 60.1882 341 60.1882Z" fill="#F7D06F"/>
<path d="M354.45 85.8119C351.95 85.8119 351.95 89.6579 354.45 89.6579C356.95 89.6579 356.95 85.8119 354.45 85.8119Z" fill="white"/>
<path d="M332 98.5987C329.5 98.5987 329.5 102.445 332 102.445C334.5 102.445 334.5 98.5987 332 98.5987Z" fill="white"/>
<path d="M351.95 190.155C351.2 189.455 349.95 189.405 349.25 190.155C349.05 190.354 348.8 190.604 348.6 190.804C347.9 191.503 347.85 192.802 348.6 193.501C349.35 194.2 350.6 194.25 351.3 193.501L351.95 192.852C352.65 192.103 352.75 190.854 351.95 190.155Z" fill="white"/>
<path d="M336.5 217.127C334 217.127 334 220.973 336.5 220.973C339 220.973 339 217.127 336.5 217.127Z" fill="white"/>
<path d="M308.95 167.128C306.45 167.128 306.45 170.974 308.95 170.974C311.45 170.974 311.45 167.128 308.95 167.128Z" fill="white"/>
<path d="M287.15 248.495C284.65 248.495 284.65 252.341 287.15 252.341C289.65 252.341 289.65 248.495 287.15 248.495Z" fill="white"/>
<path d="M146.4 269.873C145.95 269.673 145.55 269.423 145.1 269.223C144.2 268.774 143 268.974 142.45 269.923C142 270.822 142.2 272.12 143.15 272.57C143.6 272.77 144 273.02 144.45 273.219C145.35 273.669 146.55 273.469 147.1 272.52C147.55 271.671 147.35 270.372 146.4 269.873Z" fill="white"/>
<path d="M219.15 266.426C216.65 266.426 216.65 270.272 219.15 270.272C221.65 270.272 221.65 266.426 219.15 266.426Z" fill="white"/>
<path d="M99.9 256.836C98.85 256.886 98 257.685 98 258.734V259.384C98 260.432 98.9 261.381 99.9 261.282C100.9 261.182 101.8 260.432 101.8 259.384V258.734C101.85 257.735 100.95 256.736 99.9 256.836Z" fill="white"/>
<path d="M96.6997 227.366C94.1997 227.366 94.1997 231.212 96.6997 231.212C99.1997 231.212 99.1997 227.366 96.6997 227.366Z" fill="white"/>
<path d="M36.4497 210.034C33.9497 210.034 33.9497 213.88 36.4497 213.88C38.9497 213.88 38.9497 210.034 36.4497 210.034Z" fill="white"/>
<path d="M82.6498 133.113C82.4498 132.913 82.1998 132.664 81.9998 132.464C81.2998 131.765 79.9998 131.715 79.2998 132.464C78.5998 133.213 78.5498 134.462 79.2998 135.161L79.9498 135.81C80.6498 136.51 81.9498 136.56 82.6498 135.81C83.3498 135.061 83.4498 133.912 82.6498 133.113Z" fill="white"/>
<path d="M35.1996 115.182C34.4496 114.482 33.1996 114.432 32.4996 115.182C32.2996 115.381 32.0496 115.631 31.8496 115.831C31.1496 116.53 31.0996 117.829 31.8496 118.528C32.5996 119.228 33.8496 119.277 34.5496 118.528L35.1996 117.879C35.8996 117.18 35.9996 115.881 35.1996 115.182Z" fill="white"/>
<path d="M85.1495 71.077H84.4995C83.4495 71.077 82.4995 71.9761 82.5995 72.975C82.6495 74.024 83.4495 74.8731 84.4995 74.8731H85.1495C86.1995 74.8731 87.1495 73.974 87.0495 72.975C86.9995 71.9761 86.2495 71.077 85.1495 71.077Z" fill="white"/>
<path d="M92.1997 90.9066C89.6997 90.9066 89.6997 94.7527 92.1997 94.7527C94.6997 94.7527 94.6997 90.9066 92.1997 90.9066Z" fill="white"/>
<path d="M149.3 37.1119C146.8 37.1119 146.8 40.9579 149.3 40.9579C151.8 40.9579 151.8 37.1119 149.3 37.1119Z" fill="white"/>
<path d="M229.45 14.0356C226.95 14.0356 226.95 17.8816 229.45 17.8816C231.95 17.8816 231.95 14.0356 229.45 14.0356Z" fill="white"/>
<path d="M282 28.7704C279.5 28.7704 279.5 32.6165 282 32.6165C284.5 32.6165 284.5 28.7704 282 28.7704Z" fill="white"/>
<path d="M308.95 38.4106C306.45 38.4106 306.45 42.2566 308.95 42.2566C311.45 42.2566 311.45 38.4106 308.95 38.4106Z" fill="white"/>
<path d="M18.4497 151.744C15.9497 151.744 15.9497 155.59 18.4497 155.59C20.9497 155.59 20.9497 151.744 18.4497 151.744Z" fill="white"/>
</g>
<defs>
<clipPath id="clip0">
<rect width="400" height="292" fill="white"/>
</clipPath>
</defs>
</svg>
