<svg width="531" height="376" viewBox="0 0 531 376" fill="none" xmlns="http://www.w3.org/2000/svg">
<g clip-path="url(#clip0)">
<path d="M526.42 182.491C518.455 142.262 500.069 102.1 466.948 70.5671C437.146 42.1547 396.657 21.1772 352.451 10.0247C257.535 -14.1391 146.489 6.43996 73.8088 60.5431C39.2275 86.3665 14.4032 120.023 4.57971 156.933C-5.57567 195.037 1.1282 234.868 24.9568 269.056C30.7315 277.287 37.5017 284.988 44.9357 292.357C45.7322 293.153 46.7278 293.352 47.5907 293.22C47.6571 293.684 47.989 294.282 48.7855 294.68C68.1006 307.094 91.6637 313.201 115.492 317.782C142.241 322.893 169.256 326.81 196.47 329.731C251.694 335.506 307.714 336.768 363.27 333.249C390.418 331.59 417.499 328.735 444.38 324.951C458.186 322.96 471.926 320.636 485.533 318.114C495.887 316.122 509.428 314.994 515.8 307.16C518.521 303.708 519.782 299.725 520.977 295.809C522.637 290.299 524.097 284.722 525.358 279.279C527.814 268.525 529.473 257.505 530.469 246.552C531.929 225.242 530.668 203.667 526.42 182.491Z" fill="#141E28"/>
<path d="M412.852 200.347C412.454 192.713 411.99 185.145 411.259 177.511C410.596 170.275 409.666 163.106 408.737 155.936C407.874 149.895 407.675 142.593 404.821 136.951C399.047 125.267 385.838 130.312 377.607 135.888C376.346 136.685 376.147 138.013 376.413 139.141C375.749 139.739 375.55 140.734 375.948 141.797C387.298 168.948 389.754 198.887 382.917 227.499C382.519 229.291 383.78 231.349 385.772 231.216C395.861 230.951 407.609 229.225 411.591 218.404C413.649 212.695 413.118 206.322 412.852 200.347Z" fill="#EF86B0"/>
<path d="M435.752 127.79C431.039 117.699 422.211 109.202 412.521 103.825C400.64 97.2528 387.829 98.846 375.019 100.97C372.696 101.369 372.497 103.825 373.559 105.285C373.758 106.547 374.621 107.609 376.28 107.542C394.599 106.347 414.645 106.547 425.663 123.873C435.287 138.942 430.774 164.5 409.534 165.496C407.543 165.562 406.281 167.288 406.68 169.213C406.879 170.408 407.144 171.537 407.343 172.864C407.609 174.458 409.467 175.321 410.994 174.922C421.747 172.267 431.438 168.284 436.349 157.596C440.863 147.97 440.133 137.15 435.752 127.79Z" fill="#57455D"/>
<path d="M518.787 308.686C511.95 297.6 499.007 288.041 485.666 280.274C472.656 272.64 457.855 266.466 441.925 262.085C429.513 258.566 416.636 256.376 403.56 254.849C369.576 247.215 333.468 243.962 297.625 245.422C255.942 244.227 213.993 245.621 172.641 249.538C151.667 251.53 130.825 254.251 110.182 257.504C92.1949 260.425 73.6762 263.877 58.2109 271.113C43.4092 278.083 32.1919 287.842 22.302 297.866C12.4785 307.757 4.38074 319.64 10.5536 331.655C23.0985 355.952 69.6937 360.864 102.018 365.445C183.66 377.195 268.221 378.788 351.124 372.415C371.368 370.822 391.48 368.897 411.525 366.441C431.57 363.984 452.146 361.661 471.727 357.612C487.856 354.292 503.454 348.982 513.61 339.621C523.566 330.394 525.358 319.241 518.787 308.686Z" fill="#B4C7E7"/>
<path d="M457.988 184.747C456.992 184.681 456.129 184.747 455.266 184.814C452.744 184.349 450.885 181.959 451.35 179.104C451.616 177.312 450.487 176.051 449.093 175.653C447.633 174.458 445.177 174.59 444.779 176.914C444.115 180.83 442.257 183.951 438.805 186.008C436.15 187.668 437.809 192.182 440.929 191.186C442.92 190.589 445.443 191.585 445.642 193.908C445.907 196.962 450.222 197.891 451.217 194.705C451.881 192.249 453.673 190.788 455.93 190.323C456.926 190.323 457.921 190.323 458.85 190.124C462.103 189.66 460.908 184.946 457.988 184.747Z" fill="#F7D06F"/>
<path d="M177.619 219.267C177.155 219.201 176.624 219.201 176.159 219.201C172.907 218.736 171.247 215.749 172.442 212.363C173.106 210.305 171.579 209.044 169.92 208.911C168.061 207.849 165.008 209.376 165.738 212.164C166.402 215.284 164.875 218.205 162.287 219.732C161.424 219.931 160.495 220.196 159.632 220.794C156.91 222.453 158.636 226.702 161.756 225.972C162.42 225.773 163.15 225.573 163.747 225.308C165.539 225.374 166.867 227.83 167.73 229.225C168.924 231.083 172.509 231.083 172.907 228.561C173.172 226.436 174.5 225.241 176.358 225.042C176.823 225.042 177.354 225.042 177.819 225.042C181.336 224.644 181.137 219.732 177.619 219.267Z" fill="#F7D06F"/>
<path d="M125.25 95.0621C121.333 94.6638 117.816 92.7387 115.36 89.5522C113.501 87.096 109.452 88.3573 110.182 91.6765C110.249 91.8757 110.249 92.1412 110.382 92.3404C110.182 93.5353 109.585 94.4647 108.789 95.1949C107.328 95.4604 105.934 96.1907 104.474 97.3192C102.151 99.3107 104.74 102.497 107.196 102.032C108.589 101.767 109.851 101.236 111.045 100.572C113.501 101.037 115.758 104.688 116.82 106.347C118.413 108.87 121.798 107.609 122.13 104.887C122.329 102.564 123.922 100.97 126.112 100.373C129.232 99.7754 128.236 95.3277 125.25 95.0621ZM117.417 98.4477C117.816 98.6469 118.214 98.846 118.678 99.0452C118.612 99.1116 118.479 99.2443 118.413 99.4435C118.081 99.0452 117.816 98.7796 117.417 98.4477Z" fill="#F7D06F"/>
<path d="M303.135 60.0777C302.073 60.2768 298.156 59.4802 300.015 57.6214C302.006 55.6299 300.081 52.9082 298.024 52.8418C296.431 51.5805 293.444 52.2443 293.311 54.9661C293.245 58.0197 291.718 60.3432 289.461 61.9364C288.864 62.1356 288.399 62.4011 287.868 62.7994C284.815 64.9237 287.404 69.1723 290.722 67.7118C291.187 67.5127 291.585 67.3135 292.116 67.048C294.373 66.2514 296.497 67.6455 296.895 70.3672C297.493 74.0183 302.869 72.4251 302.405 68.9068C302.205 67.3135 303.4 66.0522 304.728 65.6539C308.179 64.5254 306.586 59.613 303.135 60.0777Z" fill="#F7D06F"/>
<path d="M273.797 176.117C270.544 176.515 267.889 174.325 267.558 171.404C267.624 170.939 267.757 170.408 267.757 169.811C267.823 168.151 266.894 167.288 265.633 167.155C264.04 166.89 262.115 167.753 261.916 169.811C261.849 170.275 261.849 170.873 261.916 171.404C261.318 173.927 259.792 176.117 257.535 177.578C254.482 179.569 257.269 184.216 260.389 182.49C263.044 181.03 265.301 182.689 265.168 185.544C264.969 189.195 270.544 189.195 270.876 185.544C271.075 183.287 272.668 182.025 274.792 181.627C277.713 181.162 277.049 175.785 273.797 176.117Z" fill="#F7D06F"/>
<path d="M278.31 96.5226C274.66 96.5226 274.66 102.232 278.31 102.232C281.895 102.232 281.895 96.5226 278.31 96.5226Z" fill="white"/>
<path d="M442.788 208.977C439.137 208.977 439.137 214.686 442.788 214.686C446.438 214.62 446.438 208.977 442.788 208.977Z" fill="white"/>
<path d="M240.277 22.9689H239.68C238.22 22.9689 236.76 24.2302 236.826 25.8234C236.892 27.4166 238.087 28.6779 239.68 28.6779H240.277C241.738 28.6779 243.198 27.4166 243.132 25.8234C243.065 24.2302 241.87 22.9689 240.277 22.9689Z" fill="white"/>
<path d="M283.886 129.117C282.293 129.184 281.032 130.379 281.032 131.972V132.569C281.032 134.03 282.293 135.49 283.886 135.424C285.479 135.357 286.74 134.162 286.74 132.569V131.972C286.74 130.379 285.413 129.051 283.886 129.117Z" fill="white"/>
<path d="M340.968 52.1779C340.769 51.9788 340.57 51.7796 340.371 51.5805C339.309 50.5183 337.45 50.5183 336.388 51.5805C335.326 52.7754 335.326 54.435 336.388 55.5635L336.986 56.161C338.048 57.2231 339.906 57.2231 340.968 56.161C341.964 55.0988 342.03 53.3065 340.968 52.1779Z" fill="white"/>
<path d="M327.76 113.251C324.109 113.251 324.109 118.96 327.76 118.96C331.477 118.828 331.477 113.251 327.76 113.251Z" fill="white"/>
<path d="M269.018 45.0748C265.367 45.0748 265.367 50.7839 269.018 50.7839C272.735 50.7839 272.735 45.0748 269.018 45.0748Z" fill="white"/>
<path d="M183.991 33.524C183.792 33.3248 183.593 33.1257 183.394 32.9265C182.332 31.8644 180.474 31.8644 179.412 32.9265C178.35 34.1214 178.35 35.781 179.412 36.9096C179.611 37.1087 179.81 37.3079 180.009 37.507C181.071 38.5692 182.929 38.5692 183.991 37.507C185.053 36.5113 185.186 34.7189 183.991 33.524Z" fill="white"/>
<path d="M163.15 86.4322C159.499 86.4322 159.499 92.1412 163.15 92.1412C166.734 92.1412 166.734 86.4322 163.15 86.4322Z" fill="white"/>
<path d="M86.9512 140.668C85.7565 139.606 84.0971 139.606 82.9687 140.668C82.7696 140.867 82.5705 141.066 82.3714 141.266C81.3094 142.328 81.3094 144.186 82.3714 145.249C83.5661 146.311 85.2255 146.311 86.3539 145.249L86.9512 144.651C88.0132 143.655 88.146 141.664 86.9512 140.668Z" fill="white"/>
<path d="M163.15 131.706C161.557 131.773 160.296 132.967 160.296 134.561V135.158C160.296 136.619 161.557 138.079 163.15 138.013C164.743 137.946 166.004 136.751 166.004 135.158V134.561C166.004 133.034 164.676 131.573 163.15 131.706Z" fill="white"/>
<path d="M115.824 231.017C112.174 231.017 112.174 236.726 115.824 236.726C119.475 236.66 119.475 231.017 115.824 231.017Z" fill="white"/>
<path d="M84.6945 192.78C81.0439 192.78 81.0439 198.489 84.6945 198.489C88.3451 198.489 88.3451 192.78 84.6945 192.78Z" fill="white"/>
<path d="M274.992 280.34C270.81 280.54 266.496 280.606 262.248 280.805C258.531 280.871 258.398 286.78 262.248 286.713C266.429 286.514 270.744 286.448 274.992 286.249C278.775 286.049 278.775 280.141 274.992 280.34Z" fill="#57455D"/>
<path d="M484.936 292.688C484.67 292.024 484.073 291.493 483.077 291.294C478.497 290.497 470.731 289.634 467.479 294.148C464.359 298.53 468.143 303.641 472.789 304.637C477.303 305.633 483.741 304.172 486.794 300.521C489.449 297.468 487.856 293.949 484.936 292.688ZM478.232 298.662C476.838 298.928 474.78 299.326 473.453 298.729C470.997 297.667 474.05 296.87 475.245 296.737C476.904 296.538 478.564 296.671 480.223 296.804C480.422 297.069 480.688 297.401 481.086 297.6C481.02 297.6 481.02 297.667 480.887 297.667C480.024 298.065 479.228 298.463 478.232 298.662Z" fill="#57455D"/>
<path d="M381.324 327.672H375.417C371.567 327.672 371.567 333.581 375.417 333.581H381.324C385.041 333.514 385.041 327.672 381.324 327.672Z" fill="#57455D"/>
<path d="M425.596 336.501C423.273 335.638 420.486 335.638 418.03 336.501C416.57 336.966 415.574 338.559 415.972 340.153C416.37 341.613 418.03 342.675 419.623 342.21C421.216 341.746 422.477 341.746 424.003 342.21C425.464 342.675 427.256 341.613 427.654 340.153C428.119 338.427 427.057 336.966 425.596 336.501Z" fill="#57455D"/>
<path d="M255.212 336.966C254.747 336.369 254.017 335.97 253.154 335.97C247.778 335.705 238.95 335.174 236.029 340.75C233.175 346.061 238.684 350.575 243.463 351.504C248.375 352.5 256.008 351.571 259.327 347.388C262.646 343.14 259.327 338.692 255.212 336.966ZM254.083 344.202C253.685 344.999 251.628 345.264 250.964 345.596C248.707 346.26 245.986 346.459 243.729 345.662C240.078 344.468 241.671 342.609 244.725 342.011C246.782 341.613 248.906 341.613 250.964 341.746C251.229 341.812 251.428 342.011 251.827 342.144C252.623 342.144 253.287 342.41 253.818 343.007C254.88 343.339 255.013 343.737 254.083 344.202Z" fill="#57455D"/>
<path d="M189.169 330.992C188.704 329.332 187.111 328.668 185.518 328.934C182.398 329.398 179.345 329.996 176.226 330.527C174.633 330.792 173.77 332.651 174.168 334.178C174.633 335.838 176.226 336.501 177.819 336.236C180.938 335.771 183.991 335.174 187.111 334.643C188.704 334.311 189.567 332.386 189.169 330.992Z" fill="#57455D"/>
<path d="M206.493 257.438C203.771 257.239 200.917 257.172 198.196 256.973C194.346 256.774 194.479 262.682 198.196 262.881C200.917 263.08 203.771 263.147 206.493 263.346C210.21 263.479 210.21 257.637 206.493 257.438Z" fill="#57455D"/>
<path d="M103.877 284.987C103.412 283.328 101.819 282.73 100.226 282.929C99.2306 282.996 98.1022 282.929 96.9075 282.531C95.4472 282.066 93.6551 283.129 93.2569 284.589C92.8586 286.182 93.7215 287.709 95.3145 288.24C97.4385 288.904 99.6289 288.904 101.753 288.638C103.412 288.373 104.275 286.315 103.877 284.987Z" fill="#57455D"/>
<path d="M81.8404 324.685C78.3225 324.419 74.871 324.088 71.3531 323.822C67.6361 323.556 67.6361 329.398 71.3531 329.73C74.871 329.996 78.3225 330.328 81.8404 330.593C85.5574 330.859 85.5574 325.017 81.8404 324.685Z" fill="#57455D"/>
<path d="M467.678 325.88C464.758 325.814 461.904 326.079 459.049 326.743C455.332 327.606 456.925 333.182 460.642 332.452C462.966 331.987 465.222 331.788 467.678 331.788C471.395 331.855 471.395 326.013 467.678 325.88Z" fill="#57455D"/>
<path d="M326.698 341.347C324.043 341.082 321.52 340.75 318.865 340.484C317.272 340.285 315.945 341.945 315.945 343.405C315.945 345.198 317.339 346.127 318.865 346.326C321.52 346.592 324.043 346.924 326.698 347.189C328.291 347.388 329.618 345.729 329.618 344.268C329.618 342.542 328.357 341.547 326.698 341.347Z" fill="#57455D"/>
<path d="M135.604 329.597H127.772C123.922 329.597 123.922 335.506 127.772 335.506H135.604C139.321 335.506 139.321 329.597 135.604 329.597Z" fill="#57455D"/>
<path d="M65.1802 297.866C62.3261 298.53 59.472 299.127 56.6843 299.857C52.9673 300.654 54.5603 306.297 58.2773 305.566C61.1314 304.903 63.9855 304.305 66.7732 303.575C70.4239 302.778 68.8309 297.069 65.1802 297.866Z" fill="#57455D"/>
<path d="M303.002 28.678C301.409 28.7443 300.081 29.9393 300.081 31.5989V32.3955C300.081 33.9887 301.475 35.4491 303.002 35.3164C304.595 35.25 305.922 34.0551 305.922 32.3955V31.5989C305.922 30.0056 304.529 28.5452 303.002 28.678Z" fill="white"/>
<path d="M491.972 222.653H489.317C489.051 221.59 488.719 220.395 488.255 219.333C487.657 217.873 486.263 216.877 484.604 217.275C483.21 217.674 481.949 219.4 482.546 220.927C482.745 221.524 482.945 222.121 483.144 222.719H480.024C476.174 222.719 476.174 228.627 480.024 228.627H484.007C484.007 229.225 484.007 229.888 483.94 230.486C483.741 232.079 484.338 233.606 485.998 234.137C487.392 234.535 489.449 233.672 489.648 232.079C489.848 230.884 489.914 229.756 489.914 228.627H491.972C495.755 228.561 495.755 222.653 491.972 222.653Z" fill="#F7D06F"/>
<path d="M443.319 83.113C442.057 83.1794 440.796 83.1794 439.469 83.1794C439.27 81.9845 439.203 80.9223 439.004 79.7274C438.805 78.1342 436.747 77.2712 435.354 77.6695C433.694 78.1342 433.097 79.7274 433.296 81.3206L433.495 82.5819C433.03 82.5155 432.632 82.5155 432.101 82.3828C428.384 81.5861 426.791 87.2952 430.508 88.0918C431.769 88.3573 433.03 88.5565 434.225 88.7556L434.889 93.2698C435.088 94.863 437.146 95.726 438.54 95.3277C440.199 94.863 440.796 93.2698 440.597 91.6765C440.531 90.8136 440.398 90.0169 440.199 89.1539C441.195 89.1539 442.19 89.1539 443.119 89.0876C447.036 88.6893 447.102 82.7811 443.319 83.113Z" fill="#F7D06F"/>
<path d="M56.9497 167.886C54.693 168.151 52.4362 168.549 50.1795 169.08C50.1131 168.085 49.9804 167.023 49.914 166.027C49.5157 162.309 43.6747 162.309 44.0066 166.027C44.2057 167.62 44.2721 169.147 44.4712 170.74C44.073 170.806 43.8075 170.939 43.4092 171.138C39.8914 172.4 41.418 178.109 45.0022 176.847C45.0022 176.847 45.0022 176.847 45.0686 176.847C45.135 178.308 45.3341 179.768 45.4669 181.229C45.8651 184.946 51.7061 184.946 51.3742 181.229C51.1751 179.171 50.976 177.113 50.7769 175.055C52.8345 174.59 54.8921 174.192 56.9497 173.86C60.7331 173.395 60.7331 167.554 56.9497 167.886Z" fill="#F7D06F"/>
<path d="M74.4064 233.739C73.2116 233.739 72.0832 233.739 70.9549 233.739C70.6894 232.544 70.4902 231.482 70.1584 230.287C69.2955 226.569 63.5872 228.162 64.4501 231.88C64.6492 232.677 64.8484 233.473 65.0475 234.336C64.1846 234.403 63.3881 234.602 62.5252 234.801C58.8082 235.597 60.4012 241.24 64.1182 240.51C64.9147 240.311 65.7112 240.244 66.375 240.112C66.5741 241.107 66.8396 242.103 67.0387 243.032C67.9016 246.75 73.6099 245.157 72.747 241.439C72.6806 240.842 72.4815 240.244 72.3487 239.58C73.0125 239.58 73.7426 239.58 74.4064 239.58C78.2561 239.78 78.2561 233.938 74.4064 233.739Z" fill="#F7D06F"/>
<path d="M225.609 47.863C221.759 47.863 221.759 53.7712 225.609 53.7712C229.458 53.7048 229.458 47.863 225.609 47.863Z" fill="white"/>
<path d="M146.689 52.709C142.839 52.709 142.839 58.6172 146.689 58.6172C150.472 58.6172 150.472 52.709 146.689 52.709Z" fill="white"/>
<path d="M68.8309 107.476C64.9811 107.476 64.9811 113.384 68.8309 113.384C72.6806 113.384 72.6806 107.476 68.8309 107.476Z" fill="white"/>
<path d="M28.4085 215.483C24.5587 215.483 24.5587 221.391 28.4085 221.391C32.1919 221.391 32.1919 215.483 28.4085 215.483Z" fill="white"/>
<path d="M471.395 121.018C467.546 121.018 467.546 126.927 471.395 126.927C475.112 126.86 475.112 121.018 471.395 121.018Z" fill="white"/>
<path d="M484.007 171.802C480.157 171.802 480.157 177.71 484.007 177.71C487.856 177.71 487.856 171.802 484.007 171.802Z" fill="white"/>
<path d="M456.328 237.722C454.735 237.788 453.408 238.983 453.408 240.643V241.439C453.408 243.032 454.802 244.493 456.328 244.36C457.921 244.294 459.249 243.099 459.249 241.439V240.643C459.249 239.116 457.921 237.655 456.328 237.722Z" fill="white"/>
<path d="M508.698 268.723C504.848 268.723 504.848 274.631 508.698 274.631C512.415 274.565 512.415 268.723 508.698 268.723Z" fill="white"/>
<path d="M376.147 65.4548C372.297 65.4548 372.297 71.363 376.147 71.363C379.864 71.363 379.864 65.4548 376.147 65.4548Z" fill="white"/>
<path d="M300.015 157.862C296.165 157.862 296.165 163.77 300.015 163.77C303.865 163.703 303.865 157.862 300.015 157.862Z" fill="white"/>
<path d="M441.858 297.003C439.867 288.306 437.079 279.942 433.362 271.843C431.106 266.864 428.052 256.641 421.348 256.774C420.486 256.774 419.556 256.973 418.693 257.172C413.383 251.862 408.14 244.825 400.175 247.879C392.741 250.733 385.506 254.251 378.337 257.703C394.467 214.487 405.087 165.828 374.023 126.927C372.165 124.603 369.311 125.864 368.315 128.121C356.102 131.441 344.154 135.357 332.273 140.004C331.211 140.403 330.481 141.199 330.149 142.062C329.087 142.261 328.092 143.058 327.826 144.585C325.171 160.517 319.131 175.52 309.507 188.531C304.528 195.369 298.555 201.277 292.05 206.853C286.342 211.766 277.978 216.811 274.328 223.715C271.872 228.428 273.863 233.672 278.443 236.129C284.019 239.049 290.391 236.394 295.767 233.871C295.701 234.071 295.501 234.137 295.369 234.336C292.315 239.116 294.307 245.024 299.019 247.945C301.077 249.206 303.135 249.737 305.259 249.737C300.944 255.314 297.227 261.288 294.108 267.595C289.196 277.419 284.417 288.638 285.678 299.725C286.74 309.417 293.245 317.25 302.338 320.702C311.033 324.021 320.259 322.693 328.49 319.109C343.69 323.49 361.677 320.37 376.014 315.192C392.542 309.217 407.343 299.592 421.946 289.833C425.796 294.746 430.442 298.53 436.349 301.119C439.27 302.38 442.589 300.322 441.858 297.003Z" fill="white"/>
<path d="M379.134 101.302C376.877 93.7345 372.961 87.0297 366.722 82.1836C341.566 62.6667 301.143 81.5861 301.143 113.915C301.143 129.781 313.091 143.987 328.49 146.709C328.955 147.97 330.282 149.165 331.941 148.833C341.566 147.24 350.925 144.518 359.952 140.734C367.186 137.614 376.213 134.096 379.731 126.462C383.382 118.828 381.523 109.069 379.134 101.302Z" fill="#B4C7E7"/>
<path d="M353.58 102.763C348.402 95.9915 336.654 93.3362 331.809 100.638C316.542 113.583 337.716 149.099 354.642 134.162C363.868 126.13 360.151 111.393 353.58 102.763Z" fill="#F7D3BC"/>
<path d="M380.13 125.4C378.138 119.16 371.634 122.877 367.585 124.404C352.783 129.98 338.114 135.49 323.313 141.066C321.056 141.929 320.857 144.518 321.919 145.979C321.852 146.576 321.72 147.174 321.852 147.838C322.516 152.617 329.021 151.754 332.406 151.09C339.442 149.63 346.278 146.178 352.982 143.523C360.018 140.801 367.386 138.345 374.156 135.225C378.006 133.233 381.59 130.047 380.13 125.4Z" fill="#EF86B0"/>
<path d="M355.836 102.099C351.92 97.5183 346.942 92.6723 340.437 93.0042C327.893 93.6017 322.251 109.534 323.91 120.222C324.375 123.541 327.362 131.175 332.008 128.321C332.008 129.781 333.003 131.175 334.862 131.175C338.579 131.175 338.712 125.4 334.928 125.267C335.526 124.47 335.99 123.607 336.588 122.811C338.579 120.686 340.504 118.297 341.566 115.973C342.429 115.376 342.827 114.911 342.628 114.513L342.694 114.314C343.491 114.712 344.154 115.11 344.951 115.575C346.544 116.438 348.07 117.367 349.663 118.23C353.181 120.222 360.748 125.068 362.009 117.965C363.27 112.123 359.288 106.215 355.836 102.099Z" fill="#57455D"/>
<path d="M347.141 120.487C343.291 120.487 343.291 126.395 347.141 126.395C350.991 126.395 350.925 120.487 347.141 120.487Z" fill="#57455D"/>
<path d="M349.199 127.989C348.402 126.595 346.544 125.997 345.216 126.927C343.225 128.188 341.3 129.25 339.243 130.246C337.782 130.91 337.45 132.967 338.181 134.229C339.043 135.689 340.703 136.021 342.163 135.291C344.221 134.295 346.278 133.233 348.137 131.972C349.398 131.109 349.995 129.316 349.199 127.989Z" fill="#57455D"/>
<path d="M443.12 289.037C440.996 281.469 436.349 274.233 432.831 267.263C431.238 264.209 429.977 260.89 427.853 258.168C425.796 255.513 423.473 254.849 420.618 253.256C417.698 251.662 416.238 248.542 413.583 246.684C411.06 244.891 408.007 244.161 404.888 244.161C397.653 244.227 391.015 248.675 384.842 251.928C380.063 254.451 372.828 256.907 375.152 263.678C378.006 271.91 383.117 279.809 386.9 287.576C389.356 292.489 391.679 297.534 394.268 302.446C395.661 304.969 397.321 307.16 400.44 306.429C404.157 305.566 408.206 301.915 411.326 299.857C415.441 297.202 419.424 294.547 423.539 292.024C425.862 294.082 428.252 296.206 430.707 298.264C432.964 300.123 435.287 302.579 438.54 302.114C444.447 301.318 444.248 293.484 443.12 289.037Z" fill="#74A2D6"/>
<path d="M293.643 237.854C292.581 236.195 291.519 234.535 290.391 232.876C289.129 230.419 287.337 228.162 286.209 226.304C283.289 221.59 279.97 212.429 274.062 210.703C270.81 209.708 267.823 211.566 264.836 212.761C260.92 214.421 257.004 216.014 253.088 217.674C247.977 219.798 240.676 221.856 241.605 228.826C242.601 236.394 247.645 244.626 251.296 251.264C254.548 257.04 257.336 265.072 265.102 262.616C274.792 259.562 284.085 254.849 292.913 250.003C293.975 249.405 294.705 248.41 294.705 247.281C296.431 244.692 295.435 240.709 293.643 237.854Z" fill="#F7D06F"/>
<path d="M169.123 298.662C168.858 296.671 168.526 294.746 168.261 292.754C168.061 290.032 167.398 287.244 166.999 284.987C166.203 279.477 166.8 269.719 162.22 265.802C159.698 263.678 156.18 264.01 152.994 263.943C148.813 263.877 144.565 263.744 140.25 263.678C134.675 263.612 127.241 262.483 125.25 269.254C123.126 276.623 124.387 286.182 125.05 293.617C125.648 300.189 125.05 308.686 133.082 309.549C143.171 310.744 153.658 310.147 163.614 309.284C164.875 309.217 165.871 308.62 166.336 307.492C168.792 306.097 169.522 302.114 169.123 298.662Z" fill="#F7D06F"/>
<path d="M210.94 298.662C210.674 296.671 210.342 294.746 210.077 292.754C209.878 290.032 209.214 287.244 208.816 284.987C208.019 279.477 208.617 269.719 204.037 265.802C201.514 263.678 197.997 264.01 194.811 263.943C190.629 263.877 186.381 263.744 182.067 263.678C176.491 263.612 169.057 262.483 167.066 269.254C164.942 276.623 166.203 286.182 166.867 293.617C167.464 300.189 166.867 308.686 174.898 309.549C184.987 310.744 195.474 310.147 205.431 309.284C206.692 309.217 207.687 308.62 208.152 307.492C210.741 306.097 211.404 302.114 210.94 298.662Z" fill="#74A2D6"/>
<path d="M252.756 298.662C252.49 296.671 252.159 294.746 251.893 292.754C251.694 290.032 251.03 287.244 250.632 284.987C249.835 279.477 250.433 269.719 245.853 265.802C243.331 263.678 239.813 264.01 236.627 263.943C232.445 263.877 228.197 263.744 223.883 263.678C218.307 263.612 210.873 262.483 208.882 269.254C206.758 276.623 208.019 286.182 208.683 293.617C209.28 300.189 208.683 308.686 216.714 309.549C226.803 310.744 237.291 310.147 247.247 309.284C248.508 309.217 249.504 308.62 249.968 307.492C252.424 306.097 253.221 302.114 252.756 298.662Z" fill="#EF86B0"/>
<path d="M419.822 252.525C419.424 252.459 419.025 252.326 418.627 252.26C417.167 251.862 415.972 252.658 415.375 253.72C407.542 256.973 399.71 260.16 391.878 263.412C390.418 260.359 388.825 257.371 387.497 254.318C385.904 250.866 380.86 253.919 382.386 257.239C383.78 260.093 385.108 262.815 386.502 265.669C381.125 267.927 375.749 270.051 370.372 272.308C366.921 273.702 368.381 279.477 371.966 278.017C377.74 275.693 383.448 273.304 389.223 270.98C394.002 280.407 399.179 289.501 404.821 298.53C406.812 301.782 411.857 298.795 409.932 295.609C404.556 286.912 399.445 277.884 394.732 268.856C403.162 265.404 411.591 261.886 420.021 258.5C422.211 257.239 422.941 253.322 419.822 252.525Z" fill="#57455D"/>
<path d="M339.309 241.572C341.831 238.85 337.716 234.602 335.194 237.456C323.246 250.069 311.564 266.068 308.976 283.593C306.852 297.866 312.095 313.665 325.636 320.503C328.955 322.162 332.008 317.051 328.556 315.391C315.547 308.952 312.228 293.352 315.547 280.208C319.197 265.537 329.021 252.326 339.309 241.572Z" fill="#57455D"/>
<path d="M408.273 117.898C404.423 117.898 404.423 123.806 408.273 123.806C412.056 123.74 412.056 117.898 408.273 117.898Z" fill="white"/>
<path d="M423.207 226.104C419.357 226.104 419.357 232.013 423.207 232.013C427.057 231.946 427.057 226.104 423.207 226.104Z" fill="white"/>
<path d="M402.83 62.733C398.98 62.733 398.98 68.6412 402.83 68.6412C406.547 68.5748 406.547 62.733 402.83 62.733Z" fill="white"/>
<path d="M258.597 98.6469C256.606 79.5282 239.415 61.7373 219.303 63.4632C194.744 65.5875 181.668 90.0169 183.66 112.654C183.726 113.251 183.925 113.849 184.257 114.247C185.651 121.018 189.169 127.391 194.744 131.573C203.041 137.946 214.458 138.942 224.547 138.145C244.791 136.486 260.787 119.425 258.597 98.6469Z" fill="#74A2D6"/>
<path d="M157.641 160.849C153.525 155.273 146.755 151.024 139.918 150.36C136.467 149.497 133.082 150.294 129.829 152.153C128.635 152.75 127.573 153.547 126.577 154.41C121.201 158.791 116.886 165.562 115.227 170.674C111.377 182.424 116.82 194.373 128.17 199.086C139.056 203.6 151.269 201.542 158.437 191.85C165.406 182.49 164.411 169.943 157.641 160.849Z" fill="#EF86B0"/>
<path d="M172.708 163.04C169.787 159.521 165.274 159.919 161.225 160.782C157.508 161.579 159.101 167.222 162.818 166.492C164.013 165.894 165.141 166.093 166.137 166.89C168.194 167.089 168.592 167.487 167.398 168.085C166.933 169.08 164.743 169.877 163.88 170.342C161.424 171.802 158.968 173.263 156.446 174.657C151.335 177.379 146.158 179.835 140.649 181.693C135.538 183.486 130.36 184.946 125.05 185.809C121.997 186.274 118.878 186.606 115.758 186.672C114.762 186.672 113.302 186.938 112.306 186.672C110.713 187.137 110.182 186.739 110.713 185.411C110.514 184.017 111.178 183.419 112.771 183.419C116.289 182.158 114.762 176.449 111.178 177.71C107.527 178.972 103.611 180.963 103.147 185.145C102.748 188.664 104.939 191.386 108.324 192.116C118.878 194.373 132.219 190.722 142.109 187.203C147.485 185.345 152.662 183.021 157.773 180.366C162.353 178.042 167.862 175.453 171.646 171.935C174.367 169.612 175.097 165.96 172.708 163.04Z" fill="#F7D06F"/>
<path d="M198.262 164.367C196.669 164.434 195.342 165.629 195.342 167.288V167.952C195.342 169.545 196.735 171.006 198.262 170.873C199.789 170.74 201.183 169.612 201.183 167.952V167.288C201.249 165.761 199.855 164.301 198.262 164.367Z" fill="white"/>
<path d="M211.603 215.217H210.94C209.347 215.217 207.886 216.612 208.019 218.138C208.086 219.732 209.28 221.059 210.94 221.059H211.603C213.196 221.059 214.657 219.665 214.524 218.138C214.458 216.479 213.263 215.217 211.603 215.217Z" fill="white"/>
<path d="M236.76 157.33C232.91 157.33 232.91 163.239 236.76 163.239C240.609 163.239 240.609 157.33 236.76 157.33Z" fill="white"/>
<path d="M354.177 215.682C339.906 206.189 325.702 196.564 311.564 186.805C309.507 185.411 307.648 187.071 307.383 188.929C299.949 195.9 292.382 202.804 284.948 209.774C279.771 214.686 270.876 220.329 269.018 227.631C267.558 233.208 271.341 238.186 276.253 240.377C281.762 242.701 287.205 241.373 292.581 239.514C291.917 242.966 292.581 246.352 296.033 248.941C301.94 253.455 309.042 250.534 315.016 247.746C329.817 240.908 344.287 232.876 354.841 220.196C356.035 218.736 355.836 216.811 354.177 215.682Z" fill="#74A2D6"/>
<path d="M342.827 225.706C337.716 221.524 332.672 217.408 327.561 213.16C330.282 210.305 332.937 207.251 335.526 204.131C345.482 191.585 352.451 176.582 352.385 160.384C352.385 156.534 346.478 156.534 346.478 160.384C346.544 176.25 339.243 190.722 329.154 202.671C327.162 204.994 325.171 207.185 323.114 209.309C317.073 204.198 310.967 199.153 304.927 193.908C302.073 191.452 297.891 195.568 300.812 198.024C306.852 203.202 312.958 208.314 318.998 213.425C317.206 215.217 315.348 216.877 313.489 218.537C307.781 223.715 302.006 228.893 294.971 232.345C291.519 234.004 294.572 239.116 297.891 237.456C305.06 234.004 311.033 228.627 316.874 223.383C318.998 221.391 321.189 219.4 323.313 217.342C328.424 221.524 333.468 225.773 338.579 229.888C341.566 232.278 345.681 228.162 342.827 225.706Z" fill="#57455D"/>
<path d="M292.183 235.863C289.926 231.349 287.47 227.034 284.749 222.918C284.483 222.321 284.085 221.723 283.753 221.126C283.488 220.727 283.156 220.329 282.89 220.13C281.098 217.607 279.173 215.151 277.182 212.695C275.058 210.04 271.474 213.16 272.469 215.948C271.009 216.545 270.014 218.271 270.81 220.13C270.876 220.329 271.009 220.528 271.076 220.727C269.881 220.064 268.421 220.329 267.558 221.192C265.566 218.271 260.787 221.126 262.646 224.312C267.226 232.411 272.536 239.979 278.443 247.215C280.434 249.538 283.82 247.015 283.355 244.493C284.55 244.559 285.612 243.895 286.076 242.833C287.072 242.833 287.935 242.236 288.399 241.439C289.395 241.439 290.457 240.775 290.922 239.846C292.183 239.116 292.979 237.523 292.183 235.863Z" fill="#F7D06F"/>
<path d="M279.107 248.609C277.514 245.555 275.854 242.435 274.328 239.381C275.589 238.518 276.85 237.523 278.045 236.46C280.899 233.938 276.651 229.822 273.93 232.345C273.133 233.008 272.337 233.606 271.607 234.336C269.947 231.482 268.354 228.561 266.628 225.706C265.367 223.582 261.916 223.914 261.252 226.37C259.792 231.548 259.194 236.726 259.46 242.037C259.526 243.895 261.252 245.489 263.177 244.891C265.301 244.227 267.358 243.431 269.35 242.435C271.009 245.489 272.602 248.476 274.129 251.53C275.655 254.915 280.766 251.928 279.107 248.609ZM265.102 237.854C265.102 237.058 265.168 236.195 265.301 235.398C265.699 235.996 265.965 236.66 266.363 237.257C265.965 237.523 265.566 237.722 265.102 237.854Z" fill="white"/>
<path d="M150.14 303.442C148.746 294.613 147.817 285.784 147.087 276.888C146.888 274.432 143.967 272.972 142.109 274.83C139.056 277.884 136.998 281.27 135.67 285.319C134.409 288.97 140.051 290.431 141.379 286.912C141.578 286.315 141.777 285.717 142.042 285.12C142.706 291.758 143.503 298.33 144.565 304.902C145.029 308.753 150.671 307.16 150.14 303.442Z" fill="white"/>
<path d="M198.461 295.144C196.404 295.542 194.28 296.007 192.222 296.405C195.342 290.032 196.802 282.531 193.218 276.158C189.899 270.25 180.606 269.321 178.615 276.756C177.619 280.407 183.328 281.934 184.323 278.349C185.385 274.432 188.837 280.606 189.102 281.469C189.7 283.792 189.501 286.381 188.903 288.705C188.04 292.555 186.049 295.874 183.792 299.061C182.199 301.318 184.788 303.84 187.111 303.376C191.425 302.513 195.74 301.583 200.054 300.72C203.771 300.056 202.178 294.347 198.461 295.144Z" fill="white"/>
<path d="M240.477 294.281C240.277 289.369 236.627 287.112 232.512 286.049C235.432 282.996 238.087 279.411 235.963 275.893C232.312 269.984 225.874 274.299 220.962 274.1C217.113 274.034 217.113 279.876 220.962 280.008C222.954 280.075 228.728 277.685 229.989 278.548C231.184 279.411 224.878 285.386 224.016 286.315C222.356 288.174 223.418 291.427 226.073 291.294C228.33 291.294 233.043 290.895 234.304 293.352C234.038 294.613 233.706 295.874 233.441 297.202C232.246 298.264 230.919 298.994 229.458 299.193C227.6 299.592 225.542 299.459 223.684 299.459C219.834 299.459 219.834 305.367 223.684 305.367C230.388 305.301 240.808 303.376 240.477 294.281Z" fill="white"/>
<path d="M242.07 107.874C226.472 116.371 209.347 121.483 191.625 122.744C187.908 123.01 187.775 128.918 191.625 128.653C210.409 127.258 228.529 122.014 245.123 112.986C248.309 111.127 245.322 106.016 242.07 107.874Z" fill="#57455D"/>
<path d="M244.393 75.0805C233.441 83.976 219.834 88.4901 205.696 88.2909C201.846 88.2246 201.846 94.0664 205.696 94.1991C221.493 94.3983 236.361 89.0876 248.574 79.1963C251.428 76.8065 247.247 72.6906 244.393 75.0805Z" fill="#57455D"/>
<path d="M214.059 69.3051C208.55 72.6243 202.709 74.2175 196.204 73.8856C192.355 73.6864 192.355 79.5946 196.204 79.7938C203.572 80.0593 210.674 78.2005 216.98 74.4166C220.232 72.4251 217.312 67.3135 214.059 69.3051Z" fill="#57455D"/>
<path d="M145.096 154.41C140.317 158.326 134.808 161.048 128.767 162.508C125.117 163.371 126.643 169.08 130.36 168.217C137.396 166.425 143.702 163.106 149.277 158.592C152.264 156.136 148.083 152.02 145.096 154.41Z" fill="#57455D"/>
<path d="M137.595 171.072C131.422 174.325 124.984 176.383 118.015 176.98C114.298 177.379 114.298 183.22 118.015 182.888C125.98 182.092 133.48 179.967 140.516 176.25C143.835 174.391 140.914 169.28 137.595 171.072Z" fill="#57455D"/>
<path d="M156.379 186.739C152.53 188.863 148.614 190.589 144.432 191.717C140.781 192.78 142.374 198.489 146.025 197.427C150.605 196.032 155.118 194.174 159.366 191.85C162.619 189.925 159.698 184.88 156.379 186.739Z" fill="#57455D"/>
</g>
<defs>
<clipPath id="clip0">
<rect width="531" height="376" fill="white"/>
</clipPath>
</defs>
</svg>
