<svg width="157" height="157" viewBox="0 0 157 157" fill="none" xmlns="http://www.w3.org/2000/svg">
<path d="M157 0H0V157H157V0Z" fill="#F7DF1E"/>
<path d="M105.464 122.657C108.627 127.82 112.741 131.616 120.018 131.616C126.131 131.616 130.036 128.561 130.036 124.339C130.036 119.28 126.024 117.488 119.295 114.545L115.607 112.963C104.961 108.427 97.8883 102.745 97.8883 90.7335C97.8883 79.6688 106.319 71.2456 119.494 71.2456C128.875 71.2456 135.618 74.5102 140.478 83.058L128.989 90.4345C126.46 85.8989 123.731 84.1121 119.494 84.1121C115.173 84.1121 112.434 86.8534 112.434 90.4345C112.434 94.8604 115.176 96.6522 121.506 99.3935L125.194 100.973C137.729 106.349 144.806 111.829 144.806 124.15C144.806 137.432 134.372 144.709 120.359 144.709C106.658 144.709 97.806 138.18 93.4748 129.622L105.464 122.657ZM53.3476 123.935C55.6653 128.047 57.7735 131.524 62.8424 131.524C67.6895 131.524 70.7472 129.627 70.7472 122.253V72.0879H85.5002V122.453C85.5002 137.729 76.5438 144.682 63.4704 144.682C51.658 144.682 44.8173 138.569 41.3384 131.206L53.3476 123.935Z" fill="black"/>
</svg>
