<svg width="714" height="428" viewBox="0 0 714 428" fill="none" xmlns="http://www.w3.org/2000/svg">
<path d="M675.801 119.142C606.186 37.12 463.743 -5.90361 329.333 0.625962C258.111 4.11436 187.871 20.6619 130.841 50.8053C76.3089 79.5175 34.9861 120.037 14.1016 165.207C-26.4178 252.685 22.3126 352.597 136.553 401.345C144.496 404.833 152.707 407.785 161.096 410.468C161.364 412.168 162.792 413.688 165.737 414.404C240.44 430.773 320.229 431.399 396.806 421.023C435.54 415.835 473.382 407.874 510.064 397.767C545.675 387.928 581.107 376.479 612.255 360.915C722.033 306.264 742.649 197.855 675.801 119.142Z" fill="#141E28"/>
<path d="M389.219 177.908C377.438 161.898 357.893 153.669 338.258 156.262C318.533 158.767 295.061 172.631 290.33 193.293C285.511 214.581 297.47 242.22 319.694 247.945C319.961 249.287 321.032 250.449 322.817 250.36C336.919 249.644 351.02 249.018 365.122 248.303C375.296 247.855 384.668 246.066 391.004 237.211C402.875 220.843 400.822 193.83 389.219 177.908Z" fill="#B4C7E7"/>
<path d="M448.392 253.401C442.323 241.505 433.844 230.95 420.903 226.209C419.029 225.494 416.619 227.372 416.797 229.34C417.958 243.025 426.615 253.312 433.844 264.403C437.503 269.949 440.984 276.031 441.787 282.829C441.877 284.349 442.144 286.407 441.698 287.927C440.27 292.4 435.897 291.416 432.595 290.79C428.578 289.985 424.651 288.643 420.992 286.764C394.039 272.99 374.047 233.991 338.971 242.846C338.168 242.131 336.829 242.041 335.669 242.846C308.537 262.077 291.937 294.994 282.476 326.121C278.192 340.253 280.334 359.663 297.916 362.347C304.075 363.33 310.679 362.615 317.284 360.915C317.641 361.631 318.265 362.347 319.426 362.615C321.478 362.973 323.442 363.33 325.316 363.688C323.263 365.567 323.442 369.949 326.387 370.576C326.03 372.812 329.511 428.089 331.921 428.089C345.397 428.537 362.266 427.374 377.349 425.317C384.221 424.333 391.004 422.902 397.609 420.487C401.268 419.145 408.319 416.819 407.783 410.647C407.515 408.143 404.481 354.207 403.053 353.76C403.142 353.491 403.142 353.312 403.142 352.955C403.231 339.896 401.625 327.015 398.323 314.582C408.854 320.486 420.724 324.064 432.862 321.559C445.893 318.965 456.692 309.305 458.745 295.888C461.155 281.308 454.907 266.102 448.392 253.401Z" fill="white"/>
<path d="M363.604 217.533C361.373 211.272 358.249 203.311 351.734 200.181C335.401 192.488 328.618 217.444 330.76 229.429C330.85 232.202 331.385 234.528 331.921 236.585C336.651 251.344 355.483 255.816 363.426 240.968C367.442 233.544 366.371 225.136 363.604 217.533Z" fill="#F7D3BC"/>
<path d="M374.315 236.585C365.925 234.349 355.661 235.959 347.183 236.227C342.185 236.317 305.057 233.365 314.785 248.571C318.801 254.832 328.44 252.864 334.598 252.596C336.473 252.596 338.525 252.507 340.4 252.507C346.469 252.596 352.448 252.507 358.517 252.149C358.874 252.149 359.231 252.059 359.588 252.059C361.998 251.97 364.319 251.97 366.818 251.791C367.621 251.791 368.335 251.433 368.87 251.075C369.941 250.986 370.923 250.807 371.994 250.628C374.939 250.181 378.152 249.913 380.205 247.319C384.132 242.22 379.134 237.837 374.315 236.585Z" fill="#EF86B0"/>
<path d="M453.479 250.539C448.303 240.789 440.717 232.381 431.792 225.941C428.222 223.347 424.295 220.932 419.921 223.168C416.262 225.047 414.745 229.429 415.102 233.544C415.727 239.09 419.118 244.725 421.349 249.823C424.295 256.353 427.24 262.972 430.096 269.591C431.167 271.827 433.666 271.648 434.915 270.217C435.897 271.29 437.325 271.737 438.842 270.843C443.573 267.981 450.266 265.387 454.015 261.362C457.496 257.873 455.354 253.938 453.479 250.539Z" fill="#EF86B0"/>
<path d="M358.25 252.328C355.84 253.848 353.787 256.263 351.824 258.768C351.734 258.678 351.467 258.41 351.377 258.321C345.844 254.295 339.507 252.417 332.635 252.507C330.404 252.507 329.065 254.564 329.511 256.621C330.85 262.525 338.793 282.024 347.807 276.21C349.592 275.047 350.574 272.99 351.645 271.201C352.091 270.485 352.448 269.77 352.984 269.054C357.357 273.795 363.337 276.568 369.941 277.283C371.637 277.373 373.422 275.584 373.154 274.063C372.53 268.249 368.424 245.619 358.25 252.328Z" fill="#F7D06F"/>
<path d="M384.132 293.741C380.473 290.253 374.671 290.253 370.03 290.432C363.247 290.521 356.286 291.416 349.86 293.741C340.132 297.319 332.278 306.532 337.276 317.176C337.365 317.445 337.543 317.623 337.633 317.802C335.223 320.307 338.347 325.047 341.56 322.901C347.718 318.876 354.144 315.298 361.016 312.704C363.961 311.541 366.907 310.557 370.03 309.752C373.957 308.679 376.189 306.979 376.278 311.988C376.724 323.974 369.049 335.781 357.892 339.985C354.679 341.327 354.947 346.246 358.696 346.425C364.943 346.425 372.351 346.157 378.241 343.652C383.775 341.416 385.203 337.033 386.095 331.398C387.166 324.153 387.791 316.908 387.613 309.573C387.523 304.475 388.148 297.677 384.132 293.741Z" fill="#F7D06F"/>
<path d="M341.292 377.463C338.704 358.59 336.205 339.538 333.617 320.665C333.527 320.038 333.26 319.591 332.992 319.233C333.081 318.876 333.081 318.607 333.081 318.25C332.278 309.126 331.385 300.092 330.582 290.879C329.868 282.918 330.136 273.884 327.994 266.192C326.655 261.362 322.282 256.8 316.838 257.963C311.126 259.126 307.377 267.623 304.521 271.827C293.454 288.196 281.138 310.11 280.067 331.398C278.371 341.595 279.353 352.15 286.314 360.289C289.527 364.135 293.633 366.819 298.184 368.339C302.022 370.039 306.128 370.576 310.144 370.039C310.501 370.039 310.947 370.039 311.304 369.949C309.608 376.032 308.002 382.204 306.306 388.286C305.681 390.343 307.288 392.4 309.43 392.4L323.531 392.043C327.815 391.953 332.903 392.49 337.008 391.595C344.327 389.896 342.006 382.74 341.292 377.463Z" fill="#74A2D6"/>
<path d="M456.692 260.378C456.246 258.857 454.461 257.516 452.676 258.142C445.447 260.557 438.218 262.972 430.988 265.387C429.203 266.013 428.489 267.534 428.757 269.412C429.382 273.258 429.56 276.925 429.739 280.682C429.739 281.398 430.185 284.618 429.65 285.154C428.668 285.959 424.919 285.065 424.295 284.797C417.779 283.276 412.067 279.251 407.069 274.779C398.055 266.55 390.558 256.711 379.402 251.165C377.885 250.449 375.921 250.718 375.029 252.328C373.154 252.328 371.012 253.848 371.548 256.353C381.544 295.799 388.595 335.96 392.611 376.479C392.879 378.626 394.485 380.146 396.716 379.61C402.428 378.178 409.122 377.463 414.477 374.958C418.94 372.901 419.118 369.144 418.315 364.851C416.173 352.776 413.852 340.7 411.532 328.625C426.258 334.35 443.394 330.861 454.015 318.249C468.563 301.523 462.94 279.43 456.692 260.378Z" fill="#74A2D6"/>
<path d="M382.704 309.215C380.294 304.743 375.742 303.849 371.28 305.369C364.051 307.874 357.178 311.63 350.306 314.851C342.72 318.339 335.223 321.738 327.637 325.047C325.495 326.031 325.584 328.178 326.655 329.52C325.316 330.325 324.424 332.114 325.227 333.903C326.923 337.48 328.708 341.148 330.314 344.726C331.385 347.141 332.367 350.182 334.687 351.613C339.15 354.475 345.933 350.182 349.949 348.125C361.373 342.042 372.708 332.829 380.383 322.453C383.418 318.607 385.024 313.777 382.704 309.215Z" fill="#EF86B0"/>
<path d="M364.586 204.742C359.499 195.798 349.324 190.341 339.686 195.977C328.529 202.417 327.726 215.923 328.44 227.462C328.44 227.73 328.44 227.819 328.529 227.909C328.44 229.698 328.529 231.397 329.154 233.276C329.957 235.78 332.635 236.227 334.598 234.707C336.651 233.007 338.614 231.397 340.399 229.698C340.489 231.487 341.56 233.186 343.88 233.186C348.343 233.186 348.521 226.209 343.969 226.031C345.397 224.331 346.558 222.721 347.629 220.843C347.629 220.843 347.629 220.843 347.718 220.843C348.432 220.753 349.503 222.005 350.485 222.721C352.537 224.42 355.304 226.299 358.339 227.462C357.535 228.803 357.535 230.682 358.428 231.934C356.197 232.202 353.965 232.381 351.556 232.65C349.681 232.918 347.986 234.17 347.986 236.227C347.986 238.016 349.681 240.074 351.556 239.805C353.965 239.537 356.286 239.358 358.696 239.09C360.57 238.821 362.266 237.569 362.266 235.512C362.266 234.707 361.909 233.812 361.284 233.097C363.872 233.007 364.854 230.503 364.229 228.446C375.207 227.014 367.531 210.02 364.586 204.742Z" fill="#57455D"/>
<path d="M430.631 211.182C425.633 208.678 413.674 204.921 409.211 210.109C404.124 216.013 414.923 227.104 418.85 230.771L418.94 230.861C417.155 235.601 417.779 241.415 417.155 246.782C415.459 246.782 413.852 246.782 412.157 246.782C407.873 246.782 408.14 252.685 412.157 253.312C414.656 253.669 417.155 253.938 419.654 254.295C420.457 254.385 421.349 253.938 421.885 253.312C424.473 253.312 427.061 253.312 429.739 253.312C433.844 253.312 433.844 246.871 429.739 246.782C427.686 246.782 425.633 246.782 423.581 246.782C423.848 243.83 423.67 240.968 423.938 237.837C424.295 233.812 425.455 230.95 429.293 229.251C431.078 228.446 432.952 228.088 434.648 226.836C442.234 221.916 436.968 214.403 430.631 211.182Z" fill="#B4C7E7"/>
<path d="M508.636 98.5697C505.066 90.3406 500.96 82.5588 496.23 74.9559C493.285 70.3047 489.715 65.6535 484.449 70.6625C477.577 77.4604 471.686 85.4211 465.26 92.6662C460.173 98.4802 454.55 103.847 453.836 111.808C453.747 112.881 454.55 114.402 455.621 114.938C458.12 116.101 460.619 116.638 463.297 116.817C468.295 117.264 470.615 117.89 471.508 123.615C472.668 132.023 473.382 140.609 474.364 149.017C474.632 151.522 476.417 152.864 478.826 152.506C485.431 151.522 492.214 150.448 498.818 149.554C500.246 149.286 501.585 147.497 501.407 146.066C500.96 136.405 500.603 126.835 500.068 117.085C501.228 117.085 502.835 117.89 503.995 118.069C506.583 118.337 509.528 117.98 511.492 115.922C515.687 111.361 510.51 103.221 508.636 98.5697Z" fill="#EF86B0"/>
<path d="M255.88 162.971C253.648 163.06 251.596 163.955 249.811 165.118C249.454 164.849 249.097 164.492 249.007 163.955C249.097 163.239 249.097 162.524 249.097 161.808C249.454 160.735 249.364 159.751 248.829 159.035C248.74 158.588 248.561 157.962 248.472 157.515C247.133 153.132 240.261 155.01 241.6 159.393C241.689 159.84 241.867 160.466 241.957 160.914C241.689 161.898 241.6 162.971 241.689 163.776C241.332 165.118 240.618 166.28 239.636 167.264C238.119 167.712 236.691 168.427 235.352 169.858C233.121 172.363 235.263 177.103 238.833 175.762C239.993 175.315 241.243 174.688 242.314 174.062C243.385 173.973 244.545 174.42 245.17 175.404C245.259 176.12 245.437 176.746 245.616 177.461C246.776 181.129 252.756 180.681 252.577 176.477C252.577 175.762 252.488 175.046 252.22 174.331C252.22 173.615 252.31 172.989 252.577 172.273C254.719 171.916 256.683 170.842 258.379 168.696C259.985 166.907 259.271 162.703 255.88 162.971Z" fill="#F7D06F"/>
<path d="M425.098 137.568C423.581 138.015 422.153 138.731 420.814 139.625C419.297 139.715 417.958 138.999 416.976 137.747C416.976 136.048 416.708 134.438 416.262 132.738C416.262 132.649 416.262 132.649 416.262 132.47C416.887 130.681 416.173 129.339 414.923 128.624C414.834 128.355 414.656 127.997 414.566 127.819C412.871 123.525 405.998 125.404 407.694 129.697C408.051 130.502 408.408 131.486 408.765 132.47C408.14 134.974 408.497 137.21 409.39 139.268C409.301 139.536 409.301 139.625 409.122 139.715C407.069 139.625 405.017 139.983 402.964 140.788C400.197 141.951 399.305 145.529 402.161 147.318C405.106 149.107 408.408 149.017 411.175 147.407C413.317 148.123 415.013 149.643 415.816 152.059C417.333 156.441 423.402 154.652 422.688 150.18C422.331 148.302 423.134 146.602 424.473 145.439C425.812 144.992 427.061 144.277 428.311 143.293C431.435 141.236 428.311 136.674 425.098 137.568Z" fill="#F7D06F"/>
<path d="M512.027 208.231C510.331 208.857 508.725 209.662 506.94 209.572C506.583 209.572 504.887 209.215 504.084 208.588C504.084 208.141 503.995 207.605 503.816 207.247C505.69 204.832 504.173 201.88 502.031 201.164C499.978 198.392 494.713 200.359 495.784 204.295C496.051 205.279 496.408 206.71 496.765 208.231C496.765 208.678 496.855 209.215 497.033 209.662C497.122 211.093 497.122 212.524 496.944 213.687C494.534 214.313 492.303 215.565 490.518 217.623C488.644 219.859 489.804 223.705 493.017 223.705C496.141 223.705 498.818 222.542 500.871 220.395C502.656 220.485 504.352 221.379 505.244 222.989C507.475 226.567 512.384 224.063 511.759 220.217C511.402 217.801 512.741 215.834 514.705 214.671C518.185 212.882 515.865 206.71 512.027 208.231Z" fill="#F7D06F"/>
<path d="M273.105 263.24C271.677 262.525 270.338 262.077 268.821 261.898C268.196 261.809 262.663 261.541 262.663 261.63C264.18 258.857 261.949 256.442 259.539 256.263C257.129 252.685 251.328 256.174 253.649 260.11C255.077 262.614 254.63 265.834 252.935 268.16C250.346 268.517 247.758 269.859 245.616 272.185C243.831 274.242 244.813 278.625 248.115 278.267C250.971 277.999 253.559 276.836 255.612 275.315C256.415 275.405 257.129 275.942 257.843 276.478C258.111 278.267 258.647 280.145 259.718 281.845C261.503 284.797 266.501 283.634 266.322 280.056C266.233 277.909 265.697 276.031 264.894 274.51C265.162 271.648 267.839 269.501 271.499 269.859C274.801 270.128 276.229 264.671 273.105 263.24Z" fill="#F7D06F"/>
<path d="M321.835 100.359C319.783 101.521 317.73 100.985 316.837 99.3747C317.551 97.1385 317.641 94.6341 317.284 92.0401C316.57 87.9256 310.679 89.1778 310.411 93.024C310.054 93.3818 309.787 93.829 309.697 94.4552C309.34 96.1546 309.251 97.6752 309.43 99.1064C308.716 100.18 307.734 100.985 306.663 101.611C305.503 101.879 304.253 102.326 303.182 102.953C299.523 105.01 302.111 110.198 305.949 109.482C307.109 109.214 308.18 108.856 309.162 108.409C312.018 108.319 314.963 110.198 315.677 112.881C315.677 113.597 315.766 114.223 315.945 114.938C316.748 118.874 323.174 118.069 322.906 113.954C322.906 113.239 322.817 112.613 322.639 111.897C322.549 109.661 323.62 107.604 325.495 106.352C329.332 104.026 325.941 98.1225 321.835 100.359Z" fill="#F7D06F"/>
<path d="M497.926 272.543C496.052 272.632 494.356 274.063 494.356 276.12V277.283C494.356 279.162 496.052 280.95 497.926 280.861C499.8 280.772 501.496 279.34 501.496 277.283V276.12C501.496 274.153 499.8 272.364 497.926 272.543Z" fill="white"/>
<path d="M519.256 167.98H518.096C516.222 167.98 514.437 169.679 514.526 171.558C514.615 173.436 516.043 175.136 518.096 175.136H519.256C521.131 175.136 522.916 173.436 522.826 171.558C522.737 169.501 521.131 167.98 519.256 167.98Z" fill="white"/>
<path d="M453.747 190.163C449.106 190.163 449.106 197.318 453.747 197.318C458.21 197.318 458.21 190.163 453.747 190.163Z" fill="white"/>
<path d="M385.292 78.8021C380.651 78.8021 380.651 85.9578 385.292 85.9578C389.844 85.9578 389.844 78.8021 385.292 78.8021Z" fill="white"/>
<path d="M373.601 114.223C372.173 112.881 369.941 112.792 368.603 114.223C368.246 114.581 367.799 115.028 367.442 115.386C366.104 116.727 366.014 119.053 367.442 120.395C368.87 121.736 371.102 121.826 372.44 120.395C372.797 120.037 373.244 119.59 373.601 119.232C374.85 118.069 375.029 115.564 373.601 114.223Z" fill="white"/>
<path d="M246.866 117.89C242.225 117.89 242.225 125.046 246.866 125.046C251.417 125.046 251.417 117.89 246.866 117.89Z" fill="white"/>
<path d="M276.229 145.35C274.354 145.439 272.659 146.871 272.659 148.928V150.091C272.659 151.969 274.354 153.758 276.229 153.669C278.103 153.579 279.799 152.148 279.799 150.091V148.928C279.799 147.05 278.103 145.261 276.229 145.35Z" fill="white"/>
<path d="M199.206 182.202H198.046C196.172 182.202 194.387 183.901 194.476 185.78C194.565 187.658 195.993 189.358 198.046 189.358H199.206C201.08 189.358 202.865 187.658 202.776 185.78C202.598 183.722 201.08 182.202 199.206 182.202Z" fill="white"/>
<path d="M259.718 218.785C255.077 218.785 255.077 225.941 259.718 225.941C264.359 225.941 264.359 218.785 259.718 218.785Z" fill="white"/>
<path d="M203.936 270.127C199.295 270.127 199.295 277.283 203.936 277.283C208.399 277.283 208.399 270.127 203.936 270.127Z" fill="white"/>
<path d="M240.707 312.883C238.833 312.972 237.137 314.403 237.137 316.461V317.623C237.137 319.502 238.833 321.291 240.707 321.201C242.581 321.112 244.277 319.681 244.277 317.623V316.461C244.188 314.582 242.581 312.793 240.707 312.883Z" fill="white"/>
<path d="M349.146 344.189C345.576 337.749 341.471 331.845 336.83 326.121C336.473 325.674 336.026 325.316 335.669 325.137C336.116 322.632 334.331 319.77 331.564 321.022C325.049 323.527 318.623 326.031 312.107 328.536C313.892 318.518 316.034 308.679 318.623 298.84C318.355 300.181 318.355 301.613 318.623 302.865C319.426 308.41 323.442 312.704 327.369 316.371C330.671 319.591 335.669 314.493 332.367 311.362C327.905 306.979 324.335 303.044 326.566 296.514C327.637 293.205 330.582 289.269 329.868 285.691C329.243 282.56 325.941 280.503 323.799 278.446C320.854 275.673 320.586 273.705 321.568 269.68C322.193 267.086 323.442 264.582 324.335 261.988C325.852 257.694 318.98 255.816 317.462 260.109C315.588 265.297 312.018 271.738 313.982 277.373C314.696 279.43 316.124 281.04 317.552 282.471C318.623 283.544 322.193 285.602 322.55 287.122C322.907 288.911 320.675 292.578 319.426 294.994C319.694 294.278 319.783 293.562 320.051 292.847C321.211 288.464 314.517 286.586 313.178 290.968C309.519 304.028 306.574 317.355 304.253 330.772C304.253 331.04 304.253 331.219 304.253 331.398C303.986 331.488 303.807 331.666 303.539 331.666C299.255 333.366 301.13 340.253 305.414 338.554L330.939 328.715C330.939 329.52 331.207 330.414 331.742 331.13C335.848 336.318 339.686 341.953 342.899 347.767C345.219 351.792 351.377 348.214 349.146 344.189Z" fill="#57455D"/>
<path d="M449.909 248.303C442.591 250.718 435.094 252.775 427.597 254.564C423.134 255.637 425.008 262.525 429.471 261.451C436.968 259.662 444.376 257.516 451.783 255.19C456.157 253.759 454.282 246.871 449.909 248.303Z" fill="#57455D"/>
<path d="M418.404 340.79C415.816 326.031 412.603 311.452 409.122 296.961C408.051 292.578 401.179 294.367 402.25 298.84C405.82 313.33 408.854 327.91 411.532 342.668C412.335 347.23 419.207 345.352 418.404 340.79Z" fill="#57455D"/>
<path d="M398.68 295.351C398.055 290.611 394.842 287.748 391.004 285.602C394.307 281.129 398.234 275.494 396.538 270.396C395.556 267.444 392.611 265.208 390.469 263.061C387.345 259.931 384.311 256.889 381.098 253.759C377.885 250.539 372.797 255.548 376.1 258.768C379.759 262.435 384.846 266.102 387.702 270.396C391.004 275.226 385.203 280.861 382.526 285.154C381.098 287.301 382.615 289.537 384.668 290.342C390.826 292.847 392.7 296.782 389.666 302.954C387.881 306.622 385.649 310.11 383.597 313.688C381.365 317.713 387.524 321.291 389.755 317.266C393.503 311.004 399.751 303.133 398.68 295.351Z" fill="#57455D"/>
<path d="M359.678 304.743C355.572 304.385 351.377 304.296 347.272 304.475C342.809 304.743 342.631 311.809 347.272 311.63C351.377 311.362 355.572 311.541 359.678 311.899C364.319 312.167 364.319 305.101 359.678 304.743Z" fill="#57455D"/>
<path d="M356.107 262.525C356.107 262.435 356.107 262.256 356.107 262.256C356.107 261.898 356.107 261.451 356.197 261.093C356.464 259.215 354.412 257.426 352.627 257.516C350.485 257.605 349.324 259.036 349.057 261.093C348.967 261.809 348.967 262.614 349.057 263.33C349.057 263.419 349.057 263.598 349.057 263.687C349.057 263.777 349.057 263.777 349.057 263.956C349.057 264.135 349.057 264.045 349.057 264.224C349.146 265.029 349.414 265.924 349.681 266.639C350.306 268.339 351.734 269.501 353.608 269.144C355.483 268.875 356.464 267.444 356.732 265.655C356.821 264.582 356.643 263.508 356.107 262.525Z" fill="#57455D"/>
<path d="M433.755 95.9757C431.881 96.0652 430.185 97.4963 430.185 99.5536V100.716C430.185 102.595 431.881 104.384 433.755 104.294C435.629 104.205 437.325 102.774 437.325 100.716V99.5536C437.325 97.5858 435.719 95.7969 433.755 95.9757Z" fill="white"/>
<path d="M165.113 200.717C143.425 185.154 109.867 189.268 94.3374 211.451C79.9682 231.844 88.6254 257.068 106.654 271.022C122.987 288.017 150.833 287.569 167.969 270.754C186.622 252.507 187.336 216.639 165.113 200.717Z" fill="#F7D06F"/>
<path d="M186.8 226.478C182.784 224.242 179.214 230.413 183.23 232.65C185.104 233.723 186.889 234.17 188.942 234.707C189.299 234.796 191.53 235.154 191.53 235.512C191.62 236.138 188.05 238.106 187.603 238.374C182.159 241.952 176.09 244.635 170.021 246.782C157.794 251.075 145.031 253.043 132.358 254.653C118.524 256.353 104.601 257.605 90.7672 258.589C87.1079 258.857 83.538 259.036 79.8787 259.036C78.0044 259.036 70.1504 259.394 69.1687 257.694C66.4019 252.596 84.2519 248.034 87.1972 247.855C91.6597 247.498 91.8382 240.342 87.1972 240.7C78.6292 241.326 70.1505 244.546 64.1707 250.807C60.0652 255.19 59.8867 261.272 65.8665 263.956C74.8807 267.981 86.9295 265.834 96.3007 265.118C106.832 264.313 117.364 263.33 127.984 262.167C146.281 260.02 164.845 257.426 181.713 249.555C187.157 246.961 197.332 243.025 198.403 236.227C199.741 228.803 191.441 229.161 186.8 226.478Z" fill="#EF86B0"/>
<path d="M111.563 214.045C105.761 217.175 99.2461 218.338 92.8201 217.265C88.3576 216.549 86.3941 223.437 90.9459 224.152C99.5139 225.494 107.546 224.242 115.222 220.217C119.149 218.07 115.579 211.898 111.563 214.045Z" fill="#57455D"/>
<path d="M177.429 225.315C170.557 227.014 163.685 228.803 156.812 230.413C152.439 231.487 154.224 238.374 158.687 237.301C165.559 235.601 172.431 233.812 179.303 232.202C183.766 231.129 181.981 224.242 177.429 225.315Z" fill="#57455D"/>
<path d="M137.177 269.054C131.644 270.932 126.021 272.185 120.13 272.543C115.668 272.811 115.489 279.877 120.13 279.698C126.646 279.34 132.893 278.178 139.141 276.031C143.335 274.421 141.461 267.534 137.177 269.054Z" fill="#57455D"/>
<path d="M375.207 383.724C375.207 379.073 368.067 379.073 368.067 383.724C367.978 396.873 368.513 410.021 369.852 423.17C370.298 427.642 377.438 427.642 376.992 423.17C375.743 410.111 375.118 396.873 375.207 383.724Z" fill="#57455D"/>
<path d="M329.065 352.686C324.245 356.264 319.247 359.842 314.339 363.42C310.679 366.014 314.249 372.186 317.909 369.592C322.728 366.014 327.726 362.436 332.635 358.858C336.383 356.264 332.813 350.092 329.065 352.686Z" fill="#57455D"/>
<path d="M657.237 240.521C655.363 228.446 645.456 219.859 634.21 217.712C633.853 217.444 633.586 217.354 633.139 217.265C615.825 212.077 599.581 231.845 598.243 247.676C596.725 265.745 615.825 275.852 631.711 274.063C648.223 272.006 659.914 257.158 657.237 240.521Z" fill="#74A2D6"/>
<path d="M429.56 217.891C426.615 216.549 423.491 215.655 420.457 215.118C418.404 213.061 414.209 213.776 414.299 217.354C414.566 224.957 425.098 229.429 430.453 223.437C431.702 221.916 431.792 218.785 429.56 217.891Z" fill="#EF86B0"/>
<path d="M625.464 247.319C618.146 250.449 610.381 252.417 602.438 253.222C597.975 253.669 597.975 260.825 602.438 260.378C611.72 259.394 620.466 257.158 629.034 253.49C633.229 251.702 629.659 245.53 625.464 247.319Z" fill="#57455D"/>
<path d="M643.046 225.852C636.263 228.624 629.659 231.397 622.876 234.17C618.77 235.87 620.466 242.846 624.75 241.057C631.533 238.285 638.138 235.512 644.921 232.739C649.115 231.04 647.33 224.152 643.046 225.852Z" fill="#57455D"/>
<path d="M645.099 255.369C643.76 256.532 641.975 257.516 640.369 257.784C638.495 258.052 636.799 259.215 636.799 261.362C636.799 263.151 638.495 265.208 640.369 264.94C644.028 264.492 647.33 263.151 650.097 260.557C653.489 257.337 648.401 252.149 645.099 255.369Z" fill="#57455D"/>
<path d="M616.718 141.325C615.914 141.236 614.933 141.236 614.129 141.236C613.772 140.162 613.505 139.089 613.148 137.926C611.987 133.543 605.115 135.422 606.275 139.804C606.543 140.52 606.632 141.236 606.9 141.951C605.918 142.219 604.847 142.398 603.955 142.667C599.582 144.008 601.456 150.896 605.829 149.554C606.9 149.196 607.882 148.928 608.953 148.838C609.31 150.18 609.667 151.432 610.113 152.864C611.273 157.246 618.146 155.368 616.985 150.985C616.718 150.18 616.539 149.286 616.271 148.481C616.539 148.481 616.628 148.481 616.896 148.481C621.269 148.838 621.269 141.683 616.718 141.325Z" fill="#F7D06F"/>
<path d="M514.972 348.214C514.705 348.303 514.526 348.303 514.259 348.482C513.188 346.246 511.67 344.099 509.885 342.311C506.672 339.001 501.585 344.099 504.887 347.32C505.958 348.393 506.761 349.556 507.475 350.808L504.262 351.881C499.979 353.312 501.763 360.2 506.137 358.769C507.208 358.411 508.368 358.053 509.439 357.606C509.439 357.964 509.528 358.411 509.528 358.769C509.528 363.42 516.668 363.42 516.668 358.769C516.668 357.606 516.579 356.354 516.311 355.191C516.4 355.191 516.579 355.101 516.757 355.101C521.131 353.581 519.256 346.604 514.972 348.214Z" fill="#F7D06F"/>
<path d="M612.077 309.931C609.578 310.557 607.257 311.273 604.758 311.809C604.312 310.11 603.687 308.5 603.241 306.8C601.902 302.418 595.03 304.296 596.369 308.679L597.886 313.688C596.369 314.135 594.673 314.493 593.156 315.029C588.782 316.192 590.657 323.08 595.03 321.917C596.726 321.47 598.332 321.112 600.028 320.575C600.385 321.738 600.742 323.08 601.188 324.242C602.527 328.625 609.399 326.747 608.06 322.364L606.989 318.786C609.399 318.16 611.72 317.444 614.129 316.908C618.413 315.656 616.45 308.768 612.077 309.931Z" fill="#F7D06F"/>
<path d="M255.166 377.731H250.525C250.079 376.658 249.722 375.495 249.186 374.422C248.472 372.633 246.776 371.291 244.813 371.917C243.117 372.364 241.6 374.511 242.314 376.3L242.939 377.731H238.655C234.014 377.731 234.014 384.887 238.655 384.887H245.795L247.133 388.196C247.847 389.985 249.543 391.327 251.507 390.701C253.202 390.254 254.72 388.107 254.006 386.318C253.738 385.871 253.649 385.334 253.381 384.887H255.166C259.628 384.887 259.628 377.731 255.166 377.731Z" fill="#F7D06F"/>
<path d="M104.69 308.768C103.53 309.037 102.459 309.215 101.209 309.484C100.763 307.695 100.138 305.995 99.5137 304.385C97.9965 300.092 91.1242 301.97 92.6415 306.264C93.2662 307.784 93.7125 309.484 94.3372 311.004C93.891 311.094 93.3555 311.273 92.9092 311.362C88.4467 312.346 90.321 319.233 94.7835 318.249C95.2297 318.16 95.7652 317.981 96.1222 317.981C96.39 319.144 96.5685 320.396 96.8362 321.648C97.6395 326.121 104.422 324.242 103.708 319.77C103.441 318.697 103.351 317.623 103.084 316.461C104.244 316.192 105.493 316.013 106.654 315.656C111.116 314.672 109.153 307.784 104.69 308.768Z" fill="#F7D06F"/>
<path d="M161.9 129.429C160.918 129.786 159.847 130.144 158.954 130.502C158.687 129.786 158.597 129.16 158.33 128.445C156.991 124.062 150.119 125.94 151.457 130.323C151.725 131.128 151.904 132.023 152.171 132.828C150.743 133.275 149.226 133.901 147.798 134.348C143.514 135.869 145.299 142.756 149.672 141.236L154.313 139.536C154.581 140.341 154.76 141.236 155.117 142.13C156.455 146.513 163.328 144.634 161.989 140.252C161.632 139.178 161.364 138.194 161.007 137.121L163.863 136.137C168.147 134.795 166.184 127.908 161.9 129.429Z" fill="#F7D06F"/>
<path d="M261.056 41.503H255.612C255.344 40.0719 255.166 38.5513 254.63 37.1202C253.47 32.7373 246.598 34.6157 247.758 38.9985C248.026 39.8036 248.115 40.698 248.383 41.503H246.866C242.225 41.503 242.225 48.6587 246.866 48.6587H249.008C249.008 50.0004 248.918 51.2527 248.74 52.5944C248.115 57.0667 254.987 59.0345 255.612 54.4727C255.88 52.5944 255.969 50.5371 256.058 48.6587H261.056C265.519 48.6587 265.519 41.503 261.056 41.503Z" fill="#F7D06F"/>
<path d="M418.761 41.503C416.262 41.503 413.763 41.503 411.443 41.7714C411.086 39.7141 410.639 37.8357 410.282 35.8679C409.301 31.3956 402.607 33.274 403.41 37.7463L404.481 42.8447C403.053 43.2025 401.625 43.5603 400.108 43.9181C395.734 45.2598 397.609 52.1471 401.982 50.8054C403.321 50.4476 404.57 50.0898 405.909 49.8215C405.998 50.5371 406.177 51.1632 406.266 51.8788C407.248 56.3511 413.942 54.4727 413.138 50.0004C413.049 49.6426 413.049 49.1954 412.871 48.8376C414.923 48.7482 416.798 48.5693 418.761 48.5693C423.224 48.6587 423.224 41.503 418.761 41.503Z" fill="#F7D06F"/>
<path d="M151.993 316.013H150.832C148.958 316.013 147.173 317.713 147.262 319.591C147.352 321.47 148.78 323.169 150.832 323.169H151.993C153.867 323.169 155.652 321.47 155.563 319.591C155.384 317.623 153.867 316.013 151.993 316.013Z" fill="white"/>
<path d="M178.054 358.769C176.18 358.858 174.484 360.289 174.484 362.346V363.509C174.484 365.388 176.18 367.177 178.054 367.087C179.928 366.998 181.624 365.567 181.624 363.509V362.346C181.624 360.468 179.928 358.679 178.054 358.769Z" fill="white"/>
<path d="M46.4993 274.421C41.8583 274.421 41.8583 281.577 46.4993 281.577C50.9618 281.577 50.9618 274.421 46.4993 274.421Z" fill="white"/>
<path d="M37.6634 211.987C35.9677 211.182 33.6472 211.54 32.8439 213.329C32.4869 214.134 32.0407 214.85 31.6837 215.744C30.8804 217.444 31.2374 219.68 33.0224 220.574C34.7182 221.379 37.0387 221.022 37.8419 219.233C38.1989 218.428 38.6452 217.712 39.0022 216.818C39.8054 215.208 39.4484 212.882 37.6634 211.987Z" fill="white"/>
<path d="M83.1811 149.643C81.3068 149.733 79.6111 151.164 79.6111 153.221V154.384C79.6111 156.262 81.3068 158.051 83.1811 157.962C85.0553 157.873 86.7511 156.441 86.7511 154.384V153.221C86.7511 151.343 85.1446 149.554 83.1811 149.643Z" fill="white"/>
<path d="M163.863 72.4514C159.222 72.4514 159.222 79.6071 163.863 79.6071C168.326 79.5177 168.326 72.4514 163.863 72.4514Z" fill="white"/>
<path d="M290.687 32.0217C286.046 32.0217 286.046 39.1774 290.687 39.1774C295.239 39.1774 295.239 32.0217 290.687 32.0217Z" fill="white"/>
<path d="M376.189 34.2579C374.761 32.9162 372.529 32.8267 371.191 34.2579C370.834 34.6157 370.387 35.0629 370.03 35.4207C368.692 36.7624 368.602 39.088 370.03 40.4297C371.458 41.7714 373.69 41.8608 375.028 40.4297L376.189 39.2669C377.438 37.9252 377.617 35.5996 376.189 34.2579Z" fill="white"/>
<path d="M464.992 46.2437C460.351 46.2437 460.351 53.3994 464.992 53.3994C469.455 53.3994 469.455 46.2437 464.992 46.2437Z" fill="white"/>
<path d="M561.026 86.6733C556.385 86.6733 556.385 93.829 561.026 93.829C565.488 93.829 565.488 86.6733 561.026 86.6733Z" fill="white"/>
<path d="M590.657 185.332H589.496C587.622 185.332 585.837 187.032 585.926 188.91C586.016 190.789 587.444 192.488 589.496 192.488H590.657C592.531 192.488 594.316 190.789 594.227 188.91C594.048 186.943 592.531 185.332 590.657 185.332Z" fill="white"/>
<path d="M666.519 181.755C661.878 181.755 661.878 188.91 666.519 188.91C670.982 188.821 670.982 181.755 666.519 181.755Z" fill="white"/>
<path d="M662.949 294.636C658.308 294.636 658.308 301.791 662.949 301.791C667.501 301.702 667.501 294.636 662.949 294.636Z" fill="white"/>
<path d="M551.654 275.494C551.297 275.136 550.851 274.689 550.494 274.331C549.155 272.99 546.835 272.9 545.496 274.331C544.157 275.763 544.068 277.999 545.496 279.34L546.656 280.503C547.995 281.845 550.316 281.934 551.654 280.503C552.904 279.072 553.082 276.925 551.654 275.494Z" fill="white"/>
<path d="M561.115 350.361C560.758 350.003 560.312 349.556 559.955 349.198C558.616 347.856 556.295 347.767 554.957 349.198C553.618 350.629 553.529 352.865 554.957 354.207L556.117 355.37C557.455 356.711 559.776 356.801 561.115 355.37C562.454 353.849 562.543 351.792 561.115 350.361Z" fill="white"/>
<path d="M453.122 363.509C448.481 363.509 448.481 370.665 453.122 370.665C457.585 370.665 457.585 363.509 453.122 363.509Z" fill="white"/>
</svg>
