<svg width="495" height="351" viewBox="0 0 495 351" fill="none" xmlns="http://www.w3.org/2000/svg">
<g clip-path="url(#clip0)">
<path d="M490.73 169.817C483.305 132.382 466.166 95.0085 435.29 65.6659C407.509 39.2266 369.765 19.706 328.556 9.32794C240.075 -13.1578 136.558 5.99214 68.8048 56.338C36.5679 80.3681 13.4267 111.687 4.26915 146.034C-5.19772 181.492 1.05165 218.557 23.2648 250.37C28.6479 258.03 34.9592 265.196 41.8892 272.053C42.6317 272.794 43.5598 272.979 44.3642 272.856C44.426 273.288 44.7354 273.844 45.4779 274.215C63.4835 285.767 85.4492 291.45 107.662 295.712C132.598 300.469 157.781 304.114 183.15 306.832C234.63 312.206 286.852 313.38 338.642 310.106C363.949 308.561 389.194 305.905 414.253 302.384C427.123 300.531 439.931 298.369 452.615 296.021C462.268 294.168 474.89 293.118 480.83 285.828C483.367 282.616 484.543 278.91 485.657 275.265C487.204 270.138 488.565 264.949 489.74 259.883C492.03 249.876 493.577 239.622 494.505 229.429C495.866 209.599 494.69 189.523 490.73 169.817Z" fill="#141E28"/>
<path d="M483.615 288.299C477.241 277.983 465.176 269.088 452.739 261.86C440.611 254.756 426.813 249.011 411.963 244.934C400.393 241.66 388.389 239.621 376.2 238.201C344.52 231.097 310.86 228.07 277.447 229.429C238.59 228.317 199.485 229.614 160.936 233.259C141.384 235.112 121.955 237.645 102.712 240.672C85.944 243.39 68.6808 246.602 54.264 253.335C40.4658 259.822 30.009 268.902 20.7896 278.23C11.6321 287.435 4.08333 298.492 9.83771 309.673C21.5321 332.282 64.9683 336.854 95.1014 341.116C171.208 352.05 250.036 353.533 327.318 347.602C346.19 346.12 364.938 344.328 383.625 342.043C402.311 339.757 421.492 337.595 439.745 333.827C454.781 330.738 469.321 325.796 478.788 317.086C488.07 308.561 489.74 298.183 483.615 288.299Z" fill="#B4C7E7"/>
<path d="M366.052 119.347C365.31 119.347 364.505 119.409 363.887 119.595C360.298 119.533 358.38 116.012 359.679 112.491C360.05 111.564 359.865 110.823 359.432 110.328C359.432 110.267 359.432 110.081 359.432 109.958C359.679 106.56 354.42 106.56 354.11 109.958C353.739 113.788 351.945 117.247 348.727 119.409C345.881 121.386 348.294 125.216 351.388 123.98C354.11 122.807 355.41 127.44 355.843 129.169C356.462 131.517 360.484 131.826 360.979 129.169C361.35 127.007 362.649 125.339 364.629 124.907C365.248 124.907 365.99 124.845 366.609 124.66C369.579 123.795 368.96 119.224 366.052 119.347Z" fill="#F7D06F"/>
<path d="M224.73 181.801C224.297 181.739 223.802 181.739 223.368 181.739C220.337 181.307 218.79 178.527 219.903 175.376C220.522 173.461 219.099 172.288 217.552 172.164C215.82 171.176 212.973 172.597 213.654 175.191C214.273 178.094 212.85 180.813 210.437 182.233C209.632 182.419 208.766 182.666 207.962 183.222C205.425 184.766 207.033 188.72 209.942 188.04C210.56 187.855 211.241 187.669 211.798 187.422C213.468 187.484 214.706 189.77 215.51 191.067C216.624 192.797 219.965 192.797 220.337 190.449C220.584 188.473 221.822 187.361 223.554 187.175C223.987 187.175 224.482 187.175 224.915 187.175C228.195 186.805 228.009 182.233 224.73 181.801Z" fill="#F7D06F"/>
<path d="M116.758 88.4604C113.107 88.0898 109.828 86.2983 107.539 83.3332C105.806 81.0475 102.032 82.2212 102.712 85.3099C102.774 85.4953 102.774 85.7424 102.898 85.9277C102.712 87.0396 102.155 87.9044 101.413 88.584C100.052 88.831 98.7523 89.5106 97.391 90.5607C95.2254 92.414 97.6385 95.3791 99.9279 94.9467C101.227 94.6996 102.403 94.2054 103.517 93.5877C105.806 94.0201 107.91 97.4176 108.9 98.962C110.385 101.309 113.54 100.136 113.85 97.603C114.035 95.4409 115.52 93.9583 117.562 93.4023C120.47 92.8464 119.542 88.7075 116.758 88.4604ZM109.457 91.5491C109.828 91.7344 110.199 91.9198 110.632 92.1051C110.57 92.1669 110.447 92.2904 110.385 92.4757C110.075 92.1669 109.828 91.7962 109.457 91.5491Z" fill="#F7D06F"/>
<path d="M293.597 52.4462C292.607 52.6315 288.956 51.8902 290.689 50.1605C292.545 48.3073 290.75 45.7746 288.832 45.7128C287.347 44.5391 284.563 45.1568 284.439 47.6896C284.377 50.5312 282.954 52.6932 280.85 54.1758C280.294 54.3611 279.86 54.6082 279.365 54.9789C276.519 56.9557 278.932 60.9092 282.026 59.5502C282.459 59.3648 282.83 59.1795 283.325 58.9324C285.429 58.1911 287.409 59.4884 287.78 62.0211C288.337 65.4187 293.349 63.9361 292.916 60.6621C292.73 59.1795 293.844 58.0058 295.082 57.6352C298.299 56.5232 296.876 52.0137 293.597 52.4462Z" fill="#F7D06F"/>
<path d="M344.767 216.024C341.364 216.024 341.364 221.336 344.767 221.336C348.17 221.213 348.17 216.024 344.767 216.024Z" fill="white"/>
<path d="M412.768 194.465C409.365 194.465 409.365 199.777 412.768 199.777C416.171 199.654 416.171 194.465 412.768 194.465Z" fill="white"/>
<path d="M399.032 110.946H398.475C397.113 110.946 395.752 112.12 395.814 113.602C395.876 115.085 396.99 116.259 398.475 116.259H399.032C400.393 116.259 401.754 115.085 401.692 113.602C401.568 112.12 400.455 110.946 399.032 110.946Z" fill="white"/>
<path d="M294.03 145.787C290.627 145.787 290.627 151.099 294.03 151.099C297.371 150.976 297.371 145.787 294.03 145.787Z" fill="white"/>
<path d="M254.615 106.313C253.13 106.375 251.955 107.487 251.955 108.969V109.525C251.955 110.884 253.13 112.243 254.615 112.182C256.1 112.12 257.276 111.008 257.276 109.525V108.969C257.214 107.61 256.038 106.313 254.615 106.313Z" fill="white"/>
<path d="M317.852 48.5544C317.666 48.3691 317.48 48.1837 317.295 47.9984C316.305 47.01 314.572 47.01 313.582 47.9984C312.592 49.1103 312.592 50.6547 313.582 51.7049L314.139 52.2608C315.129 53.2492 316.862 53.2492 317.852 52.2608C318.78 51.1489 318.842 49.5428 317.852 48.5544Z" fill="white"/>
<path d="M293.906 86.0512C290.503 86.0512 290.503 91.3638 293.906 91.3638C297.309 91.3638 297.309 86.0512 293.906 86.0512Z" fill="white"/>
<path d="M234.877 136.212C231.474 136.212 231.474 141.524 234.877 141.524C238.218 141.401 238.218 136.212 234.877 136.212Z" fill="white"/>
<path d="M325.957 101.186C325.771 101.001 325.586 100.815 325.4 100.63C324.41 99.6415 322.678 99.6415 321.688 100.63C320.698 101.742 320.698 103.286 321.688 104.336C321.873 104.522 322.059 104.707 322.245 104.892C323.235 105.881 324.967 105.881 325.957 104.892C326.947 103.842 327.071 102.236 325.957 101.186Z" fill="white"/>
<path d="M246.015 161.354C242.612 161.354 242.612 166.666 246.015 166.666C249.356 166.543 249.356 161.354 246.015 161.354Z" fill="white"/>
<path d="M81.0563 130.837C79.9426 129.849 78.3957 129.849 77.3438 130.837C77.1582 131.023 76.9726 131.208 76.7869 131.393C75.7969 132.382 75.7969 134.111 76.7869 135.1C77.9007 136.088 79.4476 136.088 80.4994 135.1L81.0563 134.544C82.0463 133.555 82.1701 131.826 81.0563 130.837Z" fill="white"/>
<path d="M107.415 170.187C105.93 170.249 104.754 171.361 104.754 172.844V173.4C104.754 174.759 105.93 176.118 107.415 176.056C108.9 175.994 110.076 174.882 110.076 173.4V172.844C110.076 171.485 108.9 170.126 107.415 170.187Z" fill="white"/>
<path d="M107.972 214.974C104.569 214.974 104.569 220.286 107.972 220.286C111.375 220.163 111.375 214.974 107.972 214.974Z" fill="white"/>
<path d="M78.9522 179.392C75.5491 179.392 75.5491 184.704 78.9522 184.704C82.3554 184.581 82.3554 179.392 78.9522 179.392Z" fill="white"/>
<path d="M232.217 315.48C228.319 315.665 224.297 315.727 220.337 315.912C216.872 315.974 216.748 321.472 220.337 321.41C224.235 321.225 228.257 321.163 232.217 320.978C235.682 320.731 235.682 315.295 232.217 315.48Z" fill="#57455D"/>
<path d="M435.414 281.69C435.166 281.072 434.61 280.578 433.681 280.392C429.412 279.651 422.173 278.848 419.141 283.049C416.233 287.126 419.76 291.882 424.091 292.809C428.298 293.735 434.3 292.376 437.146 288.979C439.56 286.137 438.136 282.863 435.414 281.69ZM429.226 287.311C427.927 287.558 426.009 287.929 424.772 287.373C422.482 286.384 425.328 285.643 426.442 285.52C427.989 285.334 429.536 285.458 431.083 285.581C431.268 285.828 431.516 286.137 431.887 286.323C431.825 286.323 431.825 286.384 431.701 286.384C430.835 286.693 430.155 287.064 429.226 287.311Z" fill="#57455D"/>
<path d="M235.867 274.647C233.021 274.647 230.113 275.018 227.39 275.759C223.987 276.562 225.41 281.875 228.875 281.072C231.165 280.516 233.516 280.269 235.929 280.269C239.456 280.083 239.456 274.647 235.867 274.647Z" fill="#57455D"/>
<path d="M355.472 304.917H349.965C346.376 304.917 346.376 310.414 349.965 310.414H355.472C358.937 310.353 358.937 304.917 355.472 304.917Z" fill="#57455D"/>
<path d="M402.187 263.343C400.021 262.54 397.423 262.54 395.133 263.343C393.772 263.775 392.844 265.258 393.215 266.74C393.586 268.099 395.133 269.088 396.618 268.655C398.103 268.223 399.279 268.223 400.702 268.655C402.063 269.088 403.734 268.099 404.105 266.74C404.6 265.196 403.672 263.775 402.187 263.343Z" fill="#57455D"/>
<path d="M128.452 268.841C128.019 268.285 127.338 267.914 126.534 267.914C121.522 267.667 113.293 267.173 110.57 272.362C107.91 277.304 113.045 281.504 117.5 282.369C122.079 283.296 129.195 282.431 132.288 278.539C135.258 274.524 132.288 270.447 128.452 268.841ZM127.338 275.574C126.967 276.315 125.049 276.562 124.43 276.871C122.326 277.489 119.79 277.674 117.686 276.933C114.283 275.821 115.768 274.091 118.614 273.535C120.532 273.165 122.512 273.165 124.43 273.288C124.678 273.35 124.863 273.535 125.235 273.659C125.977 273.659 126.596 273.906 127.091 274.462C128.081 274.647 128.143 275.08 127.338 275.574Z" fill="#57455D"/>
<path d="M162.298 314.183C161.865 312.638 160.38 312.021 158.895 312.268C155.987 312.7 153.14 313.256 150.232 313.75C148.747 313.997 147.943 315.727 148.314 317.148C148.747 318.692 150.232 319.31 151.717 319.063C154.625 318.63 157.472 318.074 160.38 317.58C161.865 317.271 162.545 315.542 162.298 314.183Z" fill="#57455D"/>
<path d="M240.137 243.637C237.6 243.451 234.939 243.39 232.402 243.204C228.813 243.019 228.937 248.517 232.402 248.702C234.939 248.888 237.6 248.949 240.137 249.135C243.602 249.32 243.602 243.822 240.137 243.637Z" fill="#57455D"/>
<path d="M96.8342 255.868C96.4011 254.324 94.9161 253.768 93.4311 253.953C92.503 254.015 91.4511 253.953 90.3373 253.582C88.9761 253.15 87.3055 254.138 86.9342 255.497C86.563 256.98 87.3673 258.401 88.8523 258.895C90.8324 259.513 92.8742 259.513 94.8542 259.266C96.4011 259.08 97.2055 257.227 96.8342 255.868Z" fill="#57455D"/>
<path d="M76.2915 302.137C73.0121 301.89 69.7946 301.581 66.5153 301.334C63.0503 301.087 63.0503 306.523 66.5153 306.832C69.7946 307.079 73.0121 307.388 76.2915 307.635C79.7565 307.882 79.7565 302.446 76.2915 302.137Z" fill="#57455D"/>
<path d="M396.928 310.723C394.206 310.662 391.545 310.909 388.884 311.526C385.419 312.329 386.904 317.518 390.369 316.839C392.535 316.407 394.639 316.221 396.928 316.221C400.455 316.283 400.455 310.847 396.928 310.723Z" fill="#57455D"/>
<path d="M456.328 298.863C454.162 298.801 451.935 299.419 450.14 300.531C448.841 301.334 448.408 303.002 449.15 304.237C449.893 305.534 451.625 305.967 452.863 305.225C453.976 304.484 454.966 304.299 456.328 304.299C457.813 304.361 459.05 303.002 459.05 301.581C459.05 300.16 457.813 298.986 456.328 298.863Z" fill="#57455D"/>
<path d="M291.307 320.422C288.832 320.175 286.481 319.866 284.006 319.619C282.521 319.433 281.284 320.978 281.284 322.337C281.284 324.005 282.583 324.87 284.006 325.055C286.481 325.302 288.832 325.611 291.307 325.858C292.792 326.043 294.03 324.499 294.03 323.14C294.03 321.472 292.731 320.484 291.307 320.422Z" fill="#57455D"/>
<path d="M111.622 317.21H104.321C100.732 317.21 100.732 322.708 104.321 322.708H111.622C115.087 322.646 115.087 317.21 111.622 317.21Z" fill="#57455D"/>
<path d="M60.7608 277.18C58.1002 277.798 55.4396 278.354 52.8408 279.033C49.3758 279.775 50.8608 285.025 54.3258 284.346C56.9864 283.728 59.6471 283.172 62.2458 282.493C65.6489 281.69 64.1639 276.377 60.7608 277.18Z" fill="#57455D"/>
<path d="M397.98 142.142C396.495 142.204 395.257 143.316 395.257 144.86V145.601C395.257 147.084 396.557 148.443 397.98 148.319C399.465 148.258 400.702 147.146 400.702 145.601V144.86C400.764 143.501 399.465 142.142 397.98 142.142Z" fill="white"/>
<path d="M458.617 207.19H456.142C455.895 206.202 455.585 205.09 455.152 204.101C454.595 202.742 453.296 201.816 451.749 202.186C450.45 202.557 449.274 204.163 449.831 205.584C450.017 206.14 450.202 206.696 450.388 207.252H447.48C443.891 207.252 443.891 212.75 447.48 212.75H451.192C451.192 213.306 451.192 213.923 451.13 214.479C450.945 215.962 451.502 217.383 453.048 217.877C454.348 218.248 456.266 217.445 456.452 215.962C456.637 214.85 456.699 213.8 456.699 212.75H458.617C462.144 212.688 462.144 207.19 458.617 207.19Z" fill="#F7D06F"/>
<path d="M395.01 63.1331C393.834 63.1948 392.658 63.1948 391.421 63.1948C391.235 62.0829 391.173 61.0945 390.988 59.9826C390.802 58.5 388.884 57.6969 387.585 58.0676C386.038 58.5 385.481 59.9826 385.667 61.4652L385.852 62.6389C385.419 62.5771 385.048 62.5771 384.553 62.4535C381.088 61.7123 379.603 67.0248 383.068 67.7661C384.243 68.0132 385.419 68.1985 386.533 68.3838L387.152 72.5845C387.337 74.0671 389.255 74.8701 390.555 74.4995C392.102 74.0671 392.658 72.5845 392.473 71.1019C392.411 70.2988 392.287 69.5576 392.102 68.7545C393.03 68.7545 393.958 68.7545 394.824 68.6927C398.537 68.3221 398.537 62.8242 395.01 63.1331Z" fill="#F7D06F"/>
<path d="M53.0884 156.226C50.9847 156.474 48.8809 156.844 46.7772 157.338C46.7153 156.412 46.5915 155.423 46.5297 154.497C46.1584 151.037 40.7134 151.037 41.0228 154.497C41.2084 155.979 41.2703 157.4 41.4559 158.883C41.0847 158.945 40.8372 159.068 40.4659 159.253C37.1865 160.427 38.6097 165.74 41.9509 164.566C41.9509 164.566 41.9509 164.566 42.0128 164.566C42.0747 165.925 42.2603 167.284 42.384 168.643C42.7553 172.102 48.2003 172.102 47.8909 168.643C47.7053 166.728 47.5197 164.813 47.334 162.898C49.2522 162.466 51.1703 162.095 53.0884 161.786C56.6153 161.354 56.6153 155.918 53.0884 156.226Z" fill="#F7D06F"/>
<path d="M69.3617 217.506C68.248 217.506 67.1961 217.506 66.1442 217.506C65.8967 216.394 65.7111 215.406 65.4017 214.294C64.5974 210.835 59.2761 212.317 60.0805 215.777C60.2661 216.518 60.4517 217.259 60.6374 218.062C59.833 218.124 59.0905 218.309 58.2861 218.495C54.8211 219.236 56.3061 224.487 59.7711 223.807C60.5136 223.622 61.2561 223.56 61.8749 223.437C62.0605 224.363 62.308 225.29 62.4936 226.155C63.298 229.614 68.6192 228.131 67.8149 224.672C67.753 224.116 67.5674 223.56 67.4436 222.942C68.0624 222.942 68.743 222.942 69.3617 222.942C72.9505 223.128 72.9505 217.692 69.3617 217.506Z" fill="#F7D06F"/>
<path d="M257.214 55.1642C253.625 55.1642 253.625 60.6621 257.214 60.6621C260.803 60.6621 260.803 55.1642 257.214 55.1642Z" fill="white"/>
<path d="M136.743 49.0486C133.155 49.0486 133.155 54.5465 136.743 54.5465C140.27 54.5465 140.27 49.0486 136.743 49.0486Z" fill="white"/>
<path d="M64.1642 100.012C60.5755 100.012 60.5755 105.51 64.1642 105.51C67.753 105.51 67.753 100.012 64.1642 100.012Z" fill="white"/>
<path d="M26.4821 200.518C22.8933 200.518 22.8933 206.016 26.4821 206.016C30.009 206.016 30.009 200.518 26.4821 200.518Z" fill="white"/>
<path d="M439.436 112.614C435.847 112.614 435.847 118.112 439.436 118.112C442.901 118.05 442.901 112.614 439.436 112.614Z" fill="white"/>
<path d="M451.192 159.871C447.603 159.871 447.603 165.369 451.192 165.369C454.781 165.369 454.781 159.871 451.192 159.871Z" fill="white"/>
<path d="M425.39 221.213C423.905 221.275 422.668 222.386 422.668 223.931V224.672C422.668 226.155 423.967 227.514 425.39 227.39C426.875 227.328 428.113 226.216 428.113 224.672V223.931C428.113 222.51 426.875 221.151 425.39 221.213Z" fill="white"/>
<path d="M474.21 250.061C470.621 250.061 470.621 255.559 474.21 255.559C477.675 255.497 477.675 250.061 474.21 250.061Z" fill="white"/>
<path d="M350.645 60.8474C347.056 60.8474 347.056 66.3453 350.645 66.3453C354.11 66.2835 354.11 60.8474 350.645 60.8474Z" fill="white"/>
<path d="M353.987 173.77C350.398 173.77 350.398 179.268 353.987 179.268C357.452 179.206 357.452 173.77 353.987 173.77Z" fill="white"/>
<path d="M142.313 133.123C141.941 127.749 140.456 122.189 135.011 119.903C130.804 118.174 126.163 119.471 124.245 123.733C121.337 130.034 121.708 138.93 121.584 145.725C121.523 153.385 122.327 160.921 123.503 168.396C124.431 174.017 125.049 181.986 129.504 186.249C132.908 189.461 138.476 189.708 141.632 186.187C141.694 186.125 141.818 186.002 141.879 185.816C143.241 185.816 144.602 185.013 144.416 183.16C143.241 166.543 143.303 149.802 142.313 133.123Z" fill="#EF86B0"/>
<path d="M143.302 102.112C130.618 96.7381 115.273 110.02 110.447 120.892C105.249 132.629 105.621 154.682 122.512 155.609C122.698 155.609 122.946 155.609 123.131 155.609C125.668 155.609 126.534 151.346 123.564 150.111C113.231 146.096 113.541 131.517 117.253 123.054C121.522 113.294 131.299 107.487 141.817 107.301C144.416 107.24 145.963 103.224 143.302 102.112Z" fill="#57455D"/>
<path d="M194.535 144.984C209.88 129.046 220.708 109.155 225.782 87.6573C228.257 77.1557 229.618 65.8511 228.814 55.0407C228.566 51.1489 227.638 46.8247 224.359 44.292C221.265 41.9446 217.491 42.5623 215.139 45.5892C212.603 48.8633 212.231 53.8052 211.303 57.6969C210.004 63.2566 208.766 68.7545 207.219 74.1906C204.311 84.6922 200.537 95.0702 194.721 104.336C191.874 108.784 188.595 112.923 184.759 116.444C178.943 121.942 173.064 123.857 165.33 121.386C160.38 119.842 152.274 117.185 150.728 111.564C149.057 105.572 150.728 98.0971 152.646 92.3522C157.101 78.5766 167.248 67.7661 178.138 58.5618C186.615 51.4578 200.166 44.9097 202.393 32.9256C202.641 31.3812 201.651 29.2809 199.733 29.4662C180.489 31.1959 162.855 41.2033 150.975 56.3379C138.043 72.8316 132.536 93.9583 133.279 114.653C133.279 115.456 133.65 116.012 134.083 116.506C134.021 129.108 135.011 141.586 137.115 153.941C138.848 173.523 140.951 193.106 143.426 212.75C145.406 228.626 147.696 244.44 150.171 260.316C150.789 264.393 151.47 268.532 152.151 272.609C152.769 276.624 154.131 281.01 154.069 285.025C153.883 290.647 147.139 292.747 146.644 298.677C146.582 300.222 148.005 301.334 149.366 301.395C156.234 301.643 162.855 300.84 169.538 299.048C170.713 298.677 171.518 297.565 171.518 296.392C171.889 271.806 172.322 247.158 172.693 222.572C175.168 235.606 177.705 248.702 180.18 261.737C181.17 267.049 182.16 272.3 183.212 277.612C184.14 282.369 184.511 287.805 186.12 292.376C188.843 300.036 201.651 298.677 208.024 298.307C210.004 298.245 211.489 296.021 210.375 294.23C207.467 289.411 202.331 287.373 201.341 281.381C200.228 274.894 199.98 268.285 199.361 261.798C198.062 248.393 196.886 234.927 195.896 221.522C194.04 196.194 193.174 170.743 193.916 145.416C193.978 145.416 194.226 145.231 194.535 144.984Z" fill="white"/>
<path d="M181.727 159.562C181.665 153.076 182.098 144.613 179.809 138.436C177.829 133.061 169.97 133.679 165.268 133.432C161.06 133.185 153.14 131.579 150.232 135.779C148.933 137.633 148.933 140.351 148.685 142.513C148.252 146.343 148.067 150.234 148.252 154.188C148.438 159.995 148.5 168.705 152.893 173.214C157.472 178.033 165.701 176.612 171.332 175.068C171.95 174.882 172.445 174.635 172.693 174.141C174.178 174.079 175.725 173.77 177.086 173.523C183.088 171.917 181.727 164.442 181.727 159.562Z" fill="#F7D06F"/>
<path d="M182.036 32.7402C171.518 36.8173 161.494 42.0063 154.007 50.7165C152.646 52.2608 153.388 54.1758 154.749 54.9789C157.224 57.8205 159.761 60.5385 162.236 63.3801C163.783 65.1098 165.268 67.2719 167.743 67.5808C170.218 67.8279 172.508 66.0982 174.426 64.8627C177.086 63.1948 179.747 61.4034 182.16 59.4884C186.986 55.8437 191.441 51.9519 195.649 47.6278C198.928 44.2302 204.064 39.906 204.435 34.8405C205.363 22.3004 187.419 30.6399 182.036 32.7402Z" fill="#74A2D6"/>
<path d="M229.495 47.8131C227.948 44.7862 225.225 40.7709 221.575 40.3384C217.986 39.9678 215.944 43.2418 214.521 45.9599C212.355 50.2223 211.118 54.9789 209.695 59.5502C207.838 65.2951 206.044 71.1019 204.188 76.8469C203.383 79.3796 206.168 80.8622 208.086 79.9356C208.148 79.9356 208.148 79.9974 208.271 79.9974C213.469 80.9857 218.79 81.8506 224.05 81.9124C228.443 81.9124 229.866 80.7386 230.794 76.4145C232.774 67.1484 234.135 56.6468 229.495 47.8131Z" fill="#74A2D6"/>
<path d="M307.457 235.483C310.365 240.98 315.872 240.301 321.131 240.054C328.432 239.683 335.857 239.498 343.035 238.88C347.985 238.448 353.244 236.965 355.348 231.961C356.895 228.502 356.462 224.734 355.596 221.089C356.214 220.348 356.586 219.36 356.152 218.248C354.234 213.059 347.49 213.12 342.911 212.75C335.857 212.194 328.742 212.379 321.75 213.367C316.429 214.109 311.046 214.356 308.632 219.73C306.467 224.425 304.858 230.602 307.457 235.483Z" fill="#EF86B0"/>
<path d="M250.594 228.317C260.989 240.733 278.066 244.996 293.597 243.019C295.329 242.834 295.948 241.351 295.762 239.992C302.445 239.004 307.519 234.618 311.293 228.687C316.057 221.151 319.894 211.205 320.451 202.248C322.74 165.616 261.298 163.269 246.386 189.337C239.456 201.445 241.746 217.753 250.594 228.317Z" fill="#B4C7E7"/>
<path d="M262.597 296.886C264.268 298.43 266.495 296.824 266.99 295.033C268.537 288.114 269.342 281.01 269.342 273.906C269.342 271.003 268.042 267.42 271.26 266.617C273.425 265.999 276.395 266.184 278.994 266.246C279.18 277.551 280.974 288.546 284.377 299.357C284.81 300.901 286.667 301.21 288.028 300.716C292.668 299.233 293.411 294.168 293.349 289.844C293.163 282.925 292.73 275.883 292.359 268.964C296.814 268.408 301.331 268.223 305.848 268.346C308.323 268.408 311.664 267.976 313.582 269.705C315.129 271.188 314.51 273.103 314.572 275.08C314.82 283.11 318.161 290.647 323.544 296.701C325.029 298.368 328.308 297.874 328.37 295.342C328.556 289.844 328.742 284.469 328.927 279.033C328.989 276.871 328.494 273.412 329.175 271.311C330.103 268.593 334.125 269.149 336.476 268.841C346.314 267.729 356.214 266.678 365.99 265.628C367.475 274.4 370.26 282.678 374.591 290.4C375.767 292.5 379.727 292.562 379.789 289.658C380.531 262.292 377.437 235.174 370.198 208.734C369.394 205.893 365.248 205.522 364.815 208.796C364.382 212.07 363.825 215.344 363.33 218.618C362.897 221.336 363.268 226.896 360.422 228.379C358.442 229.367 354.048 228.996 351.821 229.12C348.975 229.305 346.067 229.49 343.158 229.676C330.722 230.232 318.347 229.861 305.91 228.873C304.92 228.811 304.053 229.243 303.62 229.799C292.483 229.985 281.407 230.046 270.27 230.232C266.248 230.294 260.308 229.243 256.781 231.22C253.378 233.197 253.873 237.583 253.687 241.042C253.254 252.223 253.44 263.466 254.306 274.586C254.925 282.863 256.224 290.956 262.597 296.886Z" fill="white"/>
<path d="M260.061 231.344C264.454 232.888 269.032 233.506 273.673 233.691C278.252 234.247 282.831 234.494 287.471 234.432C290.194 234.371 296.876 234.988 299.722 232.703C301.022 232.765 302.197 232.085 302.197 230.417C302.197 224.301 301.95 218.186 301.022 212.194C300.403 208.117 299.537 204.163 296.196 201.507C294.649 200.333 292.792 201.136 291.988 202.681C290.689 205.028 289.451 207.437 288.152 209.785C281.841 209.723 275.467 209.785 269.156 209.97C268.414 208.487 267.795 206.943 267.052 205.584C265.939 203.607 262.969 203.422 262.041 205.646C258.947 212.935 258.576 220.78 258.452 228.626C258.328 229.614 258.761 230.911 260.061 231.344Z" fill="#56597A"/>
<path d="M364.691 270.632C365.867 277.365 368.713 286.014 373.106 291.388C376.386 295.403 381.15 293.674 382.078 289.041C383.563 281.566 382.14 272.547 380.779 265.134C380.531 263.59 379.232 262.848 378.056 262.972C377.623 262.231 376.695 261.86 375.581 262.169C369.951 263.528 363.392 263.404 364.691 270.632Z" fill="#74A2D6"/>
<path d="M313.644 274.462C314.758 279.651 315.563 285.025 317.109 290.153C318.099 293.365 320.018 297.874 323.854 298.245C328.123 298.677 328.68 294.044 329.237 290.832C330.165 285.52 330.351 280.083 330.413 274.709C330.413 274.091 330.227 273.412 329.856 272.979C329.484 272.238 328.866 271.682 327.876 271.497C323.854 270.879 319.956 270.756 315.934 271.25C314.573 271.435 313.397 272.979 313.644 274.462Z" fill="#74A2D6"/>
<path d="M281.222 293.056C281.779 296.454 282.521 302.26 287.347 301.704C291.802 301.148 292.669 295.898 293.164 292.315C294.277 286.014 294.649 279.713 294.463 273.474C294.401 270.941 291.617 270.632 290.07 271.991C286.976 271.929 283.759 271.744 280.851 272.547C279.922 272.794 279.366 273.844 279.18 274.709C278.623 277.242 279.366 280.331 279.613 282.987C280.17 286.323 280.603 289.658 281.222 293.056Z" fill="#74A2D6"/>
<path d="M262.597 302.075C267.238 303.434 268.166 298.801 268.599 295.403C269.527 289.041 270.27 282.616 270.703 276.192C270.703 276.006 270.703 275.759 270.703 275.574C270.889 274.215 270.146 272.671 268.414 272.362C264.516 271.744 260.741 271.62 256.843 272.3C255.172 272.547 254.492 273.968 254.554 275.389C254.677 282.369 253.502 299.357 262.597 302.075Z" fill="#74A2D6"/>
<path d="M288.028 220.41C288.956 219.236 290.689 218.927 291.864 219.854L292.421 220.224C293.349 220.966 293.782 222.201 293.349 223.313C295.329 221.954 297.186 220.286 298.671 218.309C300.774 215.468 305.167 218.742 303.064 221.583C301.146 224.116 298.856 226.34 296.196 228.07C294.896 228.873 293.349 228.873 292.359 227.637C291.802 226.896 291.617 225.784 291.988 224.919C291.06 225.352 290.07 225.29 289.142 224.672L288.585 224.301C287.471 223.437 287.1 221.583 288.028 220.41Z" fill="#57455D"/>
<path d="M268.352 219.792L268.785 219.73C270.27 219.545 271.693 220.533 271.879 222.016C272.064 223.498 271.074 224.919 269.589 225.105L269.156 225.166C267.671 225.352 266.248 224.363 266.062 222.881C265.877 221.336 266.929 219.977 268.352 219.792Z" fill="#57455D"/>
<path d="M272.188 228.687C273.364 226.525 274.725 224.672 276.581 222.942C277.386 222.201 279.056 222.139 279.984 222.881C281.903 224.734 283.449 226.587 284.625 228.996C286.172 232.209 281.16 234.371 279.613 231.158C279.242 230.417 278.871 229.676 278.314 229.058C277.943 229.614 277.571 230.046 277.324 230.726C276.581 232.023 275.22 232.826 273.735 232.27C272.498 231.714 271.569 229.985 272.188 228.687Z" fill="#57455D"/>
<path d="M254.059 215.282C255.358 214.294 256.905 214.665 257.895 215.715C259.999 217.877 262.474 219.792 265.134 221.46C266.434 222.263 266.495 224.178 265.691 225.29C264.763 226.587 263.154 226.649 261.855 225.846C258.823 223.931 256.1 221.645 253.625 219.112C252.574 218.124 252.945 216.209 254.059 215.282Z" fill="#57455D"/>
<path d="M291.184 202.804C291.184 201.322 291.926 199.963 293.473 199.715C294.772 199.53 296.567 200.518 296.567 202.001C296.567 204.719 296.629 207.499 296.629 210.217C296.629 211.7 295.886 213.059 294.339 213.306C293.04 213.491 291.245 212.503 291.245 211.02C291.307 208.178 291.184 205.46 291.184 202.804Z" fill="#57455D"/>
<path d="M261.174 206.387C261.793 202.928 267.176 203.545 266.681 207.005C266.31 209.352 266.124 211.638 266.31 214.047C266.558 217.506 261.174 218.309 260.927 214.85C260.494 212.132 260.618 209.229 261.174 206.387Z" fill="#57455D"/>
<path d="M312.345 186.434C314.263 184.272 316.923 185.507 318.347 187.546C318.408 187.731 318.594 187.917 318.718 188.102C322.43 190.943 323.111 195.824 320.883 199.839C320.265 201.013 318.037 201.322 317.047 200.395C315.067 198.48 312.963 196.38 311.85 193.723C310.983 191.499 310.612 188.225 312.345 186.434Z" fill="#F7D06F"/>
<path d="M323.854 215.962C324.658 212.07 330.165 212.07 333.506 212.503C336.229 212.564 339.137 213.491 340.003 215.962C341.55 220.595 335.424 221.336 332.454 221.151C329.36 221.027 322.864 220.41 323.854 215.962Z" fill="#F7D06F"/>
<path d="M315.377 191.623C316.305 189.646 318.037 188.596 319.955 188.225C324.967 186.558 330.474 188.781 333.444 193.353C334.991 195.7 335.795 198.356 336.105 201.074C336.29 202.186 336.29 203.237 336.29 204.348C336.662 207.561 336.352 210.711 335.548 213.491C334.249 217.692 327.814 218.248 327.814 213.12C327.814 209.414 330.103 206.078 329.732 202.063C329.546 199.715 328.618 197.43 326.885 195.762C324.41 194.588 321.131 194.959 318.409 195.206C316.367 195.638 314.449 193.6 315.377 191.623Z" fill="#57455D"/>
<path d="M252.574 229.923C255.606 227.267 259.256 226.711 263.093 226.834C268.29 227.02 273.488 227.575 278.809 227.637C281.098 227.637 283.388 227.637 285.739 227.637C286.11 227.452 286.481 227.267 286.915 227.267C292.05 226.711 297.124 226.278 302.26 225.722C305.91 225.352 311.541 223.746 315.068 224.981C317.233 225.784 318.285 228.008 317.728 230.294C316.986 233.382 314.078 234.309 311.17 234.556C300.96 235.483 290.627 235.544 280.294 236.039C271.693 236.471 261.298 238.571 253.193 234.741C251.398 233.629 251.027 231.282 252.574 229.923Z" fill="#EF86B0"/>
<path d="M303.064 265.69C302.693 261.428 305.539 259.204 309.561 258.586C316.119 257.412 323.173 257.227 329.856 256.918C337.404 256.671 353.925 253.891 354.049 265.505C354.049 266.678 353.492 267.358 352.688 267.605C352.316 267.976 351.759 268.223 351.326 268.346C336.538 270.817 321.688 271.064 306.776 269.149C305.848 269.088 305.044 268.408 304.673 267.605C303.806 267.234 303.126 266.555 303.064 265.69Z" fill="#F7D06F"/>
<path d="M253.687 276.995C258.266 275.512 262.845 274.894 267.547 275.08C271.136 275.141 270.393 280.639 266.928 280.578C263.216 280.392 259.442 280.948 255.977 282.122C252.573 283.11 250.408 278.107 253.687 276.995Z" fill="#57455D"/>
<path d="M281.779 276.377C284.872 276.809 288.09 276.995 291.184 276.748C294.649 276.501 295.453 281.937 291.988 282.122C288.337 282.369 284.687 282.307 281.098 281.751C277.695 281.319 278.314 275.945 281.779 276.377Z" fill="#57455D"/>
<path d="M315.995 276.439C319.708 275.821 323.544 275.821 327.38 276.377C330.845 276.933 330.227 282.307 326.762 281.875C323.358 281.319 320.203 281.442 316.8 281.937C313.273 282.493 312.468 276.995 315.995 276.439Z" fill="#57455D"/>
<path d="M363.949 269.829C368.527 269.273 373.168 268.841 377.747 268.285C381.212 267.914 382.016 273.288 378.551 273.659C373.972 274.215 369.332 274.647 364.753 275.203C361.226 275.636 360.36 270.261 363.949 269.829Z" fill="#57455D"/>
<path d="M332.702 267.358C332.949 265.999 333.135 264.64 333.444 263.281C333.692 261.922 334.991 260.625 336.538 260.933C337.899 261.181 339.199 262.478 338.889 264.022C338.642 265.381 338.456 266.74 338.147 268.099C337.899 269.458 336.6 270.756 335.053 270.447C333.754 270.2 332.454 268.902 332.702 267.358Z" fill="#57455D"/>
<path d="M321.131 266.37C321.131 264.825 321.131 263.281 321.193 261.737C321.193 260.254 322.926 259.204 324.287 259.389C325.958 259.574 326.638 260.933 326.638 262.478C326.638 264.022 326.638 265.567 326.576 267.111C326.576 268.593 324.844 269.644 323.483 269.458C321.874 269.273 321.131 267.914 321.131 266.37Z" fill="#57455D"/>
<path d="M264.083 259.945C269.466 260.316 274.601 261.675 279.428 264.146C282.521 265.69 280.541 270.817 277.324 269.273C272.931 266.987 268.352 265.814 263.464 265.443C259.875 265.196 260.617 259.76 264.083 259.945Z" fill="#57455D"/>
<path d="M205.858 84.5069C203.878 70.4842 191.132 61.0945 176.467 61.8358C161.494 62.4535 149.737 72.9551 144.169 85.7423C140.704 93.6494 139.033 102.977 142.622 111.193C144.602 115.641 148.129 119.409 152.46 121.571C155.554 124.66 159.142 127.131 163.597 128.058C171.703 129.725 179.685 125.895 186.058 121.386C198.433 112.799 208.024 99.5797 205.858 84.5069Z" fill="#B4C7E7"/>
<path d="M183.212 97.1706C182.779 91.6109 178.943 86.4836 173.064 86.113C166.134 85.6806 160.999 90.8696 157.843 96.3057C154.254 102.298 151.284 109.958 154.811 116.629C157.534 121.818 163.474 124.351 168.981 121.633C173.621 119.347 176.715 114.591 178.633 109.587C181.665 105.572 183.583 100.753 183.212 97.1706Z" fill="#F7D3BC"/>
<path d="M183.212 126.699C182.407 123.98 179.19 123.054 176.901 122.127C172.446 120.398 167.867 118.668 163.288 117C159.019 115.456 154.687 113.973 150.418 112.614C147.572 111.687 144.231 110.143 141.941 112.861C140.766 114.344 140.951 116.073 142.498 117.124C142.56 117.185 142.746 117.309 142.869 117.371C142.869 118.174 143.241 119.1 144.231 119.533C152.151 123.363 160.38 127.44 168.795 130.034C171.951 131.208 185.563 134.667 183.212 126.699Z" fill="#EF86B0"/>
<path d="M208.952 287.311C205.673 285.025 205.549 281.937 205.054 278.292L203.321 266.926C202.764 263.466 202.331 259.883 201.651 256.424C201.279 254.262 201.032 252.038 198.743 251.111C196.206 250.123 192.369 251.05 189.709 251.297C185.996 251.667 182.222 252.285 178.571 253.026C176.096 253.459 176.22 256.3 177.581 257.659C178.757 262.416 180.056 267.111 181.232 271.991C181.789 274.462 182.346 276.809 182.903 279.28C183.831 283.11 184.635 286.94 185.563 290.77C186.12 293.241 186.368 295.712 188.595 297.318C190.451 298.616 192.617 298.677 194.721 298.863C198.557 299.233 202.455 299.48 206.415 299.789C210.066 300.036 216.068 300.592 216.81 295.589C217.553 290.894 211.984 289.411 208.952 287.311Z" fill="#74A2D6"/>
<path d="M172.26 274.647C172.322 267.111 172.445 259.513 172.507 251.976C172.507 250.432 171.208 249.258 169.785 249.258C163.783 249.073 157.719 249.011 151.594 248.826C150.047 248.27 147.943 249.196 147.943 251.297C147.943 260.748 148.871 270.076 150.418 279.466C151.222 284.469 150.851 287.743 146.829 291.203C143.797 293.735 141.322 296.762 139.342 300.222C138.229 302.075 139.59 304.237 141.694 304.299C148.376 304.669 154.997 304.299 161.617 303.31C166.753 302.569 171.579 302.013 172.012 296.083C172.631 288.979 172.136 281.69 172.26 274.647Z" fill="#74A2D6"/>
<path d="M184.573 95.4409C183.583 88.5839 178.2 83.2096 170.961 83.9509C162.36 84.754 157.658 92.1668 153.821 98.962C153.265 99.9504 153.388 100.877 153.821 101.618C153.883 102.916 154.811 103.966 156.482 103.966C157.781 103.966 158.957 103.904 160.133 103.78C157.472 104.583 157.781 109.093 161.061 109.093C164.526 109.093 164.65 103.719 161.123 103.595C163.845 103.163 166.444 102.298 168.857 101.124C169.105 103.471 169.476 106.313 170.218 108.599C170.156 108.599 170.033 108.599 170.033 108.599C168.548 108.66 167.31 109.772 167.31 111.317V111.749C167.31 112.12 167.372 112.49 167.558 112.861C167.496 112.799 167.372 112.799 167.31 112.676C165.33 111.935 163.412 111.193 161.37 110.514C160.009 109.958 158.338 111.07 157.967 112.429C157.534 113.973 158.524 115.27 159.885 115.826C161.865 116.568 163.783 117.309 165.825 117.988C167.186 118.544 168.857 117.432 169.228 116.073C169.414 115.456 169.29 114.9 169.166 114.344C169.414 114.405 169.785 114.529 170.156 114.529C171.332 114.467 172.446 113.726 172.817 112.614C173.931 113.541 175.292 113.973 177.086 113.417C183.583 111.811 185.316 101.001 184.573 95.4409Z" fill="#57455D"/>
<path d="M173.869 58.5618C170.837 53.5581 167.929 48.3691 165.206 43.18C163.535 40.0913 158.833 42.8094 160.442 45.8981C163.164 51.0871 166.072 56.2761 169.104 61.2798C170.96 64.3685 175.725 61.6505 173.869 58.5618Z" fill="#57455D"/>
<path d="M226.648 72.0285C220.523 71.2872 214.397 70.2988 208.395 69.1869C204.93 68.5692 203.445 73.82 206.91 74.4995C213.469 75.7967 220.028 76.7851 226.648 77.5882C230.113 77.897 230.113 72.3992 226.648 72.0285Z" fill="#57455D"/>
<path d="M171.084 143.501C166.444 143.748 161.803 143.748 157.039 143.686C153.45 143.625 153.45 149.061 157.039 149.184C161.679 149.37 166.444 149.246 171.084 148.999C174.549 148.752 174.611 143.316 171.084 143.501Z" fill="#57455D"/>
<path d="M172.075 155.176C167.434 155.609 162.793 156.103 158.029 156.474C154.564 156.844 154.564 162.28 158.029 161.971C162.67 161.539 167.31 161.045 172.075 160.674C175.54 160.242 175.54 154.806 172.075 155.176Z" fill="#57455D"/>
<path d="M168.795 257.783C162.236 256.671 155.678 255.93 149.057 255.621C145.468 255.436 145.592 260.933 149.057 261.119C155.183 261.489 161.308 262.107 167.31 263.096C170.775 263.59 172.26 258.339 168.795 257.783Z" fill="#57455D"/>
<path d="M197.814 254.571C191.812 255.744 185.687 256.671 179.561 257.289C176.096 257.659 176.096 263.096 179.561 262.787C186.12 262.169 192.679 261.119 199.299 259.883C202.764 259.266 201.279 253.953 197.814 254.571Z" fill="#57455D"/>
<path d="M188.595 144.86C188.966 143.686 188.595 142.204 187.419 141.586C186.12 140.968 184.387 141.215 183.707 142.574C182.902 144.119 182.593 145.848 183.088 147.578C183.521 149.122 185.625 150.296 187.11 149.246C188.224 148.443 188.842 147.516 188.842 146.157C188.781 145.601 188.657 145.231 188.595 144.86Z" fill="#74A2D6"/>
<path d="M189.399 159.809C189.214 158.265 188.038 156.968 186.368 157.091C185.749 157.091 185.192 157.277 184.635 157.647C183.893 158.018 183.459 158.759 183.274 159.501C183.212 159.933 183.088 160.489 183.274 160.983V161.045C183.274 161.107 183.274 161.107 183.274 161.23C183.336 162.342 183.893 163.331 184.944 163.701C185.934 164.134 187.11 163.886 187.976 163.145C188.966 162.342 189.585 161.107 189.399 159.809Z" fill="#74A2D6"/>
<path d="M243.354 28.4778C242.426 28.4778 241.436 28.4778 240.508 28.5396C242.364 26.6864 243.911 24.6478 244.344 22.1769C244.715 20.3237 243.045 17.9762 240.941 18.7793C233.887 21.6209 226.772 24.339 219.78 27.1806C217.924 27.9219 217.614 29.8986 218.233 31.2577C218.233 31.6901 218.295 32.246 218.604 32.7402C220.337 35.6436 221.141 39.4118 223.059 42.0063C223.987 43.3036 225.163 43.736 226.71 43.4889C229.247 43.1183 232.526 40.6473 234.815 39.4736C238.219 37.6204 241.374 35.6436 244.592 33.5433C246.943 32.1225 246.2 28.4161 243.354 28.4778Z" fill="#EF86B0"/>
<path d="M241.745 75.6732C236.115 59.7973 229.804 44.2302 222.874 28.8485C221.389 25.6362 216.686 28.4161 218.109 31.5665C224.854 46.3923 230.979 61.6505 236.486 77.0322C237.6 80.4298 242.921 78.9472 241.745 75.6732Z" fill="#57455D"/>
<path d="M177.643 230.788C176.096 216.827 174.611 202.989 173.065 189.029C172.693 185.569 167.248 185.569 167.558 189.029C169.104 202.989 170.59 216.827 172.136 230.788C172.508 234.247 178.014 234.371 177.643 230.788Z" fill="#57455D"/>
</g>
<defs>
<clipPath id="clip0">
<rect width="495" height="351" fill="white"/>
</clipPath>
</defs>
</svg>
